<svg width="57" height="39" fill="none" xmlns="http://www.w3.org/2000/svg"><path d="M17.284 21.499c-1.7-.197-6.333-.764-7.393-1.01a1.233 1.233 0 00-1.503 1.01 1.232 1.232 0 00.937 1.479c1.454.32 7.393 1.022 7.688 1.047h.136-.001a1.234 1.234 0 10.148-2.464l-.012-.062z" fill="url(#paint0_linear_129_602)"/><path d="M53.21 9.474l-4.165-.702c-1.096-1.38-4.927-6.062-7.305-7.725L41.604.96C40.138.197 29.543 0 28.176 0h-.074c-1.368 0-11.963.197-13.429.96l-.124.087C12.16 2.71 8.39 7.392 7.244 8.772l-4.239.702h.001A3.41 3.41 0 000 12.8a3.262 3.262 0 002.981 3.08h.247c-1.996 2.957-2.97 8.218-.998 16.09.06.34.261.64.554.825v2.108a3.13 3.13 0 003.117 3.129h5.568a3.13 3.13 0 003.08-3.092v-.321c3.45.173 7.86.284 13.553.308 5.691.025 10.066-.136 13.552-.308v.32a3.13 3.13 0 003.117 3.13h5.618a3.13 3.13 0 003.117-3.13v-2.107a1.16 1.16 0 00.542-.8c1.983-7.885 1.01-13.158-.986-16.115h.271a3.268 3.268 0 002.957-3.08 3.425 3.425 0 00-3.08-3.363zM50.278 13.6a1.233 1.233 0 00-.702 2.28c2.464 1.576 4.14 6.85 2.143 15.166-1.762.665-10.263 1.343-23.617 1.417-13.355.074-21.856-.751-23.617-1.417-1.995-8.303-.382-13.553 2.143-15.167a1.232 1.232 0 00-.702-2.279c-.864.018-1.73-.032-2.587-.148-.554-.098-.9-.357-.9-.702 0-.344.308-.714.986-.85l4.337-.727a8.05 8.05 0 004.657 2.797c2.464.653 6.16.727 11.087.727h9.24c4.928 0 8.624-.074 11.088-.727a8.046 8.046 0 004.658-2.797l4.287.728c.727.135 1.048.529 1.035.85-.012.32-.345.603-.875.69v-.001a16.79 16.79 0 01-2.66.16h-.001zM28.102 2.514v-.001c4.115-.036 8.23.174 12.32.629a46.438 46.438 0 016.16 6.493 5.527 5.527 0 01-3.4 2.007c-2.563.677-7.084.665-12.801.653h-4.558c-5.717 0-10.238 0-12.8-.653a5.445 5.445 0 01-3.401-2.007 46.795 46.795 0 016.16-6.48 103.72 103.72 0 0112.32-.691v.05zM12.086 34.94c0 .362-.29.658-.654.665h-5.58a.665.665 0 01-.653-.665v-1.233c2.287.42 4.6.688 6.924.801l-.037.432zm38.88 0h.001c0 .362-.29.658-.653.665h-5.58a.665.665 0 01-.654-.665v-.457a52.65 52.65 0 006.924-.8l-.038 1.257z" fill="url(#paint1_linear_129_602)"/><path d="M47.813 21.499a1.234 1.234 0 00-1.479-.924c-1.096.247-5.728.813-7.392 1.01a1.234 1.234 0 10.149 2.464h.098c.258 0 6.234-.726 7.688-1.047a1.234 1.234 0 00.936-1.503z" fill="url(#paint2_linear_129_602)"/><path d="M33.03 27.4h-9.856a1.232 1.232 0 100 2.463h9.856a1.232 1.232 0 100-2.464z" fill="url(#paint3_linear_129_602)"/><defs><linearGradient id="paint0_linear_129_602" x1="13.407" y1="20.455" x2="13.407" y2="24.027" gradientUnits="userSpaceOnUse"><stop stop-color="#4929E9"/><stop offset="1" stop-color="#31B1FC"/></linearGradient><linearGradient id="paint1_linear_129_602" x1="28.145" y1="0" x2="28.145" y2="38.069" gradientUnits="userSpaceOnUse"><stop stop-color="#4929E9"/><stop offset="1" stop-color="#31B1FC"/></linearGradient><linearGradient id="paint2_linear_129_602" x1="42.816" y1="20.543" x2="42.816" y2="24.052" gradientUnits="userSpaceOnUse"><stop stop-color="#4929E9"/><stop offset="1" stop-color="#31B1FC"/></linearGradient><linearGradient id="paint3_linear_129_602" x1="28.101" y1="27.399" x2="28.101" y2="29.863" gradientUnits="userSpaceOnUse"><stop stop-color="#4929E9"/><stop offset="1" stop-color="#31B1FC"/></linearGradient></defs></svg>