<svg width="57" height="54" fill="none" xmlns="http://www.w3.org/2000/svg"><path d="M34.78 17.563h3.993a.87.87 0 00.87-.87v-3.998a.87.87 0 00-.87-.87H34.78a.87.87 0 00-.87.87v3.998c0 .481.39.87.87.87zm.87-3.998h2.253v2.258H35.65v-2.258z" fill="url(#paint0_linear_249_3867)"/><path d="M42.497 17.563h3.993a.87.87 0 00.87-.87v-3.998a.87.87 0 00-.87-.87h-3.993a.87.87 0 00-.87.87v3.998c0 .481.39.87.87.87zm.87-3.998h2.253v2.258h-2.254v-2.258z" fill="url(#paint1_linear_249_3867)"/><path d="M34.78 24.898h3.993a.87.87 0 00.87-.87V20.03a.87.87 0 00-.87-.87H34.78a.87.87 0 00-.87.87v3.998c0 .481.39.87.87.87zm.87-3.998h2.253v2.259H35.65V20.9z" fill="url(#paint2_linear_249_3867)"/><path d="M42.497 24.898h3.993a.87.87 0 00.87-.87V20.03a.87.87 0 00-.87-.87h-3.993a.87.87 0 00-.87.87v3.998c0 .481.39.87.87.87zm.87-3.998h2.253v2.259h-2.254V20.9z" fill="url(#paint3_linear_249_3867)"/><path d="M38.773 32.232a.87.87 0 00.87-.87v-3.998a.87.87 0 00-.87-.87H34.78a.87.87 0 00-.87.87v3.998c0 .48.39.87.87.87h3.993zm-3.123-3.998h2.254v2.258H35.65v-2.258z" fill="url(#paint4_linear_249_3867)"/><path d="M42.497 32.232h3.993a.87.87 0 00.87-.87v-3.998a.87.87 0 00-.87-.87h-3.993a.87.87 0 00-.87.87v3.998c0 .48.39.87.87.87zm.87-3.998h2.253v2.258h-2.254v-2.258z" fill="url(#paint5_linear_249_3867)"/><path d="M42.838 43.33a.87.87 0 00-.87.87v2.473a.87.87 0 101.74 0v-2.474a.87.87 0 00-.87-.87z" fill="url(#paint6_linear_249_3867)"/><path d="M55.456 53.113a.87.87 0 100-1.74h-2.501V7.121a.87.87 0 00-.87-.87H50.68V1.757a.87.87 0 00-.87-.87H31.456a.87.87 0 00-.87.87v4.496h-1.403a.87.87 0 00-.87.87V27.06H5.985a.87.87 0 00-.786.495L1.721 34.86a.871.871 0 00.785 1.244h2.61v15.27H1.542a.87.87 0 100 1.739l53.913-.001zm-41.43-1.745h-3.33v-5.943a1.666 1.666 0 013.33 0v5.943zm18.3-48.743h16.616v3.627H32.326V2.625zm-2.272 5.366h21.161v43.38h-4.987V38.636a.87.87 0 00-.87-.87h-9.447a.87.87 0 00-.87.87V51.37h-4.987V7.99zm6.726 43.377V39.506h7.709v11.862H36.78zM6.535 28.8h21.778v5.565H3.884l2.65-5.565zm21.779 7.305v15.263H15.766v-5.942a3.4 3.4 0 00-3.4-3.4 3.408 3.408 0 00-3.408 3.4v5.942H6.856V36.105h21.458z" fill="url(#paint7_linear_249_3867)"/><path d="M17.583 48.443h9.2a.87.87 0 00.87-.87v-4.678a.87.87 0 00-.87-.87h-9.2a.87.87 0 00-.87.87v4.678c0 .48.39.87.87.87zm.87-4.679h7.46v2.94h-7.46v-2.94z" fill="url(#paint8_linear_249_3867)"/><defs><linearGradient id="paint0_linear_249_3867" x1="36.776" y1="11.826" x2="36.776" y2="17.563" gradientUnits="userSpaceOnUse"><stop stop-color="#FF005C"/><stop offset="1" stop-color="#A3315A"/></linearGradient><linearGradient id="paint1_linear_249_3867" x1="44.493" y1="11.826" x2="44.493" y2="17.563" gradientUnits="userSpaceOnUse"><stop stop-color="#FF005C"/><stop offset="1" stop-color="#A3315A"/></linearGradient><linearGradient id="paint2_linear_249_3867" x1="36.776" y1="19.161" x2="36.776" y2="24.898" gradientUnits="userSpaceOnUse"><stop stop-color="#FF005C"/><stop offset="1" stop-color="#A3315A"/></linearGradient><linearGradient id="paint3_linear_249_3867" x1="44.493" y1="19.161" x2="44.493" y2="24.898" gradientUnits="userSpaceOnUse"><stop stop-color="#FF005C"/><stop offset="1" stop-color="#A3315A"/></linearGradient><linearGradient id="paint4_linear_249_3867" x1="36.777" y1="26.495" x2="36.777" y2="32.232" gradientUnits="userSpaceOnUse"><stop stop-color="#FF005C"/><stop offset="1" stop-color="#A3315A"/></linearGradient><linearGradient id="paint5_linear_249_3867" x1="44.493" y1="26.495" x2="44.493" y2="32.232" gradientUnits="userSpaceOnUse"><stop stop-color="#FF005C"/><stop offset="1" stop-color="#A3315A"/></linearGradient><linearGradient id="paint6_linear_249_3867" x1="42.838" y1="43.33" x2="42.838" y2="47.542" gradientUnits="userSpaceOnUse"><stop stop-color="#FF005C"/><stop offset="1" stop-color="#A3315A"/></linearGradient><linearGradient id="paint7_linear_249_3867" x1="28.499" y1=".886" x2="28.499" y2="53.114" gradientUnits="userSpaceOnUse"><stop stop-color="#FF005C"/><stop offset="1" stop-color="#A3315A"/></linearGradient><linearGradient id="paint8_linear_249_3867" x1="22.183" y1="42.025" x2="22.183" y2="48.443" gradientUnits="userSpaceOnUse"><stop stop-color="#FF005C"/><stop offset="1" stop-color="#A3315A"/></linearGradient></defs></svg>