<svg width="60" height="60" fill="none" xmlns="http://www.w3.org/2000/svg"><g filter="url(#filter0_d_315_2)"><rect x="5" y="4" width="50" height="50" rx="6" fill="#FF005C"/></g><path d="M31.671 13.95C21.915 13.95 14 20.099 14 27.716c0 2.941 1.215 5.694 3.24 7.92l-2.688 5.09c-.368.68.295 1.396.994 1.132l6.48-2.678c2.76 1.396 6.111 2.225 9.645 2.225 9.756 0 17.671-6.147 17.671-13.765s-7.915-13.69-17.67-13.69zm9.02 11.352l-3.903 3.809a.727.727 0 00-.184.49l.92 5.695c.111.49-.368.867-.846.565l-5.007-2.564a.492.492 0 00-.552 0l-4.749 2.564c-.368.189-.92-.113-.847-.565l.92-5.62c0-.188 0-.377-.183-.49l-4.05-3.809c-.184-.377 0-1.056.478-1.056l5.486-.943c.184 0 .368-.188.368-.301l2.503-5.091c.184-.378.847-.378 1.031 0l2.503 5.129c.11.188.295.301.369.301l5.485.943c.442.075.626.641.258.943z" fill="#fff"/><defs><filter id="filter0_d_315_2" x="0" y="0" width="60" height="60" filterUnits="userSpaceOnUse" color-interpolation-filters="sRGB"><feFlood flood-opacity="0" result="BackgroundImageFix"/><feColorMatrix in="SourceAlpha" values="0 0 0 0 0 0 0 0 0 0 0 0 0 0 0 0 0 0 127 0" result="hardAlpha"/><feOffset dy="1"/><feGaussianBlur stdDeviation="2.5"/><feComposite in2="hardAlpha" operator="out"/><feColorMatrix values="0 0 0 0 1 0 0 0 0 0 0 0 0 0 0.36 0 0 0 0.17 0"/><feBlend in2="BackgroundImageFix" result="effect1_dropShadow_315_2"/><feBlend in="SourceGraphic" in2="effect1_dropShadow_315_2" result="shape"/></filter></defs></svg>