<svg width="18" height="23" fill="none" xmlns="http://www.w3.org/2000/svg"><path d="M16.675 5.812c-1.201 0-2.06 1.25-2.06 3.654 0 1.005-.514 1.79-1.348 1.79-1.006 0-1.373-.711-1.373-1.52 0-1.472 1.397-1.643 1.397-3.973 0-1.692-2.158-2.992-2.158-2.992.687 2.428-.564 3.703-1.839 3.703-.736 0-1.766-.515-1.766-2.428C7.528 1.471 9.49 0 9.49 0 4.684.049 3.801 4.758 4.757 7.063c.613 1.422.76 3.261-.71 3.261-1.742 0-.834-3.237-.834-3.237-.76.368-2.968 2.06-3.189 5.493a3.808 3.808 0 00-.024.54c0 .172 0 .343.024.515v.024c.27 4.733 4.194 8.46 8.976 8.46 4.978 0 9-4.02 9-9 0-4.438-2.722-5.124-1.324-7.307zM9 20.942s-3.948-.833-3.948-4.56c0-3.287 2.452-5.567 4.585-5.567 0 0-1.79 1.079-1.79 3.678 0 1.741.932 2.207 1.594 2.207 1.177 0 2.305-1.177 1.668-3.384 0 0 1.814 1.275 1.814 3.31C12.948 19.938 9 20.944 9 20.944z" fill="url(#paint0_linear_252_4172)"/><defs><linearGradient id="paint0_linear_252_4172" x1=".92" y1="18.639" x2="21.775" y2="7.768" gradientUnits="userSpaceOnUse"><stop stop-color="#F59C23"/><stop offset="1" stop-color="#F80F7F"/></linearGradient></defs></svg>