<svg width="37" height="37" fill="none" xmlns="http://www.w3.org/2000/svg"><g filter="url(#filter0_d_303_5)"><circle cx="18.5" cy="18.5" r="14.5" fill="#FF005C"/></g><path fill-rule="evenodd" clip-rule="evenodd" d="M9.51 16.89l-.025-.031a.474.474 0 01-.103-.35.43.43 0 01.16-.293L18 9.593l8.459 6.622a.43.43 0 01.16.293.473.473 0 01-.104.35l-.025.032a.474.474 0 01-.663.057l-7.449-5.78a.617.617 0 00-.755 0l-7.45 5.78a.474.474 0 01-.662-.057zm14.567 8.484a.117.117 0 00.115-.116v-8.02L18 12.433l-6.191 4.805v8.02c0 .064.052.115.115.116h2.11v-6.39a.616.616 0 01.617-.615h6.7a.616.616 0 01.615.615v6.39h2.11zm-3.343 0h-5.468V19.6h5.468v5.774zm-8.81 1.231h12.153a1.35 1.35 0 001.347-1.347v-7.124a1.686 1.686 0 002.02-.465l.027-.032c.288-.355.422-.811.372-1.266a1.65 1.65 0 00-.625-1.125l-8.838-6.92a.616.616 0 00-.76 0l-8.837 6.92a1.649 1.649 0 00-.625 1.125c-.05.455.084.91.372 1.266l.027.032c.318.394.799.623 1.305.622.247 0 .492-.054.716-.157v7.124a1.348 1.348 0 001.346 1.347z" fill="#fff"/><defs><filter id="filter0_d_303_5" x="0" y="0" width="37" height="37" filterUnits="userSpaceOnUse" color-interpolation-filters="sRGB"><feFlood flood-opacity="0" result="BackgroundImageFix"/><feColorMatrix in="SourceAlpha" values="0 0 0 0 0 0 0 0 0 0 0 0 0 0 0 0 0 0 127 0" result="hardAlpha"/><feOffset/><feGaussianBlur stdDeviation="2"/><feComposite in2="hardAlpha" operator="out"/><feColorMatrix values="0 0 0 0 1 0 0 0 0 0 0 0 0 0 0.36 0 0 0 0.31 0"/><feBlend in2="BackgroundImageFix" result="effect1_dropShadow_303_5"/><feBlend in="SourceGraphic" in2="effect1_dropShadow_303_5" result="shape"/></filter></defs></svg>