<svg width="37" height="37" fill="none" xmlns="http://www.w3.org/2000/svg"><g filter="url(#filter0_d_303_7)"><circle cx="18.5" cy="18.5" r="14.5" fill="#FF005C"/></g><path d="M21.3 8.8a3.812 3.812 0 00-3.593 2.55l-1.844-.525a.6.6 0 00-.175-.025.595.595 0 00-.15.025l-5.6 1.6A.601.601 0 009.5 13v11.6a.6.6 0 00.763.575l5.438-1.556 5.437 1.556c.106.03.219.03.325 0l5.6-1.6a.6.6 0 10-.325-1.15L21.9 23.812v-5.381c1.95-2.072 3.2-3.9 3.2-5.863v-.03l1.2-.345V21a.6.6 0 101.2 0v-9.6a.6.6 0 00-.618-.6.595.595 0 00-.144.025l-1.844.525a3.812 3.812 0 00-3.593-2.55zm0 1.2c1.447 0 2.6 1.147 2.6 2.569 0 1.356-.925 2.882-2.6 4.725-1.675-1.843-2.6-3.369-2.6-4.725a2.577 2.577 0 012.6-2.57zm0 .8c-.987 0-1.8.813-1.8 1.8 0 .987.813 1.8 1.8 1.8.987 0 1.8-.813 1.8-1.8 0-.987-.813-1.8-1.8-1.8zm0 1.2c.339 0 .6.261.6.6 0 .338-.261.6-.6.6a.591.591 0 01-.6-.6c0-.338.262-.6.6-.6zm-6.2.188V22.55l-4.4 1.256V13.45l4.4-1.262zm1.2.006l1.2.343v.032c0 1.962 1.25 3.79 3.2 5.862v5.382l-4.4-1.263V12.194z" fill="#fff"/><defs><filter id="filter0_d_303_7" x="0" y="0" width="37" height="37" filterUnits="userSpaceOnUse" color-interpolation-filters="sRGB"><feFlood flood-opacity="0" result="BackgroundImageFix"/><feColorMatrix in="SourceAlpha" values="0 0 0 0 0 0 0 0 0 0 0 0 0 0 0 0 0 0 127 0" result="hardAlpha"/><feOffset/><feGaussianBlur stdDeviation="2"/><feComposite in2="hardAlpha" operator="out"/><feColorMatrix values="0 0 0 0 1 0 0 0 0 0 0 0 0 0 0.36 0 0 0 0.31 0"/><feBlend in2="BackgroundImageFix" result="effect1_dropShadow_303_7"/><feBlend in="SourceGraphic" in2="effect1_dropShadow_303_7" result="shape"/></filter></defs></svg>