<svg width="37" height="37" fill="none" xmlns="http://www.w3.org/2000/svg"><g filter="url(#filter0_d_303_6)"><circle cx="18.5" cy="18.5" r="14.5" fill="#FF005C"/></g><path d="M28.35 14.467a9.953 9.953 0 00-2.074-.216h-.194a7.21 7.21 0 00-1.361.13c.086-.454.13-.908.13-1.361 0-.756-.044-1.469-.217-2.246v-.044a.533.533 0 00-.67-.345c-.755.237-1.403.561-2.051.95-.389.238-.756.519-1.102.8a13.586 13.586 0 00-.583-1.275 8.964 8.964 0 00-1.318-1.836l-.021-.022a.542.542 0 00-.756.022 9.091 9.091 0 00-1.318 1.858c-.216.41-.41.82-.583 1.252a8.307 8.307 0 00-1.123-.82 10.492 10.492 0 00-2.052-.951l-.043-.043a.521.521 0 00-.626.389v.021a10.2 10.2 0 00-.216 2.117v.151c0 .454.043.908.13 1.361-.455-.086-.908-.108-1.383-.13-.756 0-1.49.044-2.247.217H8.63a.52.52 0 00-.345.648v.021c.237.756.561 1.404.95 2.052a8.494 8.494 0 001.382 1.771 6.07 6.07 0 001.707 1.145l1.555-.151a4.762 4.762 0 01-1.102-.389c-.604-.28-1.123-.691-1.576-1.188a7.264 7.264 0 01-1.124-1.663 10.04 10.04 0 01-.561-1.318c.453-.086.95-.15 1.425-.172a9.58 9.58 0 011.577.064 6.082 6.082 0 001.015 1.966c.476.605 1.037 1.08 1.664 1.49.13.087.28.044.367-.064.086-.13.065-.303-.065-.389a6.364 6.364 0 01-1.404-1.447c-.389-.54-.626-1.167-.777-1.815A6.956 6.956 0 0113.165 13c.022-.476.087-.972.173-1.426a8.94 8.94 0 011.318.562 6.83 6.83 0 011.317.842c-.151.713-.216 1.469-.108 2.203a6.42 6.42 0 00.691 2.117c.065.13.216.194.346.13.13-.065.216-.216.151-.368-.259-.626-.453-1.296-.496-1.965-.044-.67.043-1.34.237-1.966a7.006 7.006 0 01.864-1.814c.26-.389.562-.8.864-1.145.302.346.605.756.864 1.145.367.561.67 1.188.864 1.814.194.648.28 1.296.238 1.966-.044.67-.238 1.339-.497 1.965-.065.13 0 .303.13.368a.267.267 0 00.367-.13c.323-.67.583-1.36.69-2.117a5.812 5.812 0 00-.107-2.203 7.6 7.6 0 011.317-.842 8.94 8.94 0 011.318-.562c.086.454.151.95.173 1.426.043.67 0 1.36-.152 2.008-.15.648-.388 1.275-.777 1.815-.367.561-.864 1.037-1.404 1.447-.108.086-.151.26-.065.367.086.13.26.173.389.087a7.287 7.287 0 001.663-1.491 6.143 6.143 0 00.994-1.944 6.266 6.266 0 011.555-.065c.475.022.972.087 1.426.173a8.964 8.964 0 01-.562 1.318c-.194.367-.389.713-.648 1.037.28.13.54.28.756.496a10.123 10.123 0 001.685-3.132l.021-.043a.543.543 0 00-.41-.605zm-18.317 8.964a.526.526 0 00-.518.519c0 .28.237.518.518.518h12.42c-.194-.28-.389-.648-.605-1.015H10.033v-.022zm16.265-.777a94.08 94.08 0 01-1.728.431.393.393 0 01-.454-.194c-.194-.324-.41-.734-.561-1.015-.54-1.037-.821-1.512-1.167-1.75-.216-.13-.432-.237-.712-.216l-11.47 1.188a.797.797 0 00-.713.8c0 .431.346.799.8.799H22c.15 0 .302.086.367.216.604 1.123 1.037 1.836 1.663 1.836.086 0 .173-.022.26-.043.453-.13 2.31-.605 2.332-.605a.767.767 0 00.561-.929c-.064-.367-.475-.605-.885-.518z" fill="#fff"/><path d="M25.326 21.898c.972 0 1.75-.778 1.75-1.75s-.778-1.75-1.75-1.75-1.75.778-1.75 1.75c-.022.972.778 1.75 1.75 1.75z" fill="#fff"/><defs><filter id="filter0_d_303_6" x="0" y="0" width="37" height="37" filterUnits="userSpaceOnUse" color-interpolation-filters="sRGB"><feFlood flood-opacity="0" result="BackgroundImageFix"/><feColorMatrix in="SourceAlpha" values="0 0 0 0 0 0 0 0 0 0 0 0 0 0 0 0 0 0 127 0" result="hardAlpha"/><feOffset/><feGaussianBlur stdDeviation="2"/><feComposite in2="hardAlpha" operator="out"/><feColorMatrix values="0 0 0 0 1 0 0 0 0 0 0 0 0 0 0.36 0 0 0 0.31 0"/><feBlend in2="BackgroundImageFix" result="effect1_dropShadow_303_6"/><feBlend in="SourceGraphic" in2="effect1_dropShadow_303_6" result="shape"/></filter></defs></svg>