<svg width="28" height="16" fill="none" xmlns="http://www.w3.org/2000/svg"><path d="M25.375.125H2.625a1.75 1.75 0 00-1.75 1.75v12.25a1.75 1.75 0 001.75 1.75h22.75a1.75 1.75 0 001.75-1.75V1.875a1.75 1.75 0 00-1.75-1.75zm-16.297 14L2.625 8.481V7.52l6.453-5.644h9.844l6.453 5.644v.962l-6.453 5.644H9.078zM25.375 5.2L21.58 1.875h3.795V5.2zM6.42 1.875L2.625 5.2V1.875H6.42zM2.625 10.8l3.795 3.325H2.625V10.8zm22.75 3.325H21.58l3.795-3.325v3.325zM14 3.625a4.375 4.375 0 100 8.75 4.375 4.375 0 000-8.75zm0 7A2.625 2.625 0 1116.625 8 2.636 2.636 0 0114 10.625z" fill="#FFB636"/></svg>