<svg width="37" height="37" fill="none" xmlns="http://www.w3.org/2000/svg"><g filter="url(#filter0_d_301_4)"><circle cx="18.5" cy="18.5" r="14.5" fill="#FF005C"/></g><path d="M18.5 8.728c-5.002 0-9.072 4.07-9.072 9.072 0 5.003 4.07 9.072 9.072 9.072 5.003 0 9.072-4.07 9.072-9.072 0-5.003-4.07-9.072-9.072-9.072zm0 1.296a7.766 7.766 0 017.776 7.776 7.766 7.766 0 01-7.776 7.776 7.766 7.766 0 01-7.776-7.776 7.766 7.766 0 017.776-7.776zm-2.308 3.017a1.61 1.61 0 00-.783.223 1.668 1.668 0 00-.797 1.397v6.258c.014.595.332 1.12.797 1.397a1.643 1.643 0 001.613.02c1.806-1.038 3.61-2.091 5.413-3.138.481-.28.817-.81.817-1.41a1.64 1.64 0 00-.817-1.412c-1.817-1.02-3.59-2.128-5.413-3.132a1.91 1.91 0 00-.83-.202zm.047 1.296c.052.006.105.027.169.048l5.38 3.112a.32.32 0 01.168.29.319.319 0 01-.168.29l-5.38 3.119c-.144.077-.24.06-.331.006a.34.34 0 01-.169-.297v-6.23c.008-.158.075-.245.162-.297a.281.281 0 01.169-.04z" fill="#fff"/><defs><filter id="filter0_d_301_4" x="0" y="0" width="37" height="37" filterUnits="userSpaceOnUse" color-interpolation-filters="sRGB"><feFlood flood-opacity="0" result="BackgroundImageFix"/><feColorMatrix in="SourceAlpha" values="0 0 0 0 0 0 0 0 0 0 0 0 0 0 0 0 0 0 127 0" result="hardAlpha"/><feOffset/><feGaussianBlur stdDeviation="2"/><feComposite in2="hardAlpha" operator="out"/><feColorMatrix values="0 0 0 0 1 0 0 0 0 0 0 0 0 0 0.36 0 0 0 0.31 0"/><feBlend in2="BackgroundImageFix" result="effect1_dropShadow_301_4"/><feBlend in="SourceGraphic" in2="effect1_dropShadow_301_4" result="shape"/></filter></defs></svg>