<svg width="12" height="12" fill="none" xmlns="http://www.w3.org/2000/svg"><g clip-path="url(#clip0_141_219)"><path d="M11.522 4.727a.346.346 0 00-.28-.236l-3.407-.495L6.31.906c-.116-.236-.503-.236-.62 0l-1.524 3.09-3.408.495a.346.346 0 00-.192.59l2.466 2.405-.582 3.396a.346.346 0 00.503.365L6 9.644l3.048 1.603a.348.348 0 00.17.04.346.346 0 00.32-.482l-.57-3.319 2.466-2.405a.346.346 0 00.088-.354zm-3.167 2.39a.346.346 0 00-.1.307l.495 2.884-2.588-1.362a.346.346 0 00-.323 0l-2.588 1.362.494-2.884a.346.346 0 00-.1-.306L1.553 5.075l2.893-.42a.346.346 0 00.261-.19L6 1.842l1.294 2.623c.05.102.148.173.261.19l2.894.42-2.094 2.043z" fill="#FFCF03"/></g><defs><clipPath id="clip0_141_219"><path fill="transparent" d="M0 0h12v12H0z"/></clipPath></defs></svg>