<?xml version="1.0" encoding="utf-8"?><svg viewBox="0 0 255 67" xmlns="http://www.w3.org/2000/svg" xmlns:xlink="http://www.w3.org/1999/xlink"><style>:root>svg{display:none}:root>svg:target{display:block}</style><svg viewBox="0 0 12 20" id="arrow" xmlns="http://www.w3.org/2000/svg"><path d="M2 20l10-10L2 0 .225 1.775 8.45 10 .225 18.225 2 20z"/></svg><svg viewBox="0 0 8 5" id="arrow-down" xmlns="http://www.w3.org/2000/svg"><path d="M7.3 1.7L4.7 4.3c-.1.1-.208.175-.325.225A.942.942 0 014 4.6a.942.942 0 01-.375-.075A1.038 1.038 0 013.3 4.3L.7 1.7C.383 1.383.313 1.021.488.613.663.204.975 0 1.425 0h5.15c.45 0 .762.204.937.613.175.408.105.77-.212 1.087z"/></svg><svg viewBox="0 0 18 12" id="burger" xmlns="http://www.w3.org/2000/svg"><path d="M0 12v-2h18v2H0zm0-5V5h18v2H0zm0-5V0h18v2H0z"/></svg><svg viewBox="0 0 19 18" id="camera" xmlns="http://www.w3.org/2000/svg"><path d="M9.5 13.125c.99 0 1.831-.328 2.524-.984.692-.656 1.039-1.454 1.039-2.391 0-.938-.347-1.735-1.039-2.391-.693-.656-1.534-.984-2.524-.984s-1.83.328-2.524.984c-.692.656-1.038 1.454-1.038 2.391 0 .938.346 1.735 1.038 2.391.693.656 1.535.984 2.524.984zM3.167 15.75c-.436 0-.808-.147-1.118-.44a1.408 1.408 0 01-.466-1.06v-9c0-.412.156-.766.466-1.059.31-.294.682-.441 1.118-.441H5.66l.99-1.013c.144-.162.319-.284.523-.365.205-.081.42-.122.644-.122h3.364c.225 0 .44.04.644.122.204.081.379.203.524.365l.99 1.013h2.494c.435 0 .808.147 1.118.441.31.293.465.647.465 1.059v9c0 .412-.155.766-.465 1.06a1.57 1.57 0 01-1.119.44H3.168z"/></svg><svg viewBox="0 0 34 34" id="close" xmlns="http://www.w3.org/2000/svg"><g clip-path="url(#aeclip0_141_241)"><path d="M29.028 4.98C22.4-1.65 11.61-1.65 4.98 4.98A16.897 16.897 0 000 17.004c0 4.541 1.769 8.811 4.98 12.023a16.951 16.951 0 0012.024 4.972 16.95 16.95 0 0012.024-4.972c6.63-6.63 6.63-17.417 0-24.047zm-1.862 22.184c-5.603 5.603-14.72 5.603-20.324 0a14.276 14.276 0 01-4.208-10.16c0-3.838 1.495-7.447 4.208-10.162 5.603-5.603 14.72-5.601 20.324 0 5.601 5.603 5.601 14.72 0 20.322z"/><path d="M22.68 20.641l-3.73-3.723 3.73-3.724a1.317 1.317 0 10-1.862-1.864l-3.732 3.726-3.732-3.726a1.317 1.317 0 10-1.862 1.864l3.729 3.724-3.73 3.723a1.317 1.317 0 101.863 1.864l3.732-3.726 3.731 3.726a1.317 1.317 0 101.862-1.864z"/></g><defs><clipPath id="aeclip0_141_241"><path d="M0 0h34v34H0z"/></clipPath></defs></svg><svg viewBox="0 0 35 28" id="comment" xmlns="http://www.w3.org/2000/svg"><path d="M17.392.637C7.852.637.112 6.635.112 14.069c0 2.87 1.188 5.556 3.168 7.728L.652 26.765c-.36.662.288 1.361.972 1.104l6.336-2.613c2.7 1.361 5.976 2.171 9.432 2.171 9.54 0 17.28-5.998 17.28-13.432 0-7.433-7.74-13.358-17.28-13.358zm8.82 11.077l-3.816 3.716a.708.708 0 00-.18.479l.9 5.556c.108.479-.36.847-.828.552l-4.896-2.502a.481.481 0 00-.54 0l-4.644 2.502c-.36.184-.9-.11-.828-.552l.9-5.483c0-.184 0-.368-.18-.478l-3.96-3.717c-.18-.368 0-1.03.468-1.03l5.364-.92c.18 0 .36-.184.36-.295l2.448-4.968c.18-.368.828-.368 1.008 0l2.448 5.005c.108.184.288.295.36.295l5.364.92c.432.073.612.625.252.92z"/></svg><svg viewBox="0 0 21 16" id="crown" xmlns="http://www.w3.org/2000/svg"><path fill-rule="evenodd" clip-rule="evenodd" d="M5.802 10.852c.303 0 .52.26.52.561 0 .305-.217.564-.52.564a.545.545 0 01-.562-.564c0-.301.216-.56.562-.56zm10.781 4.46H4.416l-.26-1.428h12.687l-.26 1.428zm-12.556-2.21L2.555 4.964 7.36 9.639l3.161-6.493 3.16 6.493 4.807-4.675-1.473 8.138H4.027zm11.214-2.25c.303 0 .562.26.562.561 0 .305-.26.564-.562.564a.573.573 0 01-.563-.564c0-.301.26-.56.563-.56zM10.52.289a1.256 1.256 0 110 2.512 1.256 1.256 0 010-2.512zM1.864 2.625c.605 0 1.082.477 1.082 1.083S2.468 4.79 1.863 4.79A1.1 1.1 0 01.78 3.708a1.1 1.1 0 011.083-1.083zm17.274 0c.607 0 1.083.477 1.083 1.083s-.476 1.083-1.083 1.083c-.563 0-1.038-.477-1.038-1.083s.475-1.083 1.038-1.083zm-8.615 7.577a.87.87 0 01.866.865c0 .522-.39.91-.866.91a.913.913 0 01-.909-.91c0-.474.433-.865.909-.865z"/></svg><svg viewBox="0 0 26 21" id="dif" xmlns="http://www.w3.org/2000/svg"><path d="M24.933 9.934a4.978 4.978 0 00.394-4.056C24.125 2.291 21.307.536 17.393.903c-1.722.169-3.058.903-4.352 1.613-1.945 1.074-3.778 2.1-6.996 1.303-.723-.177-1.36-.036-1.773.389a1.511 1.511 0 00-.316 1.496c.118.623.13 1.26.033 1.887-.08.653-1.023 2.215-2.25 3.408C.578 12.13.16 13.477.56 14.807c.12.395.563 1.388 2.023 1.787a5.737 5.737 0 005.47 4.043c.538-.001 1.072-.077 1.589-.226l.111-.033c.8-.234 1.535-.65 2.146-1.216.068-.06.46-.46.493-.497.212-.254.41-.52.59-.797.416-.615.849-1.249 1.488-1.431.737-.212 1.776.155 2.614.451.248.088.484.172.696.234.05.014.593.147.68.16a5.389 5.389 0 002.465-.102l.111-.033a5.745 5.745 0 003.933-7.091c0-.046-.024-.082-.035-.123zm-1.293 3.84a.136.136 0 01.055.185 5.43 5.43 0 01-.297.476.137.137 0 01-.193.04.136.136 0 01-.03-.195c.099-.146.19-.296.273-.451a.136.136 0 01.192-.055zm-.6.906a.136.136 0 01.013.193 5.258 5.258 0 01-.389.405.136.136 0 01-.185-.198c.13-.121.252-.25.367-.384a.136.136 0 01.193-.016zm-.792.772a.136.136 0 01-.027.19c-.15.113-.308.215-.47.308a.136.136 0 01-.204-.155.136.136 0 01.07-.081c.153-.088.301-.184.443-.289a.136.136 0 01.188.027zm-.933.566a.136.136 0 01-.076.177c-.177.07-.359.127-.544.169h-.03a.137.137 0 11-.03-.273c.179-.035.354-.085.525-.149a.136.136 0 01.169.076h-.014zm-2.143.272a.136.136 0 01-.136.12h-.017a6.664 6.664 0 01-.544-.09.139.139 0 01.052-.272c.182.035.356.065.53.084a.136.136 0 01.128.147l-.013.011zm-5.402-.682a1.472 1.472 0 00-.42.271.135.135 0 01-.19-.015.136.136 0 01.014-.191 1.73 1.73 0 01.498-.313.136.136 0 01.098.253v-.005zm-1.45 1.498l-.03.041-.296.4a.136.136 0 01-.218-.163l.294-.4.03-.041a.136.136 0 11.22.16v.003zm-.68.688a.136.136 0 01.022.19c-.117.145-.234.289-.356.425a.143.143 0 01-.21-.193c.12-.133.234-.272.348-.414a.136.136 0 01.196-.008zm-.718.816a.135.135 0 010 .193 4.51 4.51 0 01-.432.36.137.137 0 01-.19-.03.136.136 0 01.03-.19c.142-.105.278-.217.407-.338a.136.136 0 01.182.014l.003-.009zm-.862.667a.136.136 0 01-.063.182 2.694 2.694 0 01-.544.198h-.032a.137.137 0 01-.033-.271c.167-.043.33-.103.484-.18a.135.135 0 01.182.076l.006-.005zm-2.127.372a.136.136 0 01-.136.128 5.548 5.548 0 01-.544-.065.138.138 0 01.046-.272c.175.03.35.05.528.063a.136.136 0 01.1.152l.006-.006zM23.594 9.313a.136.136 0 01-.187-.04 3.703 3.703 0 00-.316-.422.136.136 0 01.204-.18c.124.143.238.294.34.452a.136.136 0 01-.046.207l.005-.017zm-7.017-2.037a.136.136 0 01-.125.147l-.544.04a.136.136 0 010-.271l.544-.041c.07.009.123.07.12.141l.005-.016zm-1.088.079a.135.135 0 01-.128.144l-.544.033a.136.136 0 010-.272l.544-.033a.136.136 0 01.123.144l.005-.016zM14.4 7.42a.136.136 0 01-.128.142l-.544.024a.136.136 0 110-.272l.544-.024a.136.136 0 01.123.147l.005-.017zm-1.088.05a.137.137 0 01-.13.14l-.544.02a.136.136 0 010-.272l.543-.02a.136.136 0 01.128.148l.003-.017zm-2.157.486l-.305.207-.14.098h-.001a.137.137 0 11-.155-.226l.141-.095.31-.21a.137.137 0 11.15.229v-.003zm-.86.419a.136.136 0 01-.038.188l-.46.293a.136.136 0 01-.143-.23l.454-.292a.135.135 0 01.185.057l.003-.016zm-.922.593a.137.137 0 01-.046.188l-.47.272a.137.137 0 01-.136-.237l.468-.272a.136.136 0 01.184.049zm-.94.544a.136.136 0 01-.052.185l-.48.272a.136.136 0 01-.13-.24l.476-.272a.136.136 0 01.188.055h-.003zm-.953.544a.135.135 0 01-.054.185L7 10.467l-.057.03a.136.136 0 01-.128-.24l.057-.03.416-.231a.136.136 0 01.193.06zm-1.009.704c-.156.095-.307.19-.454.289a.136.136 0 11-.152-.226c.15-.101.306-.2.468-.296a.136.136 0 01.138.233zm-.89.604c-.143.112-.271.229-.413.343a.137.137 0 01-.182-.204c.133-.12.272-.24.427-.356a.136.136 0 01.166.214l.003.003zM3.44 14.511a.136.136 0 01-.114-.155 3.95 3.95 0 01.123-.544.141.141 0 01.272.076c-.055.17-.098.344-.128.52a.136.136 0 01-.134.117l-.019-.014zm.273-1.055a.136.136 0 01-.069-.18c.08-.171.171-.337.273-.497a.136.136 0 01.23.141 4.22 4.22 0 00-.247.468.136.136 0 01-.18.068h-.007zm.544-.95a.136.136 0 01-.025-.19c.112-.144.234-.285.365-.424a.137.137 0 01.198.188c-.125.13-.242.272-.348.405a.136.136 0 01-.19.024v-.002zm7.18-4.849a.136.136 0 01.09-.169c.183-.051.37-.081.56-.09a.133.133 0 01.144.126.136.136 0 01-.125.144c-.169.007-.337.033-.5.079h-.04a.136.136 0 01-.137-.09h.008zm5.54-.544l.545-.046h.087c.075-.005.14.05.147.125a.136.136 0 01-.13.144h-.085l-.544.046a.136.136 0 010-.272l-.02.003zm1.05.054a.135.135 0 01.131-.141h.555a.136.136 0 010 .272h-.541a.136.136 0 01-.15-.117l.006-.014zm1.089 0a.137.137 0 01.144-.128c.181.011.363.027.544.047a.136.136 0 01-.016.272h-.017a9.046 9.046 0 00-.544-.044.136.136 0 01-.114-.141l.003-.006zm1.088.107a.136.136 0 01.157-.11c.188.033.37.074.544.12a.137.137 0 01-.035.272h-.035a6.144 6.144 0 00-.523-.114.136.136 0 01-.111-.163l.003-.005zm1.06.258a.136.136 0 01.175-.082c.176.064.348.138.517.22a.136.136 0 01-.12.245 5.048 5.048 0 00-.49-.206.136.136 0 01-.084-.172l.002-.005zm.985.46a.136.136 0 01.188-.041 4.2 4.2 0 01.451.34.136.136 0 11-.176.206 3.982 3.982 0 00-.422-.318.136.136 0 01-.04-.188zm-18.833 6.8a.128.128 0 01.136.124v.036c0 .17.011.34.033.508a.136.136 0 01-.117.153H3.45a.136.136 0 01-.136-.12 4.341 4.341 0 01-.035-.544.144.144 0 01.139-.155l-.003-.003zm.103 1.087a.136.136 0 01.166.098l.044.166c.034.118.071.233.111.346a.136.136 0 11-.255.09 5.512 5.512 0 01-.16-.536.135.135 0 01.097-.172l-.003.008zm.343 1.037a.137.137 0 01.182.065c.077.158.16.311.253.46a.136.136 0 01-.23.141c-.1-.159-.191-.323-.273-.492a.136.136 0 01.068-.183v.009zm.544.946a.136.136 0 01.19.022c.11.14.226.272.351.397a.136.136 0 11-.19.193 4.608 4.608 0 01-.375-.421.136.136 0 01.024-.199v.008zm.75.792a.136.136 0 01.191-.025c.14.107.286.206.438.294a.137.137 0 01.062.192.136.136 0 01-.198.042 4.403 4.403 0 01-.468-.313.136.136 0 01-.024-.198v.008zm.926.58a.136.136 0 01.18-.074c.161.069.328.128.497.177a.137.137 0 01-.038.272h-.038a4.722 4.722 0 01-.53-.188.136.136 0 01-.074-.196l.003.008zm2.257.296c.174 0 .354-.017.544-.038a.137.137 0 01.03.272 6.634 6.634 0 01-.544.038.136.136 0 110-.272h-.03zm4.118-2.835a.136.136 0 01-.024-.19c.117-.155.234-.3.348-.432a.136.136 0 11.204.18c-.112.127-.223.271-.337.418a.136.136 0 01-.19.024zm1.665-1.319a.137.137 0 01.114-.155c.18-.027.362-.04.544-.04l.02.136v.136c-.177-.001-.352.012-.526.038h-.021a.136.136 0 01-.134-.117l.003.002zm1.088-.038a.136.136 0 01.152-.117c.174.025.354.057.544.1a.137.137 0 01-.03.273h-.03a5.463 5.463 0 00-.525-.098.136.136 0 01-.114-.158h.003zm1.724.544h-.04l-.523-.155a.141.141 0 11.076-.272l.525.158a.138.138 0 01-.04.272l.002-.003zm.392-.016a.135.135 0 01.169-.093c.171.052.345.1.522.145a.137.137 0 01-.033.271h-.032c-.18-.046-.357-.095-.544-.146a.135.135 0 01-.084-.174l.002-.003zm2.28.305h.524a.139.139 0 01.147.127.13.13 0 01-.12.145h-.57a.136.136 0 01-.131-.142.131.131 0 01.147-.128l.002-.002zm4.08-2.824c.074-.162.14-.328.195-.498a.142.142 0 01.272.08c-.054.178-.117.355-.19.527a.136.136 0 01-.25-.106l-.028-.003zm.407-2.747a.136.136 0 01.16.106c.037.184.062.37.074.558a.136.136 0 01-.128.144.136.136 0 01-.135-.128 4.195 4.195 0 00-.069-.525.136.136 0 01.098-.155zm.036 1.904h-.025a.136.136 0 01-.109-.158c.032-.173.053-.349.063-.525a.139.139 0 01.144-.128.136.136 0 01.128.145c-.01.186-.032.373-.065.557a.136.136 0 01-.136.109zm-.106-2.176h-.041a.136.136 0 01-.13-.095 4.24 4.24 0 00-.194-.493.136.136 0 01.248-.114c.079.17.148.344.206.522a.136.136 0 01-.09.18zM1.598 14.484c-.272-.928.033-1.863.898-2.72 1.343-1.308 2.448-3.054 2.57-4.058.055-.446.155-1.564-.068-2.323a.443.443 0 01.057-.435.783.783 0 01.732-.06c3.628.887 5.742-.272 7.787-1.404C14.823 2.796 16.001 2.146 17.5 2c4.306-.421 6.071 2.073 6.8 4.238.254.75.267 1.562.038 2.32-1.123-1.885-3.201-2.668-6.408-2.448-2.149.15-3.536.193-4.455.22-2.068.063-2.1.074-3.512.974a65.865 65.865 0 01-3.536 2.103c-2.823 1.559-4.232 3.628-4.08 5.921a1.45 1.45 0 01-.748-.843z"/></svg><svg viewBox="0 0 255 7" id="dots" xmlns="http://www.w3.org/2000/svg"><path d="M-48.58 5h-1.53V-7.6h7.02v1.44h-5.49V5zm6.03 3.6h-1.44V-3.1h1.44v.954c.289-.336.685-.606 1.189-.81a3.937 3.937 0 011.566-.324c1.152 0 2.058.384 2.718 1.152.684.756 1.026 1.74 1.026 2.952 0 1.236-.39 2.274-1.17 3.114-.768.828-1.782 1.242-3.042 1.242-.972 0-1.734-.186-2.286-.558V8.6zm2.34-10.53c-.96 0-1.74.372-2.34 1.116V3.2c.637.42 1.357.63 2.16.63.853 0 1.53-.27 2.035-.81.516-.552.774-1.266.774-2.142 0-.852-.234-1.53-.702-2.034-.468-.516-1.11-.774-1.926-.774zm11.63-1.17h1.638l-3.24 8.1c-.588 1.428-1.098 2.376-1.53 2.844-.456.504-.978.756-1.566.756-.528 0-1.038-.168-1.53-.504l.468-1.098c.384.18.684.27.9.27.336 0 .636-.144.9-.432.276-.288.552-.756.828-1.404l.18-.432-3.888-8.1h1.728l2.376 5.148c.048.084.21.492.486 1.224.108-.396.234-.81.378-1.242l1.872-5.13zm2.772 10.08h-1.35V3.65h1.008c.3-.372.564-.972.792-1.8.228-.84.378-1.776.45-2.808l.126-2.142h5.526v6.75h1.35v3.33h-1.35V5h-6.552v1.98zm2.376-8.73l-.09 1.35c-.072.9-.216 1.722-.432 2.466-.216.744-.438 1.272-.666 1.584h3.924v-5.4h-2.736zm9.83 6.75h-2.737v-8.1h1.44v2.43h1.476c1.104 0 1.914.252 2.43.756.516.492.774 1.17.774 2.034 0 .816-.27 1.5-.81 2.052S-12.427 5-13.603 5zm-.09-4.32H-14.9v2.97h1.188c1.308 0 1.962-.492 1.962-1.476 0-.996-.648-1.494-1.944-1.494zM2.635 4.028c0-.252.096-.474.288-.666.204-.192.45-.288.738-.288.252 0 .474.096.666.288a.914.914 0 01.288.666c0 .288-.09.534-.27.738a.897.897 0 01-.684.288c-.288 0-.534-.096-.738-.288a1.038 1.038 0 01-.288-.738zm5.643 0c0-.252.096-.474.288-.666.204-.192.45-.288.738-.288.252 0 .474.096.666.288a.914.914 0 01.288.666c0 .288-.09.534-.27.738a.897.897 0 01-.684.288c-.288 0-.534-.096-.738-.288a1.038 1.038 0 01-.288-.738zm5.643 0c0-.252.095-.474.287-.666.205-.192.45-.288.739-.288.252 0 .473.096.665.288a.914.914 0 01.289.666c0 .288-.09.534-.27.738a.897.897 0 01-.684.288c-.289 0-.534-.096-.739-.288a1.038 1.038 0 01-.287-.738zm5.642 0c0-.252.096-.474.288-.666.204-.192.45-.288.738-.288.252 0 .474.096.666.288a.914.914 0 01.288.666c0 .288-.09.534-.27.738a.897.897 0 01-.684.288c-.288 0-.534-.096-.738-.288a1.038 1.038 0 01-.288-.738zm5.643 0c0-.252.096-.474.288-.666.204-.192.45-.288.738-.288.252 0 .474.096.666.288a.914.914 0 01.288.666c0 .288-.09.534-.27.738a.897.897 0 01-.684.288c-.288 0-.534-.096-.738-.288a1.038 1.038 0 01-.288-.738zm5.642 0c0-.252.096-.474.288-.666.204-.192.45-.288.738-.288.252 0 .474.096.666.288a.914.914 0 01.288.666c0 .288-.09.534-.27.738a.897.897 0 01-.684.288c-.288 0-.534-.096-.738-.288a1.038 1.038 0 01-.288-.738zm5.643 0c0-.252.096-.474.288-.666.204-.192.45-.288.738-.288.252 0 .474.096.666.288a.914.914 0 01.288.666c0 .288-.09.534-.27.738a.897.897 0 01-.684.288c-.288 0-.534-.096-.738-.288a1.038 1.038 0 01-.288-.738zm5.642 0c0-.252.096-.474.288-.666.204-.192.45-.288.738-.288.252 0 .474.096.666.288a.914.914 0 01.288.666c0 .288-.09.534-.27.738a.897.897 0 01-.684.288c-.288 0-.534-.096-.738-.288a1.038 1.038 0 01-.288-.738zm5.643 0c0-.252.096-.474.288-.666.204-.192.45-.288.738-.288.252 0 .474.096.666.288a.914.914 0 01.288.666c0 .288-.09.534-.27.738a.897.897 0 01-.684.288c-.288 0-.534-.096-.738-.288a1.038 1.038 0 01-.288-.738zm5.642 0c0-.252.097-.474.289-.666.203-.192.45-.288.738-.288.252 0 .474.096.666.288a.914.914 0 01.288.666c0 .288-.09.534-.27.738a.897.897 0 01-.684.288c-.288 0-.535-.096-.738-.288a1.038 1.038 0 01-.288-.738zm5.643 0c0-.252.096-.474.288-.666.204-.192.45-.288.738-.288.252 0 .474.096.666.288a.914.914 0 01.288.666c0 .288-.09.534-.27.738a.897.897 0 01-.684.288c-.288 0-.534-.096-.738-.288a1.038 1.038 0 01-.288-.738zm5.643 0c0-.252.096-.474.288-.666.204-.192.45-.288.738-.288.252 0 .474.096.666.288a.914.914 0 01.288.666c0 .288-.09.534-.27.738a.897.897 0 01-.684.288c-.288 0-.534-.096-.738-.288a1.038 1.038 0 01-.288-.738zm5.642 0c0-.252.096-.474.288-.666.204-.192.45-.288.738-.288.252 0 .474.096.666.288a.914.914 0 01.288.666c0 .288-.09.534-.27.738a.897.897 0 01-.684.288c-.288 0-.534-.096-.738-.288a1.038 1.038 0 01-.288-.738zm5.643 0c0-.252.096-.474.288-.666.204-.192.45-.288.738-.288.252 0 .474.096.666.288a.914.914 0 01.288.666c0 .288-.09.534-.27.738a.897.897 0 01-.684.288c-.288 0-.534-.096-.738-.288a1.038 1.038 0 01-.288-.738zm5.642 0c0-.252.096-.474.288-.666.204-.192.45-.288.738-.288.252 0 .474.096.666.288a.914.914 0 01.288.666c0 .288-.09.534-.27.738a.897.897 0 01-.684.288c-.288 0-.534-.096-.738-.288a1.038 1.038 0 01-.288-.738zm5.643 0c0-.252.096-.474.288-.666.204-.192.45-.288.738-.288.252 0 .474.096.666.288a.914.914 0 01.288.666c0 .288-.09.534-.27.738a.897.897 0 01-.684.288c-.288 0-.534-.096-.738-.288a1.038 1.038 0 01-.288-.738zm5.643 0c0-.252.096-.474.288-.666.204-.192.45-.288.738-.288.252 0 .474.096.666.288a.914.914 0 01.288.666c0 .288-.09.534-.27.738a.897.897 0 01-.684.288c-.288 0-.534-.096-.738-.288a1.038 1.038 0 01-.288-.738zm5.642 0c0-.252.096-.474.288-.666.204-.192.45-.288.738-.288.252 0 .474.096.666.288a.914.914 0 01.288.666c0 .288-.09.534-.27.738a.897.897 0 01-.684.288c-.288 0-.534-.096-.738-.288a1.038 1.038 0 01-.288-.738zm5.643 0c0-.252.096-.474.288-.666.204-.192.45-.288.738-.288.252 0 .474.096.666.288a.914.914 0 01.288.666c0 .288-.09.534-.27.738a.897.897 0 01-.684.288c-.288 0-.534-.096-.738-.288a1.038 1.038 0 01-.288-.738zm5.642 0c0-.252.096-.474.288-.666.204-.192.45-.288.738-.288.252 0 .474.096.666.288a.914.914 0 01.288.666c0 .288-.09.534-.27.738a.897.897 0 01-.684.288c-.288 0-.534-.096-.738-.288a1.038 1.038 0 01-.288-.738zm5.643 0c0-.252.096-.474.288-.666.204-.192.45-.288.738-.288.252 0 .474.096.666.288a.914.914 0 01.288.666c0 .288-.09.534-.27.738a.897.897 0 01-.684.288c-.288 0-.534-.096-.738-.288a1.038 1.038 0 01-.288-.738zm5.642 0c0-.252.096-.474.288-.666.204-.192.45-.288.738-.288.252 0 .474.096.666.288a.914.914 0 01.288.666c0 .288-.09.534-.27.738a.897.897 0 01-.684.288c-.288 0-.534-.096-.738-.288a1.038 1.038 0 01-.288-.738zm5.643 0c0-.252.096-.474.288-.666.204-.192.45-.288.738-.288.252 0 .474.096.666.288a.914.914 0 01.288.666c0 .288-.09.534-.27.738a.897.897 0 01-.684.288c-.288 0-.534-.096-.738-.288a1.038 1.038 0 01-.288-.738zm5.643 0c0-.252.096-.474.288-.666.204-.192.45-.288.738-.288.252 0 .474.096.666.288a.914.914 0 01.288.666c0 .288-.09.534-.27.738a.897.897 0 01-.684.288c-.288 0-.534-.096-.738-.288a1.038 1.038 0 01-.288-.738zm5.642 0c0-.252.096-.474.288-.666.204-.192.45-.288.738-.288.252 0 .474.096.666.288a.914.914 0 01.288.666c0 .288-.09.534-.27.738a.897.897 0 01-.684.288c-.288 0-.534-.096-.738-.288a1.038 1.038 0 01-.288-.738zm5.643 0c0-.252.096-.474.288-.666.204-.192.45-.288.738-.288.252 0 .474.096.666.288a.914.914 0 01.288.666c0 .288-.09.534-.27.738a.897.897 0 01-.684.288c-.288 0-.534-.096-.738-.288a1.038 1.038 0 01-.288-.738zm5.642 0c0-.252.096-.474.288-.666.204-.192.45-.288.738-.288.252 0 .474.096.666.288a.914.914 0 01.288.666c0 .288-.09.534-.27.738a.897.897 0 01-.684.288c-.288 0-.534-.096-.738-.288a1.038 1.038 0 01-.288-.738zm5.643 0c0-.252.096-.474.288-.666.204-.192.45-.288.738-.288.252 0 .474.096.666.288a.914.914 0 01.288.666c0 .288-.09.534-.27.738a.897.897 0 01-.684.288c-.288 0-.534-.096-.738-.288a1.038 1.038 0 01-.288-.738zm5.643 0c0-.252.096-.474.288-.666.204-.192.45-.288.738-.288.252 0 .474.096.666.288a.914.914 0 01.288.666c0 .288-.09.534-.27.738a.897.897 0 01-.684.288c-.288 0-.534-.096-.738-.288a1.038 1.038 0 01-.288-.738zm5.642 0c0-.252.096-.474.288-.666.204-.192.45-.288.738-.288.252 0 .474.096.666.288a.914.914 0 01.288.666c0 .288-.09.534-.27.738a.897.897 0 01-.684.288c-.288 0-.534-.096-.738-.288a1.038 1.038 0 01-.288-.738zm5.643 0c0-.252.096-.474.288-.666.204-.192.45-.288.738-.288.252 0 .474.096.666.288a.914.914 0 01.288.666c0 .288-.09.534-.27.738a.897.897 0 01-.684.288c-.288 0-.534-.096-.738-.288a1.038 1.038 0 01-.288-.738zm5.642 0c0-.252.096-.474.288-.666.204-.192.45-.288.738-.288.252 0 .474.096.666.288a.914.914 0 01.288.666c0 .288-.09.534-.27.738a.897.897 0 01-.684.288c-.288 0-.534-.096-.738-.288a1.038 1.038 0 01-.288-.738zm5.643 0c0-.252.096-.474.288-.666.204-.192.45-.288.738-.288.252 0 .474.096.666.288a.914.914 0 01.288.666c0 .288-.09.534-.27.738a.897.897 0 01-.684.288c-.288 0-.534-.096-.738-.288a1.038 1.038 0 01-.288-.738zm5.642 0c0-.252.096-.474.288-.666.204-.192.45-.288.738-.288.252 0 .474.096.666.288a.914.914 0 01.288.666c0 .288-.09.534-.27.738a.897.897 0 01-.684.288c-.288 0-.534-.096-.738-.288a1.038 1.038 0 01-.288-.738zm5.643 0c0-.252.096-.474.288-.666.204-.192.45-.288.738-.288.252 0 .474.096.666.288a.914.914 0 01.288.666c0 .288-.09.534-.27.738a.897.897 0 01-.684.288c-.288 0-.534-.096-.738-.288a1.038 1.038 0 01-.288-.738zm5.643 0c0-.252.096-.474.288-.666.204-.192.45-.288.738-.288.252 0 .474.096.666.288a.914.914 0 01.288.666c0 .288-.09.534-.27.738a.897.897 0 01-.684.288c-.288 0-.534-.096-.738-.288a1.038 1.038 0 01-.288-.738zm5.642 0c0-.252.096-.474.288-.666.204-.192.45-.288.738-.288.252 0 .474.096.666.288a.914.914 0 01.288.666c0 .288-.09.534-.27.738a.897.897 0 01-.684.288c-.288 0-.534-.096-.738-.288a1.038 1.038 0 01-.288-.738zm5.643 0c0-.252.096-.474.288-.666.204-.192.45-.288.738-.288.252 0 .474.096.666.288a.914.914 0 01.288.666c0 .288-.09.534-.27.738a.897.897 0 01-.684.288c-.288 0-.534-.096-.738-.288a1.038 1.038 0 01-.288-.738zm5.642 0c0-.252.096-.474.288-.666.204-.192.45-.288.738-.288.252 0 .474.096.666.288a.914.914 0 01.288.666c0 .288-.09.534-.27.738a.897.897 0 01-.684.288c-.288 0-.534-.096-.738-.288a1.038 1.038 0 01-.288-.738zm5.643 0c0-.252.096-.474.288-.666.204-.192.45-.288.738-.288.252 0 .474.096.666.288a.914.914 0 01.288.666c0 .288-.09.534-.27.738a.897.897 0 01-.684.288c-.288 0-.534-.096-.738-.288a1.038 1.038 0 01-.288-.738zm5.642 0c0-.252.096-.474.288-.666.204-.192.45-.288.738-.288.252 0 .474.096.666.288a.914.914 0 01.288.666c0 .288-.09.534-.27.738a.897.897 0 01-.684.288c-.288 0-.534-.096-.738-.288a1.038 1.038 0 01-.288-.738zm5.643 0c0-.252.096-.474.288-.666.204-.192.45-.288.738-.288.252 0 .474.096.666.288a.914.914 0 01.288.666c0 .288-.09.534-.27.738a.897.897 0 01-.684.288c-.288 0-.534-.096-.738-.288a1.038 1.038 0 01-.288-.738zm5.643 0c0-.252.096-.474.288-.666.204-.192.45-.288.738-.288.252 0 .474.096.666.288a.914.914 0 01.288.666c0 .288-.09.534-.27.738a.897.897 0 01-.684.288c-.288 0-.534-.096-.738-.288a1.038 1.038 0 01-.288-.738zm5.642 0c0-.252.096-.474.288-.666.204-.192.45-.288.738-.288.252 0 .474.096.666.288a.914.914 0 01.288.666c0 .288-.09.534-.27.738a.897.897 0 01-.684.288c-.288 0-.534-.096-.738-.288a1.038 1.038 0 01-.288-.738zm5.643 0c0-.252.096-.474.288-.666.204-.192.45-.288.738-.288.252 0 .474.096.666.288a.914.914 0 01.288.666c0 .288-.09.534-.27.738a.897.897 0 01-.684.288c-.288 0-.534-.096-.738-.288a1.038 1.038 0 01-.288-.738zM-50.11 32.982V20.418c1.668-.048 2.82-.072 3.456-.072 1.368 0 2.382.276 3.042.828.672.54 1.008 1.302 1.008 2.286 0 .732-.192 1.344-.576 1.836-.384.492-.912.852-1.584 1.08v.036c.816.132 1.452.456 1.908.972.468.516.702 1.188.702 2.016 0 1.2-.408 2.112-1.224 2.736-.816.612-1.932.918-3.348.918a64.25 64.25 0 01-3.384-.072zm3.564-5.724h-2.034v4.284c.492.048 1.14.072 1.944.072.948 0 1.674-.192 2.178-.576.516-.396.774-.972.774-1.728 0-.66-.252-1.164-.756-1.512-.492-.36-1.194-.54-2.106-.54zm-.144-5.472c-.36 0-.99.018-1.89.054v4.068h2.016c.708 0 1.29-.186 1.746-.558.456-.384.684-.9.684-1.548 0-1.344-.852-2.016-2.556-2.016zm13.485 9.198l.45 1.134c-.78.708-1.794 1.062-3.042 1.062-1.32 0-2.37-.384-3.15-1.152-.792-.768-1.188-1.794-1.188-3.078 0-1.212.372-2.22 1.116-3.024.732-.804 1.752-1.206 3.06-1.206 1.08 0 1.974.348 2.682 1.044.72.684 1.08 1.572 1.08 2.664 0 .348-.03.672-.09.972h-6.228c.06.756.342 1.35.846 1.782.516.432 1.176.648 1.98.648 1.056 0 1.884-.282 2.484-.846zm-2.826-4.914c-.708 0-1.296.198-1.764.594-.456.396-.726.918-.81 1.566h4.914c-.036-.672-.264-1.2-.684-1.584-.408-.384-.96-.576-1.656-.576zm11.91 4.716l.684 1.044c-.695.9-1.733 1.35-3.113 1.35-1.296 0-2.346-.384-3.15-1.152-.793-.768-1.189-1.794-1.189-3.078 0-1.188.39-2.19 1.17-3.006.78-.816 1.759-1.224 2.934-1.224 1.416 0 2.479.354 3.186 1.062l-.666 1.134c-.623-.564-1.398-.846-2.322-.846-.756 0-1.41.276-1.962.828-.54.54-.81 1.224-.81 2.052 0 .876.277 1.572.829 2.088.564.528 1.26.792 2.088.792.936 0 1.71-.348 2.322-1.044zm9.443 1.242c0-.252.096-.474.288-.666.204-.192.45-.288.738-.288.252 0 .474.096.666.288a.914.914 0 01.288.666c0 .288-.09.534-.27.738a.897.897 0 01-.684.288c-.288 0-.534-.096-.738-.288a1.038 1.038 0 01-.288-.738zm5.642 0c0-.252.096-.474.288-.666.204-.192.45-.288.738-.288.252 0 .474.096.666.288a.914.914 0 01.288.666c0 .288-.09.534-.27.738a.897.897 0 01-.684.288c-.288 0-.534-.096-.738-.288a1.038 1.038 0 01-.288-.738zm5.643 0c0-.252.096-.474.288-.666.204-.192.45-.288.738-.288.252 0 .474.096.666.288a.914.914 0 01.288.666c0 .288-.09.534-.27.738a.897.897 0 01-.684.288c-.288 0-.534-.096-.738-.288a1.038 1.038 0 01-.288-.738zm5.643 0c0-.252.096-.474.288-.666.204-.192.45-.288.738-.288.252 0 .474.096.666.288a.914.914 0 01.288.666c0 .288-.09.534-.27.738a.897.897 0 01-.684.288c-.288 0-.534-.096-.738-.288a1.038 1.038 0 01-.288-.738zm5.642 0c0-.252.096-.474.288-.666.204-.192.45-.288.738-.288.252 0 .474.096.666.288a.914.914 0 01.288.666c0 .288-.09.534-.27.738a.897.897 0 01-.684.288c-.288 0-.534-.096-.738-.288a1.038 1.038 0 01-.288-.738zm5.643 0c0-.252.096-.474.288-.666.204-.192.45-.288.738-.288.252 0 .474.096.666.288a.914.914 0 01.288.666c0 .288-.09.534-.27.738a.897.897 0 01-.684.288c-.288 0-.534-.096-.738-.288a1.038 1.038 0 01-.288-.738zm5.642 0c0-.252.096-.474.288-.666.204-.192.45-.288.738-.288.252 0 .474.096.666.288a.914.914 0 01.288.666c0 .288-.09.534-.27.738a.897.897 0 01-.684.288c-.288 0-.534-.096-.738-.288a1.038 1.038 0 01-.288-.738zm5.643 0c0-.252.096-.474.288-.666.204-.192.45-.288.738-.288.252 0 .474.096.666.288a.914.914 0 01.288.666c0 .288-.09.534-.27.738a.897.897 0 01-.684.288c-.288 0-.534-.096-.738-.288a1.038 1.038 0 01-.288-.738zm5.642 0c0-.252.096-.474.288-.666.204-.192.45-.288.738-.288.253 0 .474.096.666.288a.914.914 0 01.288.666c0 .288-.09.534-.27.738a.897.897 0 01-.683.288c-.288 0-.535-.096-.739-.288a1.038 1.038 0 01-.288-.738zm5.643 0c0-.252.096-.474.288-.666.204-.192.45-.288.738-.288.252 0 .474.096.666.288a.914.914 0 01.288.666c0 .288-.09.534-.27.738a.897.897 0 01-.684.288c-.288 0-.534-.096-.738-.288a1.038 1.038 0 01-.288-.738zm5.643 0c0-.252.096-.474.288-.666.204-.192.45-.288.738-.288.252 0 .474.096.666.288a.914.914 0 01.288.666c0 .288-.09.534-.27.738a.897.897 0 01-.684.288c-.288 0-.534-.096-.738-.288a1.038 1.038 0 01-.288-.738zm5.642 0c0-.252.096-.474.288-.666.204-.192.45-.288.738-.288.252 0 .474.096.666.288a.914.914 0 01.288.666c0 .288-.09.534-.27.738a.897.897 0 01-.684.288c-.288 0-.534-.096-.738-.288a1.038 1.038 0 01-.288-.738zm5.643 0c0-.252.096-.474.288-.666.204-.192.45-.288.738-.288.252 0 .474.096.666.288a.914.914 0 01.288.666c0 .288-.09.534-.27.738a.897.897 0 01-.684.288c-.288 0-.534-.096-.738-.288a1.038 1.038 0 01-.288-.738zm5.642 0c0-.252.096-.474.288-.666.204-.192.45-.288.738-.288.252 0 .474.096.666.288a.914.914 0 01.288.666c0 .288-.09.534-.27.738a.897.897 0 01-.684.288c-.288 0-.534-.096-.738-.288a1.038 1.038 0 01-.288-.738zm5.643 0c0-.252.096-.474.288-.666.204-.192.45-.288.738-.288.252 0 .474.096.666.288a.914.914 0 01.288.666c0 .288-.09.534-.27.738a.897.897 0 01-.684.288c-.288 0-.534-.096-.738-.288a1.038 1.038 0 01-.288-.738zm5.642 0c0-.252.097-.474.289-.666.204-.192.45-.288.738-.288.252 0 .474.096.666.288a.914.914 0 01.287.666c0 .288-.09.534-.27.738a.897.897 0 01-.683.288c-.288 0-.534-.096-.738-.288a1.038 1.038 0 01-.288-.738zm5.643 0c0-.252.096-.474.288-.666.204-.192.45-.288.738-.288.252 0 .474.096.666.288a.914.914 0 01.288.666c0 .288-.09.534-.27.738a.897.897 0 01-.684.288c-.288 0-.534-.096-.738-.288a1.038 1.038 0 01-.288-.738zm5.643 0c0-.252.096-.474.288-.666.204-.192.45-.288.738-.288.252 0 .474.096.666.288a.914.914 0 01.288.666c0 .288-.09.534-.27.738a.897.897 0 01-.684.288c-.288 0-.534-.096-.738-.288a1.038 1.038 0 01-.288-.738zm5.642 0c0-.252.096-.474.288-.666.204-.192.45-.288.738-.288.252 0 .474.096.666.288a.914.914 0 01.288.666c0 .288-.09.534-.27.738a.897.897 0 01-.684.288c-.288 0-.534-.096-.738-.288a1.038 1.038 0 01-.288-.738zm5.643 0c0-.252.096-.474.288-.666.204-.192.45-.288.738-.288.252 0 .474.096.666.288a.914.914 0 01.288.666c0 .288-.09.534-.27.738a.897.897 0 01-.684.288c-.288 0-.534-.096-.738-.288a1.038 1.038 0 01-.288-.738zm5.642 0c0-.252.096-.474.288-.666.204-.192.45-.288.738-.288.252 0 .474.096.666.288a.916.916 0 01.288.666c0 .288-.09.534-.27.738a.897.897 0 01-.684.288c-.288 0-.534-.096-.738-.288a1.038 1.038 0 01-.288-.738zm5.643 0c0-.252.096-.474.288-.666.204-.192.45-.288.738-.288.252 0 .474.096.666.288a.914.914 0 01.288.666c0 .288-.09.534-.27.738a.897.897 0 01-.684.288c-.288 0-.534-.096-.738-.288a1.038 1.038 0 01-.288-.738zm5.643 0c0-.252.096-.474.288-.666.204-.192.45-.288.738-.288.252 0 .474.096.666.288a.914.914 0 01.288.666c0 .288-.09.534-.27.738a.897.897 0 01-.684.288c-.288 0-.534-.096-.738-.288a1.038 1.038 0 01-.288-.738zm5.642 0c0-.252.096-.474.288-.666.204-.192.45-.288.738-.288.252 0 .474.096.666.288a.914.914 0 01.288.666c0 .288-.09.534-.27.738a.897.897 0 01-.684.288c-.288 0-.534-.096-.738-.288a1.038 1.038 0 01-.288-.738zm5.643 0c0-.252.096-.474.288-.666.204-.192.45-.288.738-.288.252 0 .474.096.666.288a.914.914 0 01.288.666c0 .288-.09.534-.27.738a.897.897 0 01-.684.288c-.288 0-.534-.096-.738-.288a1.038 1.038 0 01-.288-.738zm5.642 0c0-.252.096-.474.288-.666.204-.192.45-.288.738-.288.252 0 .474.096.666.288a.914.914 0 01.288.666c0 .288-.09.534-.27.738a.897.897 0 01-.684.288c-.288 0-.534-.096-.738-.288a1.038 1.038 0 01-.288-.738zm5.643 0c0-.252.096-.474.288-.666.204-.192.45-.288.738-.288.252 0 .474.096.666.288a.914.914 0 01.288.666c0 .288-.09.534-.27.738a.897.897 0 01-.684.288c-.288 0-.534-.096-.738-.288a1.038 1.038 0 01-.288-.738zm5.642 0c0-.252.096-.474.288-.666.204-.192.45-.288.738-.288.252 0 .474.096.666.288a.914.914 0 01.288.666c0 .288-.09.534-.27.738a.897.897 0 01-.684.288c-.288 0-.534-.096-.738-.288a1.038 1.038 0 01-.288-.738zm5.643 0c0-.252.096-.474.288-.666.204-.192.45-.288.738-.288.252 0 .474.096.666.288a.914.914 0 01.288.666c0 .288-.09.534-.27.738a.897.897 0 01-.684.288c-.288 0-.534-.096-.738-.288a1.038 1.038 0 01-.288-.738zm5.643 0c0-.252.096-.474.288-.666.204-.192.45-.288.738-.288.252 0 .474.096.666.288a.914.914 0 01.288.666c0 .288-.09.534-.27.738a.897.897 0 01-.684.288c-.288 0-.534-.096-.738-.288a1.038 1.038 0 01-.288-.738zm5.642 0c0-.252.096-.474.288-.666.204-.192.45-.288.738-.288.252 0 .474.096.666.288a.914.914 0 01.288.666c0 .288-.09.534-.27.738a.897.897 0 01-.684.288c-.288 0-.534-.096-.738-.288a1.038 1.038 0 01-.288-.738zm5.643 0c0-.252.096-.474.288-.666.204-.192.45-.288.738-.288.252 0 .474.096.666.288a.914.914 0 01.288.666c0 .288-.09.534-.27.738a.897.897 0 01-.684.288c-.288 0-.534-.096-.738-.288a1.038 1.038 0 01-.288-.738zm5.642 0c0-.252.096-.474.288-.666.204-.192.45-.288.738-.288.252 0 .474.096.666.288a.914.914 0 01.288.666c0 .288-.09.534-.27.738a.897.897 0 01-.684.288c-.288 0-.534-.096-.738-.288a1.038 1.038 0 01-.288-.738zm5.643 0c0-.252.096-.474.288-.666.204-.192.45-.288.738-.288.252 0 .474.096.666.288a.914.914 0 01.288.666c0 .288-.09.534-.27.738a.897.897 0 01-.684.288c-.288 0-.534-.096-.738-.288a1.038 1.038 0 01-.288-.738zm5.643 0c0-.252.096-.474.288-.666.204-.192.45-.288.738-.288.252 0 .474.096.666.288a.914.914 0 01.288.666c0 .288-.09.534-.27.738a.897.897 0 01-.684.288c-.288 0-.534-.096-.738-.288a1.038 1.038 0 01-.288-.738zm5.642 0c0-.252.096-.474.288-.666.204-.192.45-.288.738-.288.252 0 .474.096.666.288a.914.914 0 01.288.666c0 .288-.09.534-.27.738a.897.897 0 01-.684.288c-.288 0-.534-.096-.738-.288a1.038 1.038 0 01-.288-.738zm5.643 0c0-.252.096-.474.288-.666.204-.192.45-.288.738-.288.252 0 .474.096.666.288a.914.914 0 01.288.666c0 .288-.09.534-.27.738a.897.897 0 01-.684.288c-.288 0-.534-.096-.738-.288a1.038 1.038 0 01-.288-.738zm5.642 0c0-.252.096-.474.288-.666.204-.192.45-.288.738-.288.252 0 .474.096.666.288a.914.914 0 01.288.666c0 .288-.09.534-.27.738a.897.897 0 01-.684.288c-.288 0-.534-.096-.738-.288a1.038 1.038 0 01-.288-.738zm5.643 0c0-.252.096-.474.288-.666.204-.192.45-.288.738-.288.252 0 .474.096.666.288a.914.914 0 01.288.666c0 .288-.09.534-.27.738a.897.897 0 01-.684.288c-.288 0-.534-.096-.738-.288a1.038 1.038 0 01-.288-.738zm5.642 0c0-.252.096-.474.288-.666.204-.192.45-.288.738-.288.252 0 .474.096.666.288a.914.914 0 01.288.666c0 .288-.09.534-.27.738a.897.897 0 01-.684.288c-.288 0-.534-.096-.738-.288a1.038 1.038 0 01-.288-.738zm5.643 0c0-.252.096-.474.288-.666.204-.192.45-.288.738-.288.252 0 .474.096.666.288a.914.914 0 01.288.666c0 .288-.09.534-.27.738a.897.897 0 01-.684.288c-.288 0-.534-.096-.738-.288a1.038 1.038 0 01-.288-.738zm5.643 0c0-.252.096-.474.288-.666.204-.192.45-.288.738-.288.252 0 .474.096.666.288a.914.914 0 01.288.666c0 .288-.09.534-.27.738a.897.897 0 01-.684.288c-.288 0-.534-.096-.738-.288a1.038 1.038 0 01-.288-.738zm5.642 0c0-.252.096-.474.288-.666.204-.192.45-.288.738-.288.252 0 .474.096.666.288a.914.914 0 01.288.666c0 .288-.09.534-.27.738a.897.897 0 01-.684.288c-.288 0-.534-.096-.738-.288a1.038 1.038 0 01-.288-.738zm5.643 0c0-.252.096-.474.288-.666.204-.192.45-.288.738-.288.252 0 .474.096.666.288a.914.914 0 01.288.666c0 .288-.09.534-.27.738a.897.897 0 01-.684.288c-.288 0-.534-.096-.738-.288a1.038 1.038 0 01-.288-.738zm5.642 0c0-.252.096-.474.288-.666.204-.192.45-.288.738-.288.252 0 .474.096.666.288a.914.914 0 01.288.666c0 .288-.09.534-.27.738a.897.897 0 01-.684.288c-.288 0-.534-.096-.738-.288a1.038 1.038 0 01-.288-.738zm5.643 0c0-.252.096-.474.288-.666.204-.192.45-.288.738-.288.252 0 .474.096.666.288a.914.914 0 01.288.666c0 .288-.09.534-.27.738a.897.897 0 01-.684.288c-.288 0-.534-.096-.738-.288a1.038 1.038 0 01-.288-.738zm5.642 0c0-.252.096-.474.288-.666.204-.192.45-.288.738-.288.252 0 .474.096.666.288a.914.914 0 01.288.666c0 .288-.09.534-.27.738a.897.897 0 01-.684.288c-.288 0-.534-.096-.738-.288a1.038 1.038 0 01-.288-.738zm5.643 0c0-.252.096-.474.288-.666.204-.192.45-.288.738-.288.252 0 .474.096.666.288a.914.914 0 01.288.666c0 .288-.09.534-.27.738a.897.897 0 01-.684.288c-.288 0-.534-.096-.738-.288a1.038 1.038 0 01-.288-.738zM-48.58 56.158V61h-1.53V48.4c.504 0 1.038-.006 1.602-.018a79.54 79.54 0 011.692-.018c1.656 0 2.844.372 3.564 1.116.732.732 1.098 1.662 1.098 2.79 0 1.092-.396 2.028-1.188 2.808-.768.768-1.884 1.152-3.348 1.152-.768 0-1.398-.024-1.89-.072zm1.908-6.354c-.216 0-.852.012-1.908.036v4.86c.756.06 1.368.09 1.836.09.924 0 1.65-.222 2.178-.666.528-.456.792-1.08.792-1.872 0-.78-.246-1.38-.738-1.8-.48-.432-1.2-.648-2.16-.648zm6.354 10.188c-.792-.816-1.188-1.83-1.188-3.042 0-1.224.396-2.232 1.188-3.024.804-.804 1.848-1.206 3.132-1.206s2.322.402 3.114 1.206c.804.792 1.206 1.8 1.206 3.024s-.402 2.238-1.206 3.042c-.792.792-1.83 1.188-3.114 1.188-1.272 0-2.316-.396-3.132-1.188zm1.134-5.112c-.528.528-.792 1.218-.792 2.07 0 .852.258 1.542.774 2.07.528.54 1.2.81 2.016.81.816 0 1.482-.264 1.998-.792.528-.54.792-1.236.792-2.088 0-.828-.264-1.518-.792-2.07-.516-.54-1.182-.81-1.998-.81-.816 0-1.482.27-1.998.81zm14.624 3.906l.684 1.044c-.696.9-1.734 1.35-3.114 1.35-1.296 0-2.346-.384-3.15-1.152-.792-.768-1.188-1.794-1.188-3.078 0-1.188.39-2.19 1.17-3.006.78-.816 1.758-1.224 2.934-1.224 1.416 0 2.478.354 3.186 1.062l-.666 1.134c-.624-.564-1.398-.846-2.322-.846-.756 0-1.41.276-1.962.828-.54.54-.81 1.224-.81 2.052 0 .876.276 1.572.828 2.088.564.528 1.26.792 2.088.792.936 0 1.71-.348 2.322-1.044zm4.4-4.446h-2.97V52.9h7.38v1.44h-2.97V61h-1.44v-6.66zm12.865 5.688c0-.252.096-.474.288-.666.204-.192.45-.288.738-.288.252 0 .474.096.666.288a.914.914 0 01.288.666c0 .288-.09.534-.27.738a.897.897 0 01-.684.288c-.288 0-.534-.096-.738-.288a1.038 1.038 0 01-.288-.738zm5.642 0c0-.252.096-.474.288-.666.204-.192.45-.288.738-.288.252 0 .474.096.666.288a.914.914 0 01.288.666c0 .288-.09.534-.27.738a.897.897 0 01-.684.288c-.288 0-.534-.096-.738-.288a1.038 1.038 0 01-.288-.738zm5.643 0c0-.252.096-.474.288-.666.204-.192.45-.288.738-.288.252 0 .474.096.666.288a.914.914 0 01.288.666c0 .288-.09.534-.27.738a.897.897 0 01-.684.288c-.288 0-.534-.096-.738-.288a1.038 1.038 0 01-.288-.738zm5.642 0c0-.252.096-.474.288-.666.204-.192.45-.288.738-.288.252 0 .474.096.666.288a.914.914 0 01.288.666c0 .288-.09.534-.27.738a.897.897 0 01-.684.288c-.288 0-.534-.096-.738-.288a1.038 1.038 0 01-.288-.738zm5.643 0c0-.252.096-.474.288-.666.204-.192.45-.288.738-.288.252 0 .474.096.666.288a.914.914 0 01.288.666c0 .288-.09.534-.27.738a.897.897 0 01-.684.288c-.288 0-.534-.096-.738-.288a1.038 1.038 0 01-.288-.738zm5.643 0c0-.252.096-.474.288-.666.204-.192.45-.288.738-.288.252 0 .474.096.666.288a.914.914 0 01.288.666c0 .288-.09.534-.27.738a.897.897 0 01-.684.288c-.288 0-.534-.096-.738-.288a1.038 1.038 0 01-.288-.738zm5.642 0c0-.252.096-.474.288-.666.204-.192.45-.288.738-.288.252 0 .474.096.666.288a.914.914 0 01.288.666c0 .288-.09.534-.27.738a.897.897 0 01-.684.288c-.288 0-.534-.096-.738-.288a1.038 1.038 0 01-.288-.738zm5.643 0c0-.252.096-.474.288-.666.204-.192.45-.288.738-.288.252 0 .474.096.666.288a.914.914 0 01.288.666c0 .288-.09.534-.27.738a.897.897 0 01-.684.288c-.288 0-.534-.096-.738-.288a1.038 1.038 0 01-.288-.738zm5.642 0c0-.252.096-.474.288-.666.204-.192.45-.288.738-.288.252 0 .474.096.666.288a.914.914 0 01.288.666c0 .288-.09.534-.27.738a.897.897 0 01-.684.288c-.288 0-.534-.096-.738-.288a1.038 1.038 0 01-.288-.738zm5.643 0c0-.252.096-.474.288-.666.204-.192.45-.288.738-.288.252 0 .474.096.666.288a.914.914 0 01.288.666c0 .288-.09.534-.27.738a.897.897 0 01-.684.288c-.288 0-.534-.096-.738-.288a1.038 1.038 0 01-.288-.738zm5.642 0c0-.252.096-.474.288-.666.205-.192.45-.288.739-.288.252 0 .474.096.666.288a.914.914 0 01.288.666c0 .288-.09.534-.27.738a.897.897 0 01-.684.288c-.288 0-.534-.096-.738-.288a1.038 1.038 0 01-.288-.738zm5.643 0c0-.252.096-.474.288-.666.204-.192.45-.288.738-.288.252 0 .474.096.666.288a.914.914 0 01.288.666c0 .288-.09.534-.27.738a.897.897 0 01-.684.288c-.288 0-.534-.096-.738-.288a1.038 1.038 0 01-.288-.738zm5.643 0c0-.252.096-.474.288-.666.204-.192.45-.288.738-.288.252 0 .474.096.666.288a.914.914 0 01.288.666c0 .288-.09.534-.27.738a.897.897 0 01-.684.288c-.288 0-.534-.096-.738-.288a1.038 1.038 0 01-.288-.738zm5.642 0c0-.252.096-.474.288-.666.204-.192.45-.288.738-.288.252 0 .474.096.666.288a.914.914 0 01.288.666c0 .288-.09.534-.27.738a.897.897 0 01-.684.288c-.288 0-.534-.096-.738-.288a1.038 1.038 0 01-.288-.738zm5.643 0c0-.252.096-.474.288-.666.204-.192.45-.288.738-.288.252 0 .474.096.666.288a.914.914 0 01.288.666c0 .288-.09.534-.27.738a.897.897 0 01-.684.288c-.288 0-.534-.096-.738-.288a1.038 1.038 0 01-.288-.738zm5.642 0c0-.252.096-.474.288-.666.204-.192.45-.288.738-.288.252 0 .474.096.666.288a.914.914 0 01.288.666c0 .288-.09.534-.27.738a.897.897 0 01-.684.288c-.288 0-.534-.096-.738-.288a1.038 1.038 0 01-.288-.738zm5.643 0c0-.252.096-.474.288-.666.204-.192.45-.288.738-.288.252 0 .474.096.666.288a.914.914 0 01.288.666c0 .288-.09.534-.27.738a.897.897 0 01-.684.288c-.288 0-.534-.096-.738-.288a1.038 1.038 0 01-.288-.738zm5.642 0c0-.252.097-.474.288-.666.205-.192.45-.288.739-.288.251 0 .474.096.665.288a.914.914 0 01.289.666c0 .288-.09.534-.27.738a.897.897 0 01-.684.288c-.288 0-.534-.096-.739-.288a1.038 1.038 0 01-.287-.738zm5.643 0c0-.252.096-.474.288-.666.204-.192.45-.288.738-.288.252 0 .474.096.666.288a.914.914 0 01.288.666c0 .288-.09.534-.27.738a.897.897 0 01-.684.288c-.288 0-.534-.096-.738-.288a1.038 1.038 0 01-.288-.738zm5.643 0c0-.252.096-.474.288-.666.204-.192.45-.288.738-.288.252 0 .474.096.666.288a.914.914 0 01.288.666c0 .288-.09.534-.27.738a.897.897 0 01-.684.288c-.288 0-.534-.096-.738-.288a1.038 1.038 0 01-.288-.738zm5.642 0c0-.252.096-.474.288-.666.204-.192.45-.288.738-.288.252 0 .474.096.666.288a.914.914 0 01.288.666c0 .288-.09.534-.27.738a.897.897 0 01-.684.288c-.288 0-.534-.096-.738-.288a1.038 1.038 0 01-.288-.738zm5.643 0c0-.252.096-.474.288-.666.204-.192.45-.288.738-.288.252 0 .474.096.666.288a.914.914 0 01.288.666c0 .288-.09.534-.27.738a.897.897 0 01-.684.288c-.288 0-.534-.096-.738-.288a1.038 1.038 0 01-.288-.738zm5.642 0c0-.252.096-.474.288-.666.204-.192.45-.288.738-.288.252 0 .474.096.666.288a.914.914 0 01.288.666c0 .288-.09.534-.27.738a.897.897 0 01-.684.288c-.288 0-.534-.096-.738-.288a1.038 1.038 0 01-.288-.738zm5.643 0c0-.252.096-.474.288-.666.204-.192.45-.288.738-.288.252 0 .474.096.666.288a.914.914 0 01.288.666c0 .288-.09.534-.27.738a.897.897 0 01-.684.288c-.288 0-.534-.096-.738-.288a1.038 1.038 0 01-.288-.738zm5.643 0c0-.252.096-.474.288-.666.204-.192.45-.288.738-.288.252 0 .474.096.666.288a.914.914 0 01.288.666c0 .288-.09.534-.27.738a.897.897 0 01-.684.288c-.288 0-.534-.096-.738-.288a1.038 1.038 0 01-.288-.738zm5.642 0c0-.252.096-.474.288-.666.204-.192.45-.288.738-.288.252 0 .474.096.666.288a.914.914 0 01.288.666c0 .288-.09.534-.27.738a.897.897 0 01-.684.288c-.288 0-.534-.096-.738-.288a1.038 1.038 0 01-.288-.738zm5.643 0c0-.252.096-.474.288-.666.204-.192.45-.288.738-.288.252 0 .474.096.666.288a.914.914 0 01.288.666c0 .288-.09.534-.27.738a.897.897 0 01-.684.288c-.288 0-.534-.096-.738-.288a1.038 1.038 0 01-.288-.738zm5.642 0c0-.252.096-.474.288-.666.204-.192.45-.288.738-.288.252 0 .474.096.666.288a.914.914 0 01.288.666c0 .288-.09.534-.27.738a.897.897 0 01-.684.288c-.288 0-.534-.096-.738-.288a1.038 1.038 0 01-.288-.738zm5.643 0c0-.252.096-.474.288-.666.204-.192.45-.288.738-.288.252 0 .474.096.666.288a.914.914 0 01.288.666c0 .288-.09.534-.27.738a.897.897 0 01-.684.288c-.288 0-.534-.096-.738-.288a1.038 1.038 0 01-.288-.738zm5.642 0c0-.252.096-.474.288-.666.204-.192.45-.288.738-.288.252 0 .474.096.666.288a.914.914 0 01.288.666c0 .288-.09.534-.27.738a.897.897 0 01-.684.288c-.288 0-.534-.096-.738-.288a1.038 1.038 0 01-.288-.738zm5.643 0c0-.252.096-.474.288-.666.204-.192.45-.288.738-.288.252 0 .474.096.666.288a.914.914 0 01.288.666c0 .288-.09.534-.27.738a.897.897 0 01-.684.288c-.288 0-.534-.096-.738-.288a1.038 1.038 0 01-.288-.738zm5.643 0c0-.252.096-.474.288-.666.204-.192.45-.288.738-.288.252 0 .474.096.666.288a.914.914 0 01.288.666c0 .288-.09.534-.27.738a.897.897 0 01-.684.288c-.288 0-.534-.096-.738-.288a1.038 1.038 0 01-.288-.738zm5.642 0c0-.252.096-.474.288-.666.204-.192.45-.288.738-.288.252 0 .474.096.666.288a.914.914 0 01.288.666c0 .288-.09.534-.27.738a.897.897 0 01-.684.288c-.288 0-.534-.096-.738-.288a1.038 1.038 0 01-.288-.738zm5.643 0c0-.252.096-.474.288-.666.204-.192.45-.288.738-.288.252 0 .474.096.666.288a.914.914 0 01.288.666c0 .288-.09.534-.27.738a.897.897 0 01-.684.288c-.288 0-.534-.096-.738-.288a1.038 1.038 0 01-.288-.738zm5.642 0c0-.252.096-.474.288-.666.204-.192.45-.288.738-.288.252 0 .474.096.666.288a.914.914 0 01.288.666c0 .288-.09.534-.27.738a.897.897 0 01-.684.288c-.288 0-.534-.096-.738-.288a1.038 1.038 0 01-.288-.738zm5.643 0c0-.252.096-.474.288-.666.204-.192.45-.288.738-.288.252 0 .474.096.666.288a.914.914 0 01.288.666c0 .288-.09.534-.27.738a.897.897 0 01-.684.288c-.288 0-.534-.096-.738-.288a1.038 1.038 0 01-.288-.738zm5.643 0c0-.252.096-.474.287-.666.205-.192.451-.288.739-.288.252 0 .474.096.666.288a.914.914 0 01.288.666c0 .288-.09.534-.27.738a.897.897 0 01-.684.288c-.288 0-.534-.096-.739-.288a1.042 1.042 0 01-.287-.738zm5.642 0c0-.252.096-.474.288-.666.204-.192.45-.288.738-.288.252 0 .474.096.666.288a.914.914 0 01.288.666c0 .288-.09.534-.27.738a.897.897 0 01-.684.288c-.288 0-.534-.096-.738-.288a1.038 1.038 0 01-.288-.738zm5.643 0c0-.252.096-.474.288-.666.204-.192.45-.288.738-.288.252 0 .474.096.666.288a.914.914 0 01.288.666c0 .288-.09.534-.27.738a.897.897 0 01-.684.288c-.288 0-.534-.096-.738-.288a1.038 1.038 0 01-.288-.738zm5.642 0c0-.252.096-.474.288-.666.204-.192.45-.288.738-.288.252 0 .474.096.666.288a.914.914 0 01.288.666c0 .288-.09.534-.27.738a.897.897 0 01-.684.288c-.288 0-.534-.096-.738-.288a1.038 1.038 0 01-.288-.738zm5.643 0c0-.252.096-.474.288-.666.204-.192.45-.288.738-.288.252 0 .474.096.666.288a.914.914 0 01.288.666c0 .288-.09.534-.27.738a.897.897 0 01-.684.288c-.288 0-.534-.096-.738-.288a1.038 1.038 0 01-.288-.738zm5.642 0c0-.252.096-.474.288-.666.204-.192.45-.288.738-.288.252 0 .474.096.666.288a.914.914 0 01.288.666c0 .288-.09.534-.27.738a.897.897 0 01-.684.288c-.288 0-.534-.096-.738-.288a1.038 1.038 0 01-.288-.738zm5.643 0c0-.252.096-.474.288-.666.204-.192.45-.288.738-.288.252 0 .474.096.666.288a.914.914 0 01.288.666c0 .288-.09.534-.27.738a.897.897 0 01-.684.288c-.288 0-.534-.096-.738-.288a1.038 1.038 0 01-.288-.738zm5.643 0c0-.252.096-.474.288-.666.204-.192.45-.288.738-.288.252 0 .474.096.666.288a.914.914 0 01.288.666c0 .288-.09.534-.27.738a.897.897 0 01-.684.288c-.288 0-.534-.096-.738-.288a1.038 1.038 0 01-.288-.738zm5.642 0c0-.252.096-.474.288-.666.204-.192.45-.288.738-.288.252 0 .474.096.666.288a.914.914 0 01.288.666c0 .288-.09.534-.27.738a.897.897 0 01-.684.288c-.288 0-.534-.096-.738-.288a1.038 1.038 0 01-.288-.738zm5.643 0c0-.252.096-.474.288-.666.204-.192.45-.288.738-.288.252 0 .474.096.666.288a.914.914 0 01.288.666c0 .288-.09.534-.27.738a.897.897 0 01-.684.288c-.288 0-.534-.096-.738-.288a1.038 1.038 0 01-.288-.738zm5.642 0c0-.252.096-.474.288-.666.204-.192.45-.288.738-.288.252 0 .474.096.666.288a.914.914 0 01.288.666c0 .288-.09.534-.27.738a.897.897 0 01-.684.288c-.288 0-.534-.096-.738-.288a1.038 1.038 0 01-.288-.738zM-50.11 88.982V76.418c1.668-.048 2.82-.072 3.456-.072 1.368 0 2.382.276 3.042.828.672.54 1.008 1.302 1.008 2.286 0 .732-.192 1.344-.576 1.836-.384.492-.912.852-1.584 1.08v.036c.816.132 1.452.456 1.908.972.468.516.702 1.188.702 2.016 0 1.2-.408 2.112-1.224 2.736-.816.612-1.932.918-3.348.918a64.25 64.25 0 01-3.384-.072zm3.564-5.724h-2.034v4.284c.492.048 1.14.072 1.944.072.948 0 1.674-.192 2.178-.576.516-.396.774-.972.774-1.728 0-.66-.252-1.164-.756-1.512-.492-.36-1.194-.54-2.106-.54zm-.144-5.472c-.36 0-.99.018-1.89.054v4.068h2.016c.708 0 1.29-.186 1.746-.558.456-.384.684-.9.684-1.548 0-1.344-.852-2.016-2.556-2.016zm7.743 10.206c-.792-.816-1.188-1.83-1.188-3.042 0-1.224.396-2.232 1.188-3.024.804-.804 1.848-1.206 3.132-1.206s2.322.402 3.114 1.206c.804.792 1.206 1.8 1.206 3.024s-.402 2.238-1.206 3.042c-.792.792-1.83 1.188-3.114 1.188-1.272 0-2.316-.396-3.132-1.188zm1.134-5.112c-.528.528-.792 1.218-.792 2.07 0 .852.258 1.542.774 2.07.528.54 1.2.81 2.016.81.816 0 1.482-.264 1.998-.792.528-.54.792-1.236.792-2.088 0-.828-.264-1.518-.792-2.07-.516-.54-1.182-.81-1.998-.81-.816 0-1.482.27-1.998.81zm11.078 6.3c-.612 0-1.26-.102-1.944-.306-.66-.216-1.128-.48-1.404-.792l.738-1.08c.324.264.708.48 1.152.648.456.156.87.234 1.242.234.624 0 1.134-.12 1.53-.36.396-.252.594-.576.594-.972a.861.861 0 00-.432-.774c-.276-.18-.66-.27-1.152-.27h-1.368v-1.17h1.278c.408 0 .744-.108 1.008-.324.264-.228.396-.504.396-.828 0-.36-.156-.642-.468-.846-.312-.216-.732-.324-1.26-.324-.852 0-1.662.3-2.43.9l-.558-1.116c.324-.336.774-.6 1.35-.792a5.935 5.935 0 011.854-.288c.96 0 1.704.192 2.232.576.54.384.81.918.81 1.602 0 .936-.474 1.572-1.422 1.908v.036c.528.06.942.27 1.242.63.3.348.45.774.45 1.278 0 .744-.318 1.338-.954 1.782-.624.432-1.452.648-2.484.648zm7.073 3.42h-1.44V80.9h1.44v.954c.288-.336.684-.606 1.188-.81a3.937 3.937 0 011.566-.324c1.152 0 2.058.384 2.718 1.152.684.756 1.026 1.74 1.026 2.952 0 1.236-.39 2.274-1.17 3.114-.768.828-1.782 1.242-3.042 1.242-.972 0-1.734-.186-2.286-.558V92.6zm2.34-10.53c-.96 0-1.74.372-2.34 1.116V87.2c.636.42 1.356.63 2.16.63.852 0 1.53-.27 2.034-.81.516-.552.774-1.266.774-2.142 0-.852-.234-1.53-.702-2.034-.468-.516-1.11-.774-1.926-.774zm6.653.54l-.377-1.152c.803-.492 1.704-.738 2.7-.738 1.092 0 1.884.27 2.376.81s.738 1.374.738 2.502V89H-6.6v-1.044c-.636.78-1.5 1.17-2.592 1.17-.744 0-1.345-.222-1.8-.666-.456-.456-.684-1.068-.684-1.836 0-.792.281-1.416.845-1.872.564-.468 1.303-.702 2.215-.702.852 0 1.524.174 2.016.522 0-.912-.126-1.566-.378-1.962-.252-.396-.738-.594-1.458-.594-.732 0-1.476.198-2.232.594zm1.98 5.22c.805 0 1.5-.348 2.089-1.044V85.76c-.504-.36-1.11-.54-1.818-.54-.492 0-.906.12-1.242.36-.324.228-.486.552-.486.972 0 .396.126.708.378.936.264.228.624.342 1.08.342zm12.096-1.044l.684 1.044c-.696.9-1.734 1.35-3.114 1.35-1.296 0-2.346-.384-3.15-1.152-.792-.768-1.188-1.794-1.188-3.078 0-1.188.39-2.19 1.17-3.006.78-.816 1.758-1.224 2.934-1.224 1.416 0 2.478.354 3.186 1.062l-.666 1.134c-.624-.564-1.398-.846-2.322-.846-.756 0-1.41.276-1.962.828-.54.54-.81 1.224-.81 2.052 0 .876.276 1.572.828 2.088.564.528 1.26.792 2.088.792.936 0 1.71-.348 2.322-1.044zm4.4-4.446h-2.97V80.9h7.38v1.44h-2.97V89h-1.44v-6.66zm12.865 5.688c0-.252.095-.474.287-.666.204-.192.45-.288.739-.288.252 0 .474.096.665.288a.914.914 0 01.288.666c0 .288-.09.534-.27.738a.897.897 0 01-.683.288c-.288 0-.535-.096-.739-.288a1.038 1.038 0 01-.287-.738zm5.642 0c0-.252.096-.474.288-.666.204-.192.45-.288.738-.288.252 0 .474.096.666.288a.914.914 0 01.288.666c0 .288-.09.534-.27.738a.897.897 0 01-.684.288c-.288 0-.534-.096-.738-.288a1.038 1.038 0 01-.288-.738zm5.643 0c0-.252.096-.474.288-.666.204-.192.45-.288.738-.288.252 0 .474.096.666.288a.914.914 0 01.288.666c0 .288-.09.534-.27.738a.897.897 0 01-.684.288c-.288 0-.534-.096-.738-.288a1.038 1.038 0 01-.288-.738zm5.642 0c0-.252.096-.474.288-.666.204-.192.45-.288.738-.288.252 0 .474.096.666.288a.914.914 0 01.288.666c0 .288-.09.534-.27.738a.897.897 0 01-.684.288c-.288 0-.534-.096-.738-.288a1.038 1.038 0 01-.288-.738zm5.643 0c0-.252.096-.474.288-.666.204-.192.45-.288.738-.288.252 0 .474.096.666.288a.914.914 0 01.288.666c0 .288-.09.534-.27.738a.897.897 0 01-.684.288c-.288 0-.534-.096-.738-.288a1.038 1.038 0 01-.288-.738zm5.642 0c0-.252.096-.474.288-.666.204-.192.45-.288.738-.288.252 0 .474.096.666.288a.914.914 0 01.288.666c0 .288-.09.534-.27.738a.897.897 0 01-.684.288c-.288 0-.534-.096-.738-.288a1.038 1.038 0 01-.288-.738zm5.643 0c0-.252.096-.474.288-.666.204-.192.45-.288.738-.288.252 0 .474.096.666.288a.914.914 0 01.288.666c0 .288-.09.534-.27.738a.897.897 0 01-.684.288c-.288 0-.534-.096-.738-.288a1.038 1.038 0 01-.288-.738zm5.642 0c0-.252.097-.474.289-.666.203-.192.45-.288.738-.288.252 0 .474.096.666.288a.914.914 0 01.288.666c0 .288-.09.534-.27.738a.897.897 0 01-.684.288c-.288 0-.535-.096-.738-.288a1.038 1.038 0 01-.288-.738zm5.643 0c0-.252.096-.474.288-.666.204-.192.45-.288.738-.288.252 0 .474.096.666.288a.914.914 0 01.288.666c0 .288-.09.534-.27.738a.897.897 0 01-.684.288c-.288 0-.534-.096-.738-.288a1.038 1.038 0 01-.288-.738zm5.643 0c0-.252.096-.474.288-.666.204-.192.45-.288.738-.288.252 0 .474.096.666.288a.914.914 0 01.288.666c0 .288-.09.534-.27.738a.897.897 0 01-.684.288c-.288 0-.534-.096-.738-.288a1.038 1.038 0 01-.288-.738zm5.642 0c0-.252.096-.474.288-.666.204-.192.45-.288.738-.288.252 0 .474.096.666.288a.914.914 0 01.288.666c0 .288-.09.534-.27.738a.897.897 0 01-.684.288c-.288 0-.534-.096-.738-.288a1.038 1.038 0 01-.288-.738zm5.643 0c0-.252.096-.474.288-.666.204-.192.45-.288.738-.288.252 0 .474.096.666.288a.914.914 0 01.288.666c0 .288-.09.534-.27.738a.897.897 0 01-.684.288c-.288 0-.534-.096-.738-.288a1.038 1.038 0 01-.288-.738zm5.642 0c0-.252.096-.474.288-.666.204-.192.45-.288.738-.288.252 0 .474.096.666.288a.914.914 0 01.288.666c0 .288-.09.534-.27.738a.897.897 0 01-.684.288c-.288 0-.534-.096-.738-.288a1.038 1.038 0 01-.288-.738zm5.643 0c0-.252.096-.474.288-.666.204-.192.45-.288.738-.288.252 0 .474.096.666.288a.914.914 0 01.288.666c0 .288-.09.534-.27.738a.897.897 0 01-.684.288c-.288 0-.534-.096-.738-.288a1.038 1.038 0 01-.288-.738zm5.643 0c0-.252.096-.474.288-.666a1.04 1.04 0 01.738-.288c.252 0 .474.096.666.288a.914.914 0 01.288.666c0 .288-.09.534-.27.738a.897.897 0 01-.684.288 1.04 1.04 0 01-.738-.288 1.038 1.038 0 01-.288-.738zm5.642 0c0-.252.096-.474.288-.666.204-.192.45-.288.738-.288.252 0 .474.096.666.288a.914.914 0 01.288.666c0 .288-.09.534-.27.738a.897.897 0 01-.684.288c-.288 0-.534-.096-.738-.288a1.038 1.038 0 01-.288-.738zm5.643 0c0-.252.096-.474.288-.666.204-.192.45-.288.738-.288.252 0 .474.096.666.288a.914.914 0 01.288.666c0 .288-.09.534-.27.738a.897.897 0 01-.684.288c-.288 0-.534-.096-.738-.288a1.038 1.038 0 01-.288-.738zm5.642 0c0-.252.096-.474.288-.666.204-.192.45-.288.738-.288.252 0 .474.096.666.288a.914.914 0 01.288.666c0 .288-.09.534-.27.738a.897.897 0 01-.684.288c-.288 0-.534-.096-.738-.288a1.038 1.038 0 01-.288-.738zm5.643 0c0-.252.096-.474.288-.666.204-.192.45-.288.738-.288.252 0 .474.096.666.288a.914.914 0 01.288.666c0 .288-.09.534-.27.738a.897.897 0 01-.684.288c-.288 0-.534-.096-.738-.288a1.038 1.038 0 01-.288-.738zm5.642 0c0-.252.096-.474.288-.666.204-.192.45-.288.738-.288.252 0 .474.096.666.288a.914.914 0 01.288.666c0 .288-.09.534-.27.738a.897.897 0 01-.684.288c-.288 0-.534-.096-.738-.288a1.038 1.038 0 01-.288-.738zm5.643 0c0-.252.096-.474.288-.666.204-.192.45-.288.738-.288.252 0 .474.096.666.288a.914.914 0 01.288.666c0 .288-.09.534-.27.738a.897.897 0 01-.684.288c-.288 0-.534-.096-.738-.288a1.038 1.038 0 01-.288-.738zm5.643 0c0-.252.096-.474.288-.666.204-.192.45-.288.738-.288.252 0 .474.096.666.288a.914.914 0 01.288.666c0 .288-.09.534-.27.738a.897.897 0 01-.684.288c-.288 0-.534-.096-.738-.288a1.038 1.038 0 01-.288-.738zm5.642 0c0-.252.096-.474.288-.666.204-.192.45-.288.738-.288.252 0 .474.096.666.288a.914.914 0 01.288.666c0 .288-.09.534-.27.738a.897.897 0 01-.684.288c-.288 0-.534-.096-.738-.288a1.038 1.038 0 01-.288-.738zm5.643 0c0-.252.096-.474.288-.666.204-.192.45-.288.738-.288.252 0 .474.096.666.288a.914.914 0 01.288.666c0 .288-.09.534-.27.738a.897.897 0 01-.684.288c-.288 0-.534-.096-.738-.288a1.038 1.038 0 01-.288-.738zm5.642 0c0-.252.096-.474.288-.666.204-.192.45-.288.738-.288.252 0 .474.096.666.288a.914.914 0 01.288.666c0 .288-.09.534-.27.738a.897.897 0 01-.684.288c-.288 0-.534-.096-.738-.288a1.038 1.038 0 01-.288-.738zm5.643 0c0-.252.096-.474.288-.666.204-.192.45-.288.738-.288.252 0 .474.096.666.288a.914.914 0 01.288.666c0 .288-.09.534-.27.738a.897.897 0 01-.684.288c-.288 0-.534-.096-.738-.288a1.038 1.038 0 01-.288-.738zm5.643 0c0-.252.096-.474.288-.666.204-.192.45-.288.738-.288.252 0 .474.096.666.288a.914.914 0 01.288.666c0 .288-.09.534-.27.738a.897.897 0 01-.684.288c-.288 0-.534-.096-.738-.288a1.038 1.038 0 01-.288-.738zm5.642 0c0-.252.096-.474.288-.666.204-.192.45-.288.738-.288.252 0 .474.096.666.288a.914.914 0 01.288.666c0 .288-.09.534-.27.738a.897.897 0 01-.684.288c-.288 0-.534-.096-.738-.288a1.038 1.038 0 01-.288-.738zm5.643 0c0-.252.096-.474.288-.666.204-.192.45-.288.738-.288.252 0 .474.096.666.288a.914.914 0 01.288.666c0 .288-.09.534-.27.738a.897.897 0 01-.684.288c-.288 0-.534-.096-.738-.288a1.038 1.038 0 01-.288-.738zm5.642 0c0-.252.096-.474.288-.666.204-.192.45-.288.738-.288.252 0 .474.096.666.288a.914.914 0 01.288.666c0 .288-.09.534-.27.738a.897.897 0 01-.684.288c-.288 0-.534-.096-.738-.288a1.038 1.038 0 01-.288-.738zm5.643 0c0-.252.096-.474.288-.666.204-.192.45-.288.738-.288.252 0 .474.096.666.288a.914.914 0 01.288.666c0 .288-.09.534-.27.738a.897.897 0 01-.684.288c-.288 0-.534-.096-.738-.288a1.038 1.038 0 01-.288-.738zm5.642 0c0-.252.096-.474.288-.666.204-.192.45-.288.738-.288.252 0 .474.096.666.288a.914.914 0 01.288.666c0 .288-.09.534-.27.738a.897.897 0 01-.684.288c-.288 0-.534-.096-.738-.288a1.038 1.038 0 01-.288-.738zm5.643 0c0-.252.096-.474.288-.666.204-.192.45-.288.738-.288.252 0 .474.096.666.288a.914.914 0 01.288.666c0 .288-.09.534-.27.738a.897.897 0 01-.684.288c-.288 0-.534-.096-.738-.288a1.038 1.038 0 01-.288-.738zm5.643 0c0-.252.096-.474.288-.666.204-.192.45-.288.738-.288.252 0 .474.096.666.288a.914.914 0 01.288.666c0 .288-.09.534-.27.738a.897.897 0 01-.684.288c-.288 0-.534-.096-.738-.288a1.038 1.038 0 01-.288-.738zm5.642 0c0-.252.096-.474.288-.666.204-.192.45-.288.738-.288.252 0 .474.096.666.288a.914.914 0 01.288.666c0 .288-.09.534-.27.738a.897.897 0 01-.684.288c-.288 0-.534-.096-.738-.288a1.038 1.038 0 01-.288-.738zm5.643 0c0-.252.096-.474.288-.666.204-.192.45-.288.738-.288.252 0 .474.096.666.288a.914.914 0 01.288.666c0 .288-.09.534-.27.738a.897.897 0 01-.684.288c-.288 0-.534-.096-.738-.288a1.038 1.038 0 01-.288-.738zm5.642 0c0-.252.096-.474.288-.666.204-.192.45-.288.738-.288.252 0 .474.096.666.288a.914.914 0 01.288.666c0 .288-.09.534-.27.738a.897.897 0 01-.684.288c-.288 0-.534-.096-.738-.288a1.038 1.038 0 01-.288-.738zm5.643 0c0-.252.096-.474.288-.666.204-.192.45-.288.738-.288.252 0 .474.096.666.288a.914.914 0 01.288.666c0 .288-.09.534-.27.738a.897.897 0 01-.684.288c-.288 0-.534-.096-.738-.288a1.038 1.038 0 01-.288-.738zm5.642 0c0-.252.096-.474.288-.666.204-.192.45-.288.738-.288.252 0 .474.096.666.288a.914.914 0 01.288.666c0 .288-.09.534-.27.738a.897.897 0 01-.684.288c-.288 0-.534-.096-.738-.288a1.038 1.038 0 01-.288-.738zm5.643 0c0-.252.096-.474.288-.666.204-.192.45-.288.738-.288.252 0 .474.096.666.288a.914.914 0 01.288.666c0 .288-.09.534-.27.738a.897.897 0 01-.684.288c-.288 0-.534-.096-.738-.288a1.038 1.038 0 01-.288-.738zm5.643 0c0-.252.096-.474.288-.666.204-.192.45-.288.738-.288.252 0 .474.096.666.288a.914.914 0 01.288.666c0 .288-.09.534-.27.738a.897.897 0 01-.684.288c-.288 0-.534-.096-.738-.288a1.038 1.038 0 01-.288-.738zm5.642 0c0-.252.096-.474.288-.666.204-.192.45-.288.738-.288.252 0 .474.096.666.288a.914.914 0 01.288.666c0 .288-.09.534-.27.738a.897.897 0 01-.684.288c-.288 0-.534-.096-.738-.288a1.038 1.038 0 01-.288-.738z"/></svg><svg viewBox="0 0 22 25" id="drop" xmlns="http://www.w3.org/2000/svg"><path fill-rule="evenodd" clip-rule="evenodd" d="M10.045 9.857c.595.892.892 2.18.644 3.27-.198.94-1.04 2.03-2.13 1.832-2.229-.396.842-4.458 1.486-5.102zm0-3.764c-.396.198-2.625 3.814-3.07 4.458-.991 1.486-1.982 3.318-2.527 5.002-1.337 4.161.99 8.47 5.597 8.47 4.656 0 6.984-4.408 5.548-8.569-.594-1.684-1.585-3.467-2.576-4.953-.445-.644-2.625-4.16-3.021-4.408h.05zM18.069 5.548c.842 1.09.594 3.665-.941 3.368-1.387-.248.495-2.972.94-3.368zm0-2.526c-.644.495-3.764 5.448-3.517 6.092l1.833 3.12c1.337 2.576.693 2.824 2.03 2.725 3.022-.248 4.21-3.12 3.27-5.845-.347-.99-2.972-5.597-3.666-6.092h.05zM4.002 2.526c.842 1.09.595 3.666-.99 3.368-1.387-.247.495-2.971.99-3.368zM4.052 0C3.259.496.733 5.003.337 5.994c-1.238 3.566 1.189 5.844 3.17 5.894.545 0 .792-.892 1.04-1.288C7.569 5.498 8.46 6.736 6.033 2.972 5.39 2.03 4.745.892 4.052 0z"/></svg><svg viewBox="0 0 67 67" id="height" xmlns="http://www.w3.org/2000/svg"><g clip-path="url(#akclip0_274_515)"><path d="M26.4 44.14a.677.677 0 00.952.101l25.266-20.43a.677.677 0 00.1-.953l-5.107-6.316a.677.677 0 00-.952-.1l-25.266 20.43a.677.677 0 00-.101.952l5.107 6.316zm20.584-26.22l4.256 5.263-5.264 4.257-2.128-2.632a.677.677 0 10-1.053.851l2.128 2.632-1.052.851-1.277-1.579a.677.677 0 10-1.053.851l1.277 1.58-1.053.85-1.277-1.578a.677.677 0 10-1.053.85l1.277 1.58-1.052.851-1.277-1.579a.677.677 0 10-1.053.851l1.277 1.58-1.053.85-2.128-2.631a.677.677 0 10-1.053.851l2.128 2.632-1.052.851-1.277-1.579a.677.677 0 10-1.053.852l1.277 1.579-1.053.85-1.277-1.578a.676.676 0 10-1.053.851l1.277 1.58-1.052.85-1.277-1.579a.677.677 0 10-1.053.852l1.277 1.579-1.053.851-2.128-2.632a.677.677 0 10-1.053.851l2.128 2.632-1.052.852-4.257-5.264 24.214-19.58z"/><path d="M47.757 24.259a2.033 2.033 0 00.302-2.856 2.033 2.033 0 00-2.856-.303 2.033 2.033 0 00-.302 2.856 2.033 2.033 0 002.856.303zm-1.703-2.106a.678.678 0 11.852 1.055.678.678 0 01-.852-1.055z"/></g><defs><clipPath id="akclip0_274_515"><path transform="rotate(51.04 18.423 38.59)" d="M0 0h47.385v47.385H0z"/></clipPath></defs></svg><svg viewBox="0 0 20 18" id="home" xmlns="http://www.w3.org/2000/svg"><path d="M18.948 6.961L10.41.997a1.207 1.207 0 00-1.387 0L.487 6.96c-.52.375-.65 1.084-.26 1.585.39.5 1.126.626 1.647.25l.693-.459 1.17 8.55a1.158 1.158 0 001.17 1.002h9.664c.607 0 1.083-.417 1.17-1.001l1.17-8.55.694.458c.216.125.433.209.693.209.347 0 .737-.167.953-.459.346-.5.216-1.251-.303-1.585zm-6.76 8.968c0 .375-.304.667-.694.667H8.027c-.39 0-.693-.292-.693-.668v-5.255c0-.375.303-.667.693-.667h3.467c.39 0 .693.292.693.667v5.255z"/></svg><svg viewBox="0 0 19 22" id="home-location" xmlns="http://www.w3.org/2000/svg"><path d="M18.378 9.094A8.877 8.877 0 009.5.216 8.877 8.877 0 00.623 9.094c0 4.47 3.326 8.186 7.624 8.79.281 2.096.735 3.5 1.253 3.5.519 0 .972-1.404 1.253-3.5 4.298-.626 7.625-4.32 7.625-8.79zM9.5 16.027c-3.823 0-6.955-3.11-6.955-6.955 0-3.802 3.132-6.934 6.955-6.934s6.955 3.11 6.955 6.956c0 3.823-3.132 6.933-6.955 6.933z"/><path d="M14.101 7.862L9.846 4.774a.583.583 0 00-.691 0L4.899 7.862a.588.588 0 00.692.95l.345-.237.583 4.428c.044.303.281.519.584.519h4.816c.303 0 .54-.216.584-.519l.583-4.428.346.238a.653.653 0 00.345.108.603.603 0 00.475-.238c.173-.26.108-.648-.151-.82zm-3.37 4.644a.341.341 0 01-.345.346H8.658a.341.341 0 01-.346-.346V9.785c0-.195.151-.346.346-.346h1.728c.194 0 .345.151.345.346v2.721z"/></svg><svg viewBox="0 0 21 23" id="location" xmlns="http://www.w3.org/2000/svg"><path d="M20.035 9.767A9.535 9.535 0 0010.5.232 9.535 9.535 0 00.965 9.767c0 4.803 3.573 8.793 8.19 9.443.301 2.25.788 3.758 1.345 3.758.557 0 1.044-1.508 1.346-3.759 4.616-.672 8.19-4.64 8.19-9.442zM10.5 17.214c-4.106 0-7.47-3.34-7.47-7.47 0-4.083 3.364-7.447 7.47-7.447 4.107 0 7.47 3.34 7.47 7.47 0 4.107-3.363 7.447-7.47 7.447z"/><path d="M7.763 10.89c0 .207-.045.389-.137.546a1.003 1.003 0 01-.382.38 1.959 1.959 0 01-.575.208c-.216.046-.459.068-.728.068-.558 0-.977-.072-1.257-.215-.278-.144-.417-.313-.417-.51 0-.145.074-.272.222-.379.15-.107.343-.16.577-.16l.267.492c.13.034.26.051.393.051a.56.56 0 00.277-.065c.077-.043.116-.096.116-.157 0-.062-.03-.12-.089-.178a.862.862 0 00-.236-.154 6.522 6.522 0 00-.591-.226 2.619 2.619 0 01-.219-.085 1.803 1.803 0 01-.639-.471 1.013 1.013 0 01-.222-.66.8.8 0 01.164-.492c.11-.146.255-.262.438-.349.182-.089.382-.156.601-.201.221-.048.45-.072.684-.072.476 0 .853.078 1.131.236.28.157.42.33.42.52 0 .122-.064.224-.194.303-.128.08-.31.12-.547.12l-.222-.42c-.025-.028-.093-.053-.202-.076a1.42 1.42 0 00-.325-.037c-.248 0-.372.067-.372.201 0 .071.052.145.157.223.107.077.247.14.42.188.117.031.213.06.29.085.08.023.176.057.288.103.114.043.208.087.284.133.077.045.158.104.242.174a.91.91 0 01.205.23 1.198 1.198 0 01.178.646zm1.983-1.283c.066 0 .167.003.304.007.136.003.242.004.318.004.09 0 .152-.019.184-.055.034-.039.052-.103.052-.191 0-.167-.035-.294-.103-.383a.353.353 0 00-.297-.134c-.187 0-.31.06-.37.178-.059.116-.088.308-.088.574zm1.883 2.058c-.299.285-.782.427-1.45.427-.389 0-.744-.075-1.066-.225a1.864 1.864 0 01-.769-.674 1.854 1.854 0 01-.29-1.032c0-.597.192-1.063.577-1.398.385-.335.894-.502 1.525-.502.496 0 .909.133 1.237.4.328.266.51.59.547.97-.053.351-.477.535-1.275.55-.23.008-.516.01-.858.01.023.265.11.461.26.589a.85.85 0 00.557.188c.205 0 .412-.033.622-.1a2.08 2.08 0 00.554-.263c.077.035.116.102.116.202 0 .157-.032.325-.096.503-.061.175-.125.293-.191.355zm3.165-.677l-.41-.42c-.29.305-.434.462-.434.472 0 .038.017.069.051.092.036.02.075.035.116.044a.228.228 0 01.116.055.15.15 0 01.055.123c0 .463-.063.71-.188.742a5.989 5.989 0 00-.974-.096 2.794 2.794 0 00-.731.096c-.025 0-.046-.02-.062-.058a.727.727 0 01-.03-.178 14.912 14.912 0 01-.011-.209v-.253c0-.077.018-.135.055-.174a.23.23 0 01.126-.072.901.901 0 00.171-.054.45.45 0 00.164-.113l.438-.41c.232-.219.418-.392.557-.52a170.905 170.905 0 01-.424-.39 1.146 1.146 0 00-.12-.099 2.203 2.203 0 00-.383-.246.874.874 0 00-.235-.092.132.132 0 01-.093-.044c-.018-.025-.027-.076-.027-.15 0-.279.01-.466.027-.561a.342.342 0 01.113-.212c.492.061.91.092 1.255.092.403 0 .736-.032.998-.096.052.016.088.076.109.178.023.1.034.274.034.52 0 .057-.014.099-.04.126a.14.14 0 01-.083.048.143.143 0 00-.085.04c-.025.024-.038.061-.038.114a.18.18 0 00.024.034l.362.403c.301-.326.451-.495.451-.51 0-.038-.014-.062-.044-.07a.176.176 0 00-.092-.011.135.135 0 01-.093-.02c-.027-.021-.04-.058-.04-.11 0-.463.062-.71.187-.742.303.064.56.096.77.096.18 0 .348-.03.505-.092.003-.003.01-.004.02-.004.026 0 .045.02.059.058a.556.556 0 01.03.178 6.67 6.67 0 01.014.461c0 .078-.018.136-.054.175a.23.23 0 01-.127.072.905.905 0 00-.17.054.449.449 0 00-.165.113c-.232.233-.468.474-.707.725.46.43.707.66.741.69.094.08.18.146.26.198.082.053.14.085.174.096a.326.326 0 01.09.045c.027.018.043.04.047.065a3.656 3.656 0 01-.02.694.341.341 0 01-.113.211A7.896 7.896 0 0015.836 12c-.446 0-.816.032-1.11.096-.053-.018-.09-.082-.113-.192a3.644 3.644 0 01-.031-.574c0-.057.01-.099.03-.126.024-.03.049-.047.076-.052a.116.116 0 00.072-.044c.023-.027.034-.067.034-.12z"/></svg><svg viewBox="0 0 247 45" id="logo" xmlns="http://www.w3.org/2000/svg"><path d="M78.52 9.16V8.8h6.408v.36h-1.764v24.48h1.764V34H78.52v-.36h1.656V9.16H78.52zM90.269 34H89.8V8.8h1.224L106 32.092V8.8h.468V34h-2.628L90.269 13.12V34zm28.828 0h-2.988V9.16h-6.228V8.8h15.48v.36h-6.264V34zm9.872-24.84V8.8h6.408v.36h-1.764v24.48h1.764V34h-6.408v-.36h1.656V9.16h-1.656zM140.718 34h-.468l3.132-25.2h1.188l7.56 23.292L159.654 8.8h1.188l3.132 25.2h-2.988l-2.484-20.16L151.986 34h-2.268l-6.588-19.908L140.718 34zm27.43-10.548h10.872v.288h-10.872v-.288zm15.278-14.364c2.784-.192 5.244-.288 7.38-.288 5.928 0 8.892 1.98 8.892 5.94 0 1.488-.432 2.772-1.296 3.852-.864 1.056-2.244 1.776-4.14 2.16 1.824.216 3.264.768 4.32 1.656 1.056.888 1.584 2.436 1.584 4.644 0 4.632-2.964 6.948-8.892 6.948h-7.848V9.088zm2.988 24.552h4.86c2.136 0 3.648-.552 4.536-1.656.912-1.128 1.368-2.844 1.368-5.148s-.456-3.84-1.368-4.608c-.912-.768-2.268-1.176-4.068-1.224h-5.328V33.64zm4.392-24.48c-1.392 0-2.856.084-4.392.252v11.232h5.328c3.384-.144 5.076-2.088 5.076-5.832 0-1.824-.504-3.216-1.512-4.176-1.008-.984-2.508-1.476-4.5-1.476zm12.432 12.852c0-4.368 1.056-7.68 3.168-9.936 2.136-2.28 4.872-3.42 8.208-3.42 3.336 0 5.988.984 7.956 2.952 1.992 1.968 2.988 5.112 2.988 9.432s-1.056 7.584-3.168 9.792-4.932 3.312-8.46 3.312c-3.048 0-5.544-.876-7.488-2.628-1.008-.912-1.8-2.172-2.376-3.78-.552-1.632-.828-3.54-.828-5.724zm11.268-12.996c-2.424 0-4.416 1.08-5.976 3.24-1.536 2.16-2.304 5.328-2.304 9.504 0 4.176.732 7.224 2.196 9.144 1.464 1.92 3.408 2.88 5.832 2.88 2.448 0 4.44-1.08 5.976-3.24 1.56-2.184 2.34-5.34 2.34-9.468 0-4.152-.744-7.2-2.232-9.144-1.464-1.944-3.408-2.916-5.832-2.916zM228.805 34h-.468l6.516-12.888L227.725 8.8h3.024l6.192 10.656 5.4-10.656h.432l-5.58 11.088L245.401 34h-3.024l-7.272-12.492-6.3 12.492zM60.32 0H3.654A3.638 3.638 0 000 3.653V36.21a3.638 3.638 0 003.653 3.653h38.239v-2.436H20.459c.65-1.217 1.055-2.598 1.055-3.977 0-2.193-.893-5.034-2.273-7.307a9.434 9.434 0 003.41.65c.324 0 .73 0 1.055-.081.081 0 .244 0 .325-.081.243 0 .487-.081.73-.163.163 0 .244-.08.407-.08.243-.082.405-.082.65-.163.162-.081.243-.081.324-.163.243-.08.406-.162.65-.243.08-.081.243-.081.324-.163.243-.08.406-.243.65-.324.08-.081.162-.081.243-.163.243-.162.487-.324.73-.569 0 0 .081 0 .081-.08.487-.406.974-.813 1.38-1.3h3.41c1.867 2.193 4.628 3.491 7.47 3.491h.891c.407-3.004 2.923-5.358 6.09-5.358.65 0 1.217.08 1.867.324.812-1.46 1.299-3.085 1.299-4.79 0-.974-.163-1.867-.406-2.679-.163-.568-.244-1.055-.487-1.542a.632.632 0 00-.325-.325c-1.055-2.03-2.76-3.653-4.222-5.196-1.623-1.623-3.085-3.085-3.653-4.709H60.32c.65 0 1.217.569 1.217 1.218v24.518l2.436 1.38V3.571C63.974 1.625 62.351 0 60.321 0zM20.297 33.45c0 1.46-.406 2.841-1.217 3.978H3.653c-.65 0-1.217-.569-1.217-1.218V3.654c0-.65.568-1.218 1.217-1.218H21.92c-.406 2.11-2.03 3.329-3.735 4.79-2.11 1.705-4.465 3.653-5.195 7.307v.162c-.082.243-.082.487-.082.812v.244c0 .324-.08.73-.08 1.055 0 3.49 1.786 6.495 4.546 8.281 0 .163 0 .325.08.406 1.706 2.354 2.843 5.52 2.843 7.956zm10.798-11.366c.325-.569.65-1.137.893-1.786.244.65.487 1.217.893 1.786h-1.786zm13.72-14.046c1.3 1.3 2.68 2.68 3.654 4.222-4.547.081-12.584 1.3-14.857 8.768-.73-1.217-1.056-2.679-1.056-4.222v-.08c.406-2.355 1.461-4.304 2.923-5.603.243-.243.243-.65.08-.893-.243-.243-.649-.243-.892-.08-1.218 1.055-2.192 2.598-2.76 4.302a10.367 10.367 0 00-2.76-4.303c-.244-.243-.65-.243-.894.081-.243.244-.243.65.081.893 1.461 1.3 2.517 3.33 2.923 5.602 0 .081.081.163.081.244 0 1.543-.487 2.923-1.137 4.14-2.273-7.794-10.554-8.93-15.1-8.93.974-1.706 2.436-2.923 3.816-4.06 1.867-1.542 3.815-3.085 4.221-5.764h17.618c.568 2.11 2.273 3.816 4.06 5.683z"/><path d="M62.107 32.799l-12.828-7.388a2.291 2.291 0 00-1.217-.325c-1.3 0-2.436 1.056-2.436 2.436V42.38c0 1.461 1.137 2.436 2.436 2.436.406 0 .812-.081 1.218-.325l12.827-7.47c1.623-.892 1.623-3.247 0-4.22v-.001z"/></svg><svg viewBox="0 0 24 24" id="mail" xmlns="http://www.w3.org/2000/svg"><path d="M20 4H4c-1.1 0-1.99.9-1.99 2L2 18c0 1.1.9 2 2 2h16c1.1 0 2-.9 2-2V6c0-1.1-.9-2-2-2zm0 4l-8 5-8-5V6l8 5 8-5v2z"/></svg><svg viewBox="0 0 20 20" id="map" xmlns="http://www.w3.org/2000/svg"><path d="M10 .8a5.04 5.04 0 00-5.04 5.04c0 1.088.352 2.336.944 3.168L10 15.2l4.096-6.192c.592-.832.944-2.064.944-3.168A5.04 5.04 0 0010 .8zm0 6.96a1.926 1.926 0 01-1.92-1.92c0-1.056.864-1.92 1.92-1.92s1.92.864 1.92 1.92-.864 1.92-1.92 1.92z"/></svg><svg viewBox="0 0 21 18" id="massage" xmlns="http://www.w3.org/2000/svg"><path d="M20.25.19l-6.56 4.195-4.374-1.284a1.474 1.474 0 00-.953-.007L3.085 5.086c-.592.224-.703.734-.538 1.168.16.428.739.67 1.17.506l3.044-1.15c-.03-.205-.023-.555.063-.753.252-.566 1.02-.808 1.586-.562l2.078.908-.138.363-2.078-.908a.837.837 0 00-1.09.429.828.828 0 00-.06.396.86.86 0 00.131.394c.091.131.214.232.359.293l3.794 1.651s.313.132.629.186c.343.058.752-.087.752-.087l7.463-3.363V.19zM16.172 10.839c-3.106-.475-4.713-2.374-9.105-2.968-2.413-.326-4.825.244-6.51.823v9.147H20.25v-6.997c-1.22.139-2.7.205-4.077-.005z"/></svg><svg viewBox="0 0 25 25" id="metro" xmlns="http://www.w3.org/2000/svg"><path d="M15.66 5.76l-3.1 6.4-3.06-6.4-2.54 7.72h-.44v.86H9.1v-.82h-.4l1.26-3.46 2.28 4.28h.62l2.28-4.32 1.28 3.46h-.46v.86h2.64v-.86h-.46l-2.48-7.72z"/><path d="M12.5 2.4c-2.42 0-4.7.96-6.4 2.68-1.68 1.72-2.6 3.98-2.58 6.36 0 2.08.74 4.12 2.08 5.74.08.1.18.14.3.14h2.64c2.02 0 4.62.02 6.78.02 1.76 0 3.24 0 3.9-.02.12 0 .22-.06.3-.16a9.091 9.091 0 002.02-5.74c0-4.96-4.06-9.02-9.04-9.02zM19 16.52c-1.72.04-7.18.02-10.48 0H6.08a8.204 8.204 0 01.6-10.88C8.24 4.08 10.3 3.2 12.5 3.2c4.54 0 8.24 3.7 8.24 8.24 0 1.86-.6 3.62-1.74 5.08z"/></svg><svg viewBox="0 0 31 31" id="mint" xmlns="http://www.w3.org/2000/svg"><g clip-path="url(#atclip0_55_619)"><path d="M11.81 5.52a2.14 2.14 0 00.123.182c.063.081.132.158.207.23l.036.033a2.297 2.297 0 003.07.067.388.388 0 01.508 0 2.299 2.299 0 003.092-.085l.005-.004c.078-.075.15-.155.216-.241l.03-.04.015-.02a3.8 3.8 0 00.08-.122l.001-.004c.297-.525.319-1.16.06-1.704C18.727 2.666 17.311 0 15.5 0c-1.69 0-3.037 2.322-3.635 3.563-.04.085-.08.168-.116.248-.02.044-.036.09-.053.135a1.84 1.84 0 00.051 1.452c.02.04.039.082.062.122zm.642-1.386c.328-.715 1.417-2.896 2.66-3.295v.71a.388.388 0 00.776 0V.84c1.243.399 2.332 2.58 2.66 3.295.154.314.145.684-.023.99a1.128 1.128 0 01-.062.094 1.524 1.524 0 01-2.308.125.9.9 0 00-1.31 0 1.524 1.524 0 01-2.307-.125c0-.002-.002-.004-.004-.006a.829.829 0 01-.058-.088 1.072 1.072 0 01-.024-.99zM14.764 24.503a3.834 3.834 0 01-1.22-2.803.388.388 0 01.774 0c.003.97.462 1.881 1.24 2.46a4.11 4.11 0 002.207.64c.03 0 .058-.004.09-.004h.009l.017-.002a4.125 4.125 0 002.883-1.28 4.084 4.084 0 00-.164-5.802 3.83 3.83 0 00-2-1.058v-9.6a3.086 3.086 0 01-3.1-.24 3.082 3.082 0 01-3.1.239v8.85c.417-.088 1.523-.47 1.872-2.052a.368.368 0 01.719.157c-.415 1.89-1.818 2.54-2.59 2.64v.003c-.839.154-1.601.586-2.165 1.226a4.08 4.08 0 00.165 5.799 4.127 4.127 0 004.363.827z"/></g><defs><clipPath id="atclip0_55_619"><path d="M0 0h31v31H0z"/></clipPath></defs></svg><svg viewBox="0 0 20 10" id="new" xmlns="http://www.w3.org/2000/svg"><path d="M18.95 8.606l-2.178-3.678L18.928 1.4a.555.555 0 00-.472-.844H1.11A1.111 1.111 0 000 1.666v6.667a1.111 1.111 0 001.111 1.111h17.361a.556.556 0 00.478-.838zM5.839 6.766h-.622l-1.811-2.41v2.416h-.628V3.333h.628L5.222 5.75V3.333h.622L5.84 6.767zM9.356 3.89H7.394v.828h1.778v.555H7.394v.895h1.962v.555h-2.59V3.333H9.35l.006.556zm4.605 2.867h-.628l-.86-2.55-.862 2.56h-.622L9.878 3.334h.678l.733 2.461.844-2.46h.678l.811 2.46.74-2.46h.682l-1.083 3.422z"/></svg><svg viewBox="0 0 18 16" id="phone" xmlns="http://www.w3.org/2000/svg"><path d="M13.125 15.625C6.302 15.625.75 10.831.75 4.938c.003-1.011.43-1.987 1.203-2.746.773-.759 1.839-1.25 3-1.381.295-.028.594.025.852.154.258.128.462.323.583.558l1.727 3.481a1.037 1.037 0 01-.12 1.121L6.568 8.01c.646 1.132 1.71 2.046 3.025 2.598l2.157-1.24a1.53 1.53 0 011.298-.096l4.03 1.484c.272.104.499.28.647.503.149.223.21.481.178.737-.152 1.002-.72 1.922-1.599 2.59-.879.668-2.009 1.037-3.179 1.039zm-8-13.634c-.83.092-1.592.442-2.144.984-.552.543-.857 1.24-.856 1.963.002 2.518 1.162 4.934 3.224 6.715 2.063 1.781 4.86 2.783 7.776 2.784.836.001 1.644-.262 2.272-.739.628-.476 1.033-1.135 1.14-1.85l-4.03-1.485-2.15 1.24a1.564 1.564 0 01-1.35.082c-1.6-.67-2.895-1.783-3.677-3.163a1.05 1.05 0 01.086-1.165l1.436-1.885L5.124 1.99z"/></svg><svg viewBox="0 0 22 23" id="sado" xmlns="http://www.w3.org/2000/svg"><path d="M10.807 13.527l-.011-.008-.193-1.405c-.352-2.793-2.257-3.31-2.257-3.31H7.073v-.546a1.104 1.104 0 00-.638-2.009 1.107 1.107 0 00-.638 2.009v.545H4.443L2.39 10.45v1.361h-.735s-.043.03-.469.347c-.671.5-.185.52-.185.52h.877v.978l-.216.353-.553-.657c-.456-.362-.84.101-.84.101-.304.406-.101.695.247.978.347.282.175.521.175.521a5.347 5.347 0 00-.562 2.398c0 2.871 2.236 5.198 4.995 5.198h.615c.204.16.456.258.734.258.278 0 .53-.099.734-.258h.215c2.758 0 4.995-2.327 4.995-5.198a5.29 5.29 0 00-1.61-3.822zM6.435 6.72a.635.635 0 110 1.27.635.635 0 010-1.27zm.037 15.453a.569.569 0 110-1.138.569.569 0 010 1.138zm.95-1.513h-.216a1.191 1.191 0 00-.733-.256c-.279 0-.531.098-.734.256h-.616c-1.758 0-3.182-1.482-3.182-3.31 0-1.188.6-2.228 1.5-2.813h5.664l.013.01a3.342 3.342 0 011.485 2.802c0 1.829-1.425 3.311-3.182 3.311zM21.485 9.17c-.348-.282-.175-.522-.175-.522a5.348 5.348 0 00.562-2.398c0-2.87-2.236-5.198-4.995-5.198h-.616a1.191 1.191 0 00-.734-.257c-.277 0-.53.099-.734.257h-.215c-2.758 0-4.994 2.327-4.994 5.198 0 1.512.62 2.872 1.609 3.822l.01.01.194 1.403c.351 2.793 2.257 3.312 2.257 3.312h1.273v.544a1.106 1.106 0 101.277 0v-.544h1.353l2.053-1.647V11.79h.735s.043-.03.469-.347c.671-.5.185-.52.185-.52h-.877v-.978l.216-.352.553.656c.456.363.84-.1.84-.1.304-.406.101-.696-.246-.978zm-5.957-7.744a.569.569 0 110 1.138.569.569 0 010-1.138zm.037 15.454a.636.636 0 110-1.272.636.636 0 010 1.272zm2.993-7.818h-5.663l-.013-.01a3.341 3.341 0 01-1.485-2.802c0-1.828 1.424-3.311 3.182-3.311h.214c.204.158.457.257.734.257.278 0 .531-.1.734-.257h.616c1.758 0 3.182 1.483 3.182 3.311 0 1.186-.6 2.227-1.5 2.812z"/></svg><svg viewBox="0 0 21 21" id="search" xmlns="http://www.w3.org/2000/svg"><path d="M20.872 19.634l-6.1-6.1a8.27 8.27 0 001.853-5.221C16.625 3.729 12.896 0 8.312 0 3.73 0 0 3.729 0 8.313c0 4.583 3.729 8.312 8.313 8.312a8.27 8.27 0 005.221-1.854l6.1 6.1c.171.172.448.172.62 0l.618-.618a.438.438 0 000-.619zm-12.56-4.759A6.57 6.57 0 011.75 8.313 6.57 6.57 0 018.313 1.75a6.57 6.57 0 016.562 6.563 6.57 6.57 0 01-6.562 6.562z"/></svg><svg viewBox="0 0 29 32" id="sec" xmlns="http://www.w3.org/2000/svg"><path fill-rule="evenodd" clip-rule="evenodd" d="M14.033.205c.304-.096.63-.096.935 0L27.5 4.12c.654.205 1.1.81 1.1 1.496v8.617a14.1 14.1 0 01-5.64 11.28l-7.52 5.64a1.567 1.567 0 01-1.88 0l-7.52-5.64A14.1 14.1 0 01.4 14.234V5.617C.4 4.93.845 4.326 1.5 4.12L14.033.205zm6.37 11.898a1.567 1.567 0 10-2.406-2.006L13.77 15.17l-2.976-2.441a1.566 1.566 0 10-1.987 2.422l4.177 3.427a1.567 1.567 0 002.198-.208l5.222-6.267z"/></svg><svg viewBox="0 0 23 23" id="sex" xmlns="http://www.w3.org/2000/svg"><path d="M18.61 4.61l-2.15 2.15A6.958 6.958 0 0013.88 5.72 7 7 0 105.6 13.86v2.94H2.8v2.8h2.8v2.8h2.8v-2.8h2.8v-2.8H8.4v-2.94a7.005 7.005 0 005.415-5.28A4.198 4.198 0 0114 16.556v2.904a7.003 7.003 0 004.44-10.72l2.15-2.15L22.4 8.4V2.8h-5.6l1.81 1.81zM5.785 11.02A4.2 4.2 0 017 2.8a4.2 4.2 0 014.02 2.986 7.002 7.002 0 00-5.235 5.234z"/></svg><svg viewBox="0 0 23 20" id="show" xmlns="http://www.w3.org/2000/svg"><path d="M22.03.285l-7.086 4.53-4.723-1.386a1.592 1.592 0 00-1.03-.008L3.493 5.573c-.64.242-.76.792-.581 1.261.173.463.798.724 1.264.547L7.462 6.14c-.032-.221-.024-.6.068-.813.273-.612 1.102-.873 1.713-.608l2.245.981-.15.392-2.244-.98a.903.903 0 00-1.178.463.894.894 0 00-.064.427.93.93 0 00.142.426c.098.142.23.25.387.317l4.098 1.783s.338.142.679.2c.37.063.812-.094.812-.094l8.06-3.632V.285zM17.625 11.786c-3.354-.513-5.09-2.564-9.833-3.205-2.606-.352-5.21.263-7.03.889v9.878h21.267v-7.557c-1.318.15-2.916.222-4.404-.005z"/></svg><svg viewBox="0 0 39 28" id="size" xmlns="http://www.w3.org/2000/svg"><path d="M25.44 10.486a3.84 3.84 0 103.834-3.734 3.771 3.771 0 00-3.834 3.734zm6.455 0a2.622 2.622 0 11-2.621-2.515 2.576 2.576 0 012.621 2.515z"/><path d="M28.37 10.486a.911.911 0 10.904-.88.892.892 0 00-.905.88z"/><path d="M6.382 19.141c.408.817 2.394 5.029 1.646 7.839-.077.322.11.65.428.748h.157a.629.629 0 00.591-.453c.672-2.514-.459-5.808-1.22-7.587A9.593 9.593 0 0019.5 13.522a9.592 9.592 0 0011.515 6.185c-.76 1.779-1.886 5.028-1.22 7.587a.629.629 0 00.592.452h.157a.628.628 0 00.427-.748c-.748-2.803 1.257-7.02 1.647-7.838a9.943 9.943 0 005.739-9.058c0-2.816-1.119-4.575-2.307-6.436A20.904 20.904 0 0134.347.617a.63.63 0 10-1.12.471A21.962 21.962 0 0035.02 4.32c1.138 1.78 2.119 3.32 2.119 5.783a8.518 8.518 0 11-17.028 0 .63.63 0 00-1.22 0 8.618 8.618 0 01-8.517 8.7 8.611 8.611 0 01-8.511-8.7c0-2.457.98-4.004 2.118-5.783a21.957 21.957 0 001.792-3.23.628.628 0 10-1.12-.472A20.353 20.353 0 012.95 3.666C1.761 5.526.643 7.286.643 10.102a9.944 9.944 0 005.738 9.04z"/><path d="M5.885 10.486a3.84 3.84 0 103.84-3.734 3.773 3.773 0 00-3.84 3.734zm6.461 0a2.622 2.622 0 11-2.62-2.515 2.576 2.576 0 012.62 2.515z"/><path d="M10.63 10.486c0 .486-.405.88-.904.88a.893.893 0 01-.906-.88c0-.486.406-.88.906-.88s.905.394.905.88z"/></svg><svg viewBox="0 0 34 34" id="user" xmlns="http://www.w3.org/2000/svg"><path fill-rule="evenodd" clip-rule="evenodd" d="M3.415 24.476c-.389-5.77 6.734-5.802 10.657-8.259v-2.626c-4.594-3.453-2.367-11.826 2.96-11.826 5.198 0 7.464 8.388 2.825 11.826v2.626c4.252 2.536 11.117 2.383 10.669 8.259-.865 1.196-26.445 1.495-27.11 0z"/></svg><svg viewBox="0 0 18 17" id="verif" xmlns="http://www.w3.org/2000/svg"><path fill-rule="evenodd" clip-rule="evenodd" d="M9.364.714L10.4 1.896l1.549-.657c.25-.105.54.03.62.29l.472 1.523 1.679.03a.462.462 0 01.45.514l-.186 1.586 1.522.71c.23.108.33.382.222.613-.207.43-.583.984-.837 1.411l1.102 1.27a.463.463 0 01-.083.679l-1.302.92.49 1.608a.46.46 0 01-.353.586l-1.562.311-.205 1.667a.463.463 0 01-.594.387l-1.523-.346-.865 1.44a.462.462 0 01-.672.132l-1.28-.954-1.376.963a.46.46 0 01-.666-.154l-.779-1.39-1.65.32a.462.462 0 01-.55-.44l-.142-1.56-1.637-.378a.462.462 0 01-.334-.599l.513-1.51-1.341-1.012a.462.462 0 01-.035-.709l1.058-1.143-.814-1.47a.462.462 0 01.222-.649l1.463-.628-.145-1.675a.465.465 0 01.507-.5l1.554.02.547-1.588a.463.463 0 01.654-.259l1.425.658L8.663.685a.462.462 0 01.701.029zM5.218 8.776c-.613-.613.319-1.545.932-.932l2.064 2.064 3.614-4.007c.579-.642 1.557.238.979.881l-4.058 4.497a.66.66 0 01-.977.05L5.218 8.777z"/></svg><svg viewBox="0 0 14 14" id="verif2" xmlns="http://www.w3.org/2000/svg"><g clip-path="url(#beclip0_141_227)"><path d="M10.094 4.779a.547.547 0 010 .773l-3.668 3.67a.547.547 0 01-.774 0L3.906 7.474a.547.547 0 11.773-.774l1.36 1.36L9.32 4.78a.547.547 0 01.773 0zM14 7c0 3.87-3.131 7-7 7-3.87 0-7-3.131-7-7 0-3.87 3.131-7 7-7 3.87 0 7 3.131 7 7zm-1.094 0A5.903 5.903 0 007 1.094 5.903 5.903 0 001.094 7 5.903 5.903 0 007 12.906 5.903 5.903 0 0012.906 7z"/></g><defs><clipPath id="beclip0_141_227"><path d="M0 0h14v14H0z"/></clipPath></defs></svg><svg viewBox="0 0 35 36" id="weight" xmlns="http://www.w3.org/2000/svg"><path d="M.656 18.325a6.131 6.131 0 006.148 5.942c4.844 0 6.807-5.27 6.052-6.284L8.01 7.916c.385-.361.61-.879.552-1.466l5.919-2.1a3.098 3.098 0 001.365 1.783v22.094a7.115 7.115 0 00-5.465 6.352H8.057a.537.537 0 100 1.075h18.831a.537.537 0 100-1.075H24.56c-.246-3.077-2.457-5.66-5.462-6.352V6.133a3.095 3.095 0 001.367-1.782l5.917 2.098c-.058.595.168 1.111.55 1.469-6.446 13.405-4.566 9.413-4.894 10.179a.605.605 0 00-.04.197c0 .01-.006.02-.006.03a6.131 6.131 0 006.148 5.942c4.864 0 6.786-5.297 6.052-6.283L29.349 7.917a1.76 1.76 0 00.303-2.214c.698-.83 1.658-1.285 1.186-1.756a.403.403 0 00-.57 0l-1.18 1.18a1.751 1.751 0 00-2.447.559l-6.047-2.144c0-.026.003-.046.003-.074a3.125 3.125 0 00-6.25 0c0 .028.003.048.003.074L8.303 5.686a1.767 1.767 0 00-1.499-.842c-.336 0-.663.102-.947.283l-1.18-1.18a.403.403 0 10-.57.57l1.185 1.185a1.757 1.757 0 00.305 2.213L.71 18.07a.86.86 0 00-.054.254zm6.148 4.867a5.058 5.058 0 01-5.025-4.349h10.05a5.058 5.058 0 01-5.025 4.349zM18.292 6.485v21.598a7.05 7.05 0 00-1.639 0V6.484a3.112 3.112 0 001.64 0zm5.196 28.094h-12.03a6.047 6.047 0 014.899-5.368 5.833 5.833 0 012.24.002c2.657.493 4.64 2.706 4.891 5.366zm4.653-11.386a5.058 5.058 0 01-5.025-4.349h10.05a5.058 5.058 0 01-5.025 4.349zm-4.755-5.426l4.517-9.387c.157.022.319.022.476 0l4.516 9.387h-9.509zM28.141 5.92c.398 0 .699.329.699.704 0 .922-1.398.924-1.398 0 0-.076.31-.704.699-.704zM17.475 1.153a2.318 2.318 0 012.316 2.316c0 .092-.003.185-.024.3-.332 2.687-4.256 2.684-4.593-.027a1.474 1.474 0 01-.02-.273 2.321 2.321 0 012.321-2.316zM6.653 7.304c-.823-.184-.66-1.385.151-1.385 1.02 0 .861 1.61-.151 1.385zM6.566 8.38c.157.022.319.022.476 0l4.517 9.387h-9.51L6.566 8.38z"/></svg></svg>