<svg width="8" height="5" viewBox="0 0 8 5" fill="none" xmlns="http://www.w3.org/2000/svg">
<path d="M7.30001 1.70001L4.70001 4.30001C4.60001 4.40001 4.49168 4.47501 4.37501 4.52501C4.25835 4.57501 4.13335 4.60001 4.00001 4.60001C3.86668 4.60001 3.74168 4.57501 3.62501 4.52501C3.50835 4.47501 3.40001 4.40001 3.30001 4.30001L0.700012 1.70001C0.383345 1.38334 0.312679 1.02101 0.488012 0.613006C0.662679 0.204339 0.975012 5.72205e-06 1.42501 5.72205e-06H6.57501C7.02501 5.72205e-06 7.33735 0.204339 7.51201 0.613006C7.68735 1.02101 7.61668 1.38334 7.30001 1.70001Z" fill="white"/>
</svg>
