<svg width="19" height="18" viewBox="0 0 19 18" fill="none" xmlns="http://www.w3.org/2000/svg">
<path d="M9.50016 13.125C10.4897 13.125 11.331 12.797 12.024 12.141C12.7164 11.4845 13.0627 10.6875 13.0627 9.75C13.0627 8.8125 12.7164 8.0155 12.024 7.359C11.331 6.703 10.4897 6.375 9.50016 6.375C8.51058 6.375 7.6693 6.703 6.97633 7.359C6.28389 8.0155 5.93766 8.8125 5.93766 9.75C5.93766 10.6875 6.28389 11.4845 6.97633 12.141C7.6693 12.797 8.51058 13.125 9.50016 13.125ZM3.16683 15.75C2.73141 15.75 2.3588 15.6033 2.049 15.3097C1.73866 15.0157 1.5835 14.6625 1.5835 14.25V5.25C1.5835 4.8375 1.73866 4.4845 2.049 4.191C2.3588 3.897 2.73141 3.75 3.16683 3.75H5.66058L6.65016 2.7375C6.7953 2.575 6.97 2.453 7.17425 2.3715C7.37902 2.2905 7.59357 2.25 7.81787 2.25H11.1825C11.4068 2.25 11.6213 2.2905 11.8261 2.3715C12.0303 2.453 12.205 2.575 12.3502 2.7375L13.3397 3.75H15.8335C16.2689 3.75 16.6418 3.897 16.9521 4.191C17.2619 4.4845 17.4168 4.8375 17.4168 5.25V14.25C17.4168 14.6625 17.2619 15.0157 16.9521 15.3097C16.6418 15.6033 16.2689 15.75 15.8335 15.75H3.16683Z" fill="white"/>
</svg>
