<svg width="34" height="34" viewBox="0 0 34 34" fill="none" xmlns="http://www.w3.org/2000/svg">
<g clip-path="url(#clip0_141_241)">
<path d="M29.0282 4.97991C22.399 -1.64923 11.6092 -1.64923 4.98005 4.97991C1.76888 8.19234 0 12.4625 0 17.0039C0 21.5454 1.76888 25.8155 4.98005 29.0267C8.29529 32.3419 12.6497 33.9989 17.0041 33.9989C21.3585 33.9989 25.713 32.3419 29.0281 29.0267C35.6573 22.3976 35.6573 11.6103 29.0282 4.97991ZM27.1657 27.1643C21.5627 32.7673 12.4455 32.7673 6.84243 27.1643C4.12918 24.451 2.63423 20.8421 2.63423 17.0039C2.63423 13.1658 4.12918 9.55687 6.84243 6.84229C12.4455 1.23921 21.5627 1.24054 27.1657 6.84229C32.7675 12.4454 32.7675 21.5625 27.1657 27.1643Z" fill="#4926E8"/>
<path d="M22.6794 20.6411L18.9506 16.9176L22.6794 13.1941C23.1931 12.6804 23.1931 11.8467 22.6808 11.3316C22.1658 10.8153 21.332 10.8166 20.8171 11.3303L17.0857 15.0564L13.3543 11.3303C12.8393 10.8166 12.0055 10.8153 11.4905 11.3316C10.9769 11.8466 10.9769 12.6803 11.4919 13.1941L15.2207 16.9176L11.4919 20.6411C10.9769 21.1547 10.9769 21.9885 11.4905 22.5035C11.7474 22.7616 12.0859 22.8894 12.4231 22.8894C12.7603 22.8894 13.0975 22.7603 13.3543 22.5048L17.0857 18.7786L20.8171 22.5048C21.074 22.7616 21.4111 22.8894 21.7484 22.8894C22.0856 22.8894 22.424 22.7603 22.6809 22.5035C23.1944 21.9885 23.1944 21.1547 22.6794 20.6411Z" fill="#4926E8"/>
</g>
<defs>
<clipPath id="clip0_141_241">
<rect width="34" height="34" fill="white"/>
</clipPath>
</defs>
</svg>
