<svg width="35" height="28" viewBox="0 0 35 28" fill="none" xmlns="http://www.w3.org/2000/svg">
<path d="M17.3918 0.636719C7.85182 0.636719 0.111816 6.63519 0.111816 14.0687C0.111816 16.9391 1.29982 19.6255 3.27988 21.7967L0.651945 26.7649C0.291842 27.4271 0.939977 28.1264 1.62401 27.8689L7.95995 25.256C10.6599 26.6175 13.936 27.4271 17.3919 27.4271C26.9319 27.4271 34.672 21.4287 34.672 13.9951C34.672 6.56152 26.9319 0.636719 17.3919 0.636719H17.3918ZM26.2118 11.7135L22.3959 15.4303C22.2879 15.5406 22.2158 15.7247 22.2158 15.9087L23.1158 21.4655C23.2238 21.9439 22.7557 22.3118 22.2879 22.0174L17.3919 19.5151C17.2118 19.4047 17.0318 19.4047 16.852 19.5151L12.2081 22.0174C11.848 22.2014 11.3081 21.907 11.3802 21.4655L12.2802 15.9822C12.2802 15.7981 12.2802 15.6141 12.1001 15.5037L8.13982 11.787C7.95977 11.4189 8.13982 10.7566 8.60789 10.7566L13.972 9.83659C14.152 9.83659 14.3321 9.65254 14.3321 9.54216L16.7799 4.57429C16.96 4.20618 17.6079 4.20618 17.7879 4.57429L20.2358 9.57909C20.3438 9.76314 20.5238 9.87352 20.5959 9.87352L25.96 10.7935C26.3919 10.8669 26.5719 11.4191 26.2118 11.7135H26.2118Z" fill="#4926E8"/>
</svg>
