<svg width="21" height="16" viewBox="0 0 21 16" fill="none" xmlns="http://www.w3.org/2000/svg">
<path fill-rule="evenodd" clip-rule="evenodd" d="M5.80195 10.8525C6.1048 10.8525 6.32267 11.1117 6.32267 11.4133C6.32267 11.7177 6.10465 11.9771 5.80195 11.9771C5.45586 11.9771 5.23966 11.7177 5.23966 11.4133C5.23981 11.1117 5.45602 10.8525 5.80195 10.8525ZM16.5834 15.3122H4.41647L4.15686 13.8835H16.8426L16.5834 15.3122ZM4.0269 13.1018L2.55486 4.96364L7.36047 9.6385L10.5212 3.14577L13.6819 9.6385L18.4876 4.96364L17.0155 13.1018H4.0269ZM15.2408 10.8527C15.5436 10.8527 15.8032 11.1118 15.8032 11.4134C15.8032 11.7178 15.5436 11.9772 15.2408 11.9772C14.9382 11.9772 14.6783 11.7178 14.6783 11.4134C14.6785 11.1118 14.9381 10.8527 15.2408 10.8527ZM10.5216 0.287552C11.2154 0.287552 11.7774 0.850463 11.7774 1.54324C11.7774 2.23633 11.2151 2.79863 10.5216 2.79863C9.82954 2.79863 9.26571 2.23633 9.26571 1.54324C9.26556 0.850463 9.8295 0.287552 10.5216 0.287552ZM1.86304 2.62548C2.46842 2.62548 2.94454 3.10203 2.94454 3.7076C2.94454 4.31391 2.46842 4.79061 1.86304 4.79061C1.29893 4.79046 0.780029 4.31406 0.780029 3.7076C0.780029 3.10207 1.29893 2.62548 1.86304 2.62548ZM19.1369 2.62548C19.7437 2.62548 20.2199 3.10203 20.2199 3.7076C20.2199 4.31391 19.7437 4.79061 19.1369 4.79061C18.5744 4.79061 18.0986 4.31391 18.0986 3.7076C18.0988 3.10207 18.5744 2.62548 19.1369 2.62548ZM10.5216 10.2021C10.9974 10.2021 11.3884 10.5931 11.3884 11.0674C11.3884 11.5893 10.9974 11.9771 10.5216 11.9771C10.0459 11.9771 9.61331 11.5891 9.61331 11.0674C9.61331 10.5931 10.0457 10.2021 10.5216 10.2021Z" fill="#4926E8"/>
</svg>
