<svg width="26" height="21" viewBox="0 0 26 21" fill="none" xmlns="http://www.w3.org/2000/svg">
<path d="M24.9325 9.93366C25.6366 8.70004 25.7801 7.22429 25.327 5.87814C24.1247 2.29051 21.3067 0.536251 17.3929 0.902966C15.671 1.07164 14.3355 1.8061 13.0408 2.51588C11.096 3.59033 9.26263 4.61581 6.04501 3.81876C5.32154 3.64193 4.68501 3.78347 4.27157 4.20771C4.09076 4.40655 3.96629 4.64997 3.91089 4.91296C3.8553 5.17594 3.87086 5.44895 3.95605 5.70376C4.07444 6.32664 4.08545 6.96491 3.98868 7.59139C3.90975 8.24424 2.96601 9.80556 1.73924 10.9995C0.577899 12.1283 0.158971 13.4775 0.558713 14.8075C0.678432 15.2019 1.12185 16.1946 2.58239 16.5945V16.5947C2.94383 17.7636 3.66976 18.7865 4.65372 19.5136C5.63788 20.2408 6.8288 20.6343 8.05241 20.6366C8.58971 20.6357 9.12438 20.5598 9.64084 20.4108L9.75241 20.3782C10.5521 20.1441 11.2866 19.728 11.8985 19.1624C11.9664 19.1026 12.3582 18.7027 12.3909 18.6647V18.6645C12.6034 18.4111 12.8005 18.1449 12.9811 17.8677C13.3972 17.253 13.8298 16.6192 14.469 16.4369C15.2061 16.2248 16.245 16.5919 17.0829 16.8885C17.3305 16.9756 17.5671 17.0598 17.7792 17.1224C17.8282 17.1361 18.3721 17.2693 18.4592 17.2829H18.459C19.2776 17.4395 20.1211 17.404 20.9235 17.1795L21.035 17.1469C22.4952 16.7255 23.729 15.7429 24.4662 14.4138C25.2035 13.0847 25.3839 11.5177 24.968 10.0558C24.968 10.0095 24.9435 9.97422 24.9327 9.93343L24.9325 9.93366ZM23.6404 13.7742C23.6723 13.7915 23.696 13.8207 23.7061 13.8554C23.7163 13.8901 23.7124 13.9275 23.6949 13.9592C23.6044 14.1229 23.5054 14.2817 23.3985 14.4352C23.3788 14.4669 23.3469 14.4891 23.3105 14.4967C23.2739 14.5043 23.2359 14.4965 23.2052 14.4751C23.1747 14.4538 23.1542 14.421 23.1485 14.384C23.1428 14.3472 23.1526 14.3096 23.1754 14.2802C23.2737 14.1343 23.3646 13.9837 23.4475 13.8287C23.4646 13.7945 23.4953 13.7693 23.5319 13.7588C23.5687 13.7486 23.6082 13.7541 23.6404 13.7742ZM23.0394 14.68C23.0671 14.7037 23.084 14.7374 23.0866 14.7737C23.0891 14.8099 23.0771 14.8458 23.053 14.8731C22.9307 15.015 22.8009 15.1503 22.6641 15.2784C22.6085 15.3233 22.5277 15.3177 22.4789 15.2655C22.4301 15.2131 22.4301 15.1321 22.4791 15.0797C22.6081 14.9585 22.7307 14.8306 22.8462 14.6963C22.8696 14.6682 22.9032 14.6507 22.9394 14.6477C22.9758 14.6447 23.0117 14.6563 23.0394 14.68L23.0394 14.68ZM22.2478 15.4523C22.293 15.5125 22.2808 15.5977 22.2207 15.6428C22.0702 15.7548 21.9131 15.8574 21.7501 15.9502C21.7186 15.9703 21.6803 15.9766 21.6441 15.9675C21.6078 15.9584 21.5769 15.9348 21.5585 15.9022C21.5401 15.8698 21.5359 15.831 21.5471 15.7954C21.5581 15.7597 21.5834 15.7301 21.6168 15.7136C21.7703 15.6265 21.9184 15.5303 22.0602 15.4252C22.1197 15.382 22.203 15.3941 22.2478 15.4523L22.2478 15.4523ZM21.3149 16.0181C21.3284 16.0517 21.3278 16.0893 21.3136 16.1223C21.2992 16.1555 21.2724 16.1817 21.2388 16.1949C21.0622 16.2651 20.8802 16.3217 20.6949 16.3636H20.6649C20.5897 16.372 20.5222 16.3177 20.5139 16.2426C20.5057 16.1674 20.5598 16.0999 20.6349 16.0915C20.8136 16.0559 20.9891 16.006 21.1599 15.942C21.2275 15.9193 21.3009 15.9526 21.3286 16.0181H21.3149ZM19.1715 16.2902C19.1633 16.3589 19.1047 16.4103 19.0356 16.4099H19.0193C18.8398 16.3881 18.6603 16.3583 18.4754 16.3202H18.4752C18.4 16.3057 18.3509 16.2333 18.3651 16.1583C18.3794 16.0832 18.4518 16.0338 18.527 16.0481C18.7093 16.0834 18.8833 16.1134 19.0575 16.1323H19.0573C19.0939 16.1344 19.1281 16.1513 19.1521 16.1788C19.1762 16.2065 19.1882 16.2427 19.1852 16.2794L19.1715 16.2902ZM13.7699 15.6075C13.6158 15.6735 13.4741 15.7656 13.3509 15.8794C13.3236 15.9029 13.2879 15.9145 13.2521 15.9117C13.216 15.9088 13.1826 15.8919 13.1593 15.8644C13.1103 15.8073 13.1172 15.7215 13.1743 15.6728C13.3211 15.5409 13.4894 15.435 13.6719 15.3599C13.7401 15.3392 13.8125 15.3745 13.8383 15.4409C13.864 15.5073 13.8342 15.5823 13.7698 15.6128L13.7699 15.6075ZM12.3201 17.1062L12.2901 17.147L11.9938 17.5467C11.9486 17.6069 11.8634 17.619 11.8033 17.5741C11.7431 17.5289 11.731 17.4437 11.7761 17.3836L12.0698 16.9838L12.0998 16.943C12.1211 16.9138 12.1531 16.8941 12.1888 16.8886C12.2245 16.8829 12.2609 16.8918 12.2901 16.913C12.351 16.9572 12.3645 17.0426 12.3201 17.1033L12.3201 17.1062ZM11.6401 17.7943C11.6983 17.841 11.7082 17.926 11.6619 17.9846C11.545 18.1288 11.428 18.273 11.3056 18.4089V18.4091C11.2523 18.4668 11.1622 18.4705 11.1043 18.4172C11.0464 18.3639 11.0428 18.2738 11.0961 18.2159C11.2159 18.0827 11.3301 17.9439 11.4443 17.8025C11.4688 17.7748 11.5035 17.7583 11.5405 17.7568C11.5773 17.7551 11.6134 17.7687 11.6401 17.7943L11.6401 17.7943ZM10.922 18.6104C10.9478 18.6358 10.9622 18.6705 10.9622 18.7068C10.9622 18.7432 10.9478 18.7779 10.922 18.8033C10.7854 18.932 10.641 19.0519 10.4896 19.1625C10.4604 19.1838 10.4239 19.1925 10.3881 19.187C10.3524 19.1813 10.3205 19.1618 10.2991 19.1325C10.2549 19.0716 10.2682 18.9864 10.3291 18.9422C10.4719 18.8383 10.6082 18.7256 10.737 18.6049C10.7922 18.5618 10.8711 18.5677 10.9193 18.6185L10.922 18.6104ZM10.0596 19.2767H10.0598C10.0758 19.3092 10.078 19.3466 10.0663 19.3809C10.0545 19.4151 10.0297 19.4431 9.99721 19.4589C9.82361 19.5445 9.64108 19.611 9.45326 19.6575H9.42062C9.34549 19.6664 9.27738 19.6129 9.26827 19.5378C9.25935 19.4627 9.31286 19.3946 9.38799 19.3855C9.55533 19.343 9.71756 19.2828 9.87219 19.206C9.90634 19.1908 9.94523 19.1904 9.97957 19.2048C10.0141 19.2193 10.041 19.2471 10.0543 19.2822L10.0596 19.2767ZM7.93254 19.6494H7.93273C7.92837 19.7213 7.86879 19.7773 7.79669 19.7773C7.61436 19.7645 7.43279 19.7427 7.25274 19.712C7.17761 19.6991 7.12714 19.6279 7.13985 19.5528C7.15256 19.4777 7.22391 19.4272 7.29904 19.4399C7.47378 19.4697 7.64985 19.4906 7.82667 19.5025C7.8944 19.5198 7.93785 19.5856 7.92722 19.6549L7.93254 19.6494ZM23.5944 9.31338H23.5946C23.5314 9.35379 23.4476 9.33558 23.4069 9.27258C23.3119 9.12478 23.2064 8.98381 23.0914 8.851C23.0457 8.79427 23.0527 8.71173 23.1074 8.66354C23.162 8.61554 23.2449 8.61895 23.2954 8.67151C23.4193 8.81362 23.5329 8.96465 23.6354 9.12307C23.661 9.15514 23.6707 9.19726 23.6618 9.23748C23.6527 9.27752 23.6261 9.31148 23.5891 9.32969L23.5944 9.31338ZM16.5768 7.27605H16.577C16.58 7.31229 16.5685 7.34796 16.5449 7.37566C16.5214 7.40317 16.488 7.42024 16.4518 7.42309L15.9078 7.46388C15.8327 7.46388 15.7718 7.40298 15.7718 7.32784C15.7718 7.25271 15.8327 7.1918 15.9078 7.1918L16.4518 7.15101C16.5227 7.15955 16.5749 7.22121 16.5715 7.29237L16.5768 7.27605ZM15.4889 7.35498C15.4912 7.39103 15.479 7.42651 15.4549 7.45363C15.431 7.48077 15.3973 7.49708 15.3612 7.49917L14.8173 7.5318H14.8171C14.7421 7.5318 14.6812 7.4709 14.6812 7.39577C14.6812 7.32063 14.7421 7.25973 14.8171 7.25973L15.361 7.22709H15.3612C15.4341 7.2343 15.4883 7.29805 15.4836 7.37129L15.4889 7.35498ZM14.401 7.42025C14.404 7.49443 14.3473 7.55742 14.2731 7.56179L13.7292 7.58626C13.654 7.58626 13.5931 7.52536 13.5931 7.45023C13.5931 7.37509 13.654 7.31419 13.7292 7.31419L14.2731 7.28971C14.3473 7.29692 14.4019 7.36238 14.3955 7.43656L14.401 7.42025ZM13.3131 7.4692C13.3144 7.50525 13.3015 7.54054 13.277 7.5671C13.2526 7.59366 13.2186 7.60922 13.1826 7.61074L12.6386 7.62971H12.6384C12.5633 7.62971 12.5026 7.5688 12.5026 7.49367C12.5026 7.41853 12.5633 7.35763 12.6384 7.35763L13.1824 7.33866H13.1826C13.219 7.34075 13.2533 7.35744 13.2774 7.38514C13.3013 7.41284 13.3133 7.44908 13.3102 7.48551L13.3131 7.4692ZM11.1562 7.95603L10.8515 8.16284L10.7102 8.26074H10.71C10.6477 8.30362 10.5624 8.28768 10.5197 8.22545C10.4768 8.16302 10.4925 8.07783 10.555 8.03495L10.6963 7.93971L11.0063 7.73025L11.0065 7.73043C11.0695 7.68907 11.1541 7.70672 11.1955 7.76971C11.2369 7.83289 11.2192 7.91751 11.156 7.95887L11.1562 7.95603ZM10.2968 8.37496H10.2966C10.3376 8.43738 10.3205 8.52124 10.2584 8.5626L9.79871 8.85631L9.7989 8.8565C9.73496 8.89615 9.65091 8.8768 9.61107 8.81286C9.57141 8.74911 9.59077 8.66506 9.65471 8.62521L10.1089 8.33417C10.141 8.3169 10.1786 8.31329 10.2133 8.32411C10.248 8.33473 10.277 8.35902 10.2939 8.39127L10.2968 8.37496ZM9.37448 8.96787C9.39346 8.99898 9.39915 9.03617 9.39061 9.07146C9.38188 9.10675 9.3595 9.13692 9.32819 9.1557L8.85765 9.42778V9.42759C8.79238 9.46516 8.7089 9.44258 8.67134 9.37731C8.63377 9.31204 8.65635 9.22856 8.72162 9.191L9.1895 8.91892C9.25419 8.88192 9.33673 8.90374 9.37448 8.96787H9.37448ZM8.43341 9.51182V9.51201C8.47003 9.57728 8.44688 9.66 8.38162 9.69681L7.90292 9.96889C7.83689 10.0049 7.75417 9.98065 7.71793 9.91443C7.68188 9.84841 7.70636 9.76568 7.77238 9.72944L8.24842 9.45737V9.45756C8.28049 9.43934 8.31843 9.43479 8.35373 9.44503C8.38921 9.45528 8.4188 9.47937 8.43607 9.51201L8.43341 9.51182ZM7.48131 10.056C7.49877 10.0877 7.50275 10.125 7.49251 10.1597C7.48245 10.1945 7.45874 10.2237 7.42705 10.241L6.99996 10.4667L6.94285 10.4967V10.4965C6.87758 10.5259 6.80074 10.4996 6.76716 10.4366C6.73339 10.3736 6.75445 10.2952 6.81497 10.2573L6.87208 10.2273L7.28816 9.99601C7.32137 9.97628 7.36121 9.97153 7.39821 9.98292C7.43501 9.99449 7.46518 10.0209 7.48131 10.056L7.48131 10.056ZM6.47234 10.7604C6.31638 10.8547 6.16498 10.9509 6.01812 11.0488L6.01793 11.0486C5.9557 11.0908 5.87108 11.0743 5.82896 11.012C5.78684 10.9496 5.80334 10.865 5.86577 10.8231C6.01623 10.7216 6.17218 10.6227 6.33365 10.5265H6.33346C6.39796 10.4897 6.47993 10.5115 6.51788 10.5753C6.55563 10.639 6.53533 10.7215 6.47234 10.7604ZM5.5829 11.3644C5.4387 11.4759 5.31082 11.5928 5.16947 11.707C5.11312 11.7573 5.02661 11.7524 4.97633 11.696C4.92604 11.6397 4.93079 11.5534 4.98714 11.5031C5.12033 11.3834 5.25922 11.2636 5.41423 11.1468C5.47362 11.1063 5.55425 11.1192 5.59827 11.1762C5.6421 11.2329 5.63413 11.3143 5.58006 11.3615L5.5829 11.3644ZM3.43949 14.5113C3.40382 14.506 3.37157 14.4866 3.35013 14.4576C3.32869 14.4284 3.31977 14.3919 3.32527 14.3563C3.35317 14.1722 3.39415 13.9905 3.44765 13.8123C3.46871 13.7372 3.54669 13.6934 3.62163 13.7144C3.69677 13.7355 3.74059 13.8133 3.71972 13.8884C3.6647 14.0584 3.62182 14.232 3.59184 14.4079C3.58236 14.4745 3.52582 14.5242 3.45846 14.5249L3.43949 14.5113ZM3.71157 13.456C3.64327 13.425 3.61291 13.3448 3.64346 13.2765C3.72371 13.105 3.8144 12.9388 3.91554 12.7786C3.95728 12.7217 4.03583 12.7063 4.09616 12.7431C4.15631 12.78 4.17832 12.857 4.14663 12.9202C4.05443 13.0706 3.97189 13.227 3.89922 13.3878C3.86829 13.4562 3.78804 13.4865 3.71973 13.456L3.71157 13.456ZM4.25552 12.5067C4.19632 12.4608 4.18532 12.3756 4.23105 12.3162C4.34261 12.172 4.46498 12.0307 4.59552 11.892C4.64732 11.8372 4.73384 11.8347 4.78867 11.8865C4.8435 11.9383 4.84578 12.0248 4.79398 12.0796C4.66895 12.2102 4.55188 12.3517 4.44582 12.4849C4.39991 12.5441 4.31491 12.5551 4.25552 12.5094L4.25552 12.5067ZM11.4363 7.65697V7.65678C11.4151 7.58564 11.4551 7.5105 11.5261 7.4883C11.7088 7.43688 11.8968 7.40671 12.0863 7.39855C12.1222 7.39552 12.1577 7.40709 12.1848 7.43062C12.2119 7.45415 12.2284 7.48773 12.2305 7.52359C12.2353 7.59777 12.1795 7.66191 12.1053 7.66779C11.9361 7.675 11.7682 7.70137 11.605 7.74672H11.5642C11.5038 7.75013 11.4484 7.7137 11.4281 7.65678L11.4363 7.65697ZM16.9769 7.11302L17.5208 7.06673H17.6079C17.6827 7.06198 17.7475 7.1172 17.7548 7.19176C17.757 7.22838 17.7445 7.26424 17.7198 7.29137C17.6954 7.3185 17.6608 7.33444 17.6242 7.33596H17.54L16.996 7.38225C16.9209 7.38225 16.86 7.32135 16.86 7.24621C16.86 7.17108 16.9209 7.11017 16.996 7.11017L16.9769 7.11302ZM18.0268 7.16748V7.16729C18.0253 7.13124 18.0382 7.09594 18.0627 7.06957C18.0874 7.04301 18.1213 7.02726 18.1574 7.02575H18.6742H18.7124C18.7873 7.02575 18.8482 7.08665 18.8482 7.16179C18.8482 7.23692 18.7873 7.29782 18.7124 7.29782H18.6742H18.1711C18.0976 7.30579 18.0312 7.254 18.0214 7.18095L18.0268 7.16748ZM19.1147 7.16748V7.16729C19.1168 7.13124 19.1333 7.09746 19.1603 7.07337C19.1874 7.04946 19.2229 7.03713 19.2589 7.03941C19.4403 7.05022 19.6215 7.06578 19.8029 7.0857C19.878 7.09025 19.9353 7.15477 19.9308 7.2299C19.9262 7.30504 19.8617 7.36215 19.7866 7.35759H19.7702C19.5889 7.33767 19.4077 7.32306 19.2263 7.31414C19.1576 7.30314 19.1085 7.24204 19.1121 7.17279L19.1147 7.16748ZM20.2026 7.27354L20.2028 7.27335C20.2165 7.19992 20.2871 7.15135 20.3605 7.16463C20.5481 7.19726 20.7305 7.23805 20.9044 7.28435V7.28416C20.9796 7.29402 21.0325 7.3629 21.0228 7.43784C21.0132 7.51298 20.9443 7.56591 20.8692 7.55624H20.8339C20.6652 7.51279 20.4912 7.47199 20.3115 7.44202C20.2747 7.43613 20.2417 7.41526 20.2206 7.38434C20.1996 7.3536 20.1922 7.31527 20.2 7.27884L20.2026 7.27354ZM21.2634 7.53195L21.2636 7.53176C21.2891 7.46118 21.367 7.42456 21.4376 7.45018C21.6137 7.51449 21.7862 7.58792 21.9545 7.67046C22.022 7.70347 22.0501 7.78506 22.0171 7.85279C21.9841 7.92033 21.9025 7.94842 21.8347 7.91521C21.6754 7.8378 21.512 7.76893 21.3452 7.7086C21.275 7.68412 21.2375 7.60785 21.2608 7.53727L21.2634 7.53195ZM22.2481 7.99148C22.2889 7.92849 22.3728 7.91027 22.436 7.95069C22.5938 8.05371 22.7447 8.16736 22.8873 8.29069C22.9444 8.33945 22.9513 8.4254 22.9023 8.48232C22.8536 8.53943 22.7676 8.54626 22.7107 8.49731C22.5773 8.38214 22.4365 8.2757 22.2889 8.17912C22.2259 8.13852 22.2077 8.05447 22.2481 7.99148L22.2481 7.99148ZM3.41504 14.7915C3.44976 14.7892 3.4841 14.8013 3.50972 14.8249C3.53552 14.8486 3.55032 14.8816 3.55108 14.9165V14.952C3.55127 15.122 3.56227 15.2918 3.58371 15.4605C3.59339 15.5349 3.54102 15.603 3.46664 15.6128H3.45033C3.38126 15.6134 3.32264 15.5618 3.31448 15.4931C3.29133 15.3129 3.27938 15.1311 3.279 14.9492C3.27596 14.9101 3.28924 14.8714 3.31543 14.8422C3.34142 14.8129 3.37842 14.7955 3.41769 14.7942L3.41504 14.7915ZM3.51844 15.8794C3.55335 15.8703 3.59054 15.8756 3.62166 15.894C3.65277 15.9124 3.67535 15.9424 3.68427 15.9773C3.69869 16.0317 3.7133 16.0869 3.72772 16.1431C3.76225 16.2609 3.79944 16.3761 3.83928 16.4886C3.85503 16.5235 3.85541 16.5632 3.84042 16.5983C3.82543 16.6332 3.79641 16.6603 3.76055 16.673C3.7245 16.6856 3.68484 16.6825 3.65126 16.6647C3.61768 16.6467 3.5932 16.6154 3.58372 16.5786C3.54198 16.4607 3.50384 16.3401 3.4695 16.2167C3.45318 16.1587 3.43781 16.1006 3.4232 16.0426C3.41239 16.0069 3.41675 15.9684 3.43535 15.9359C3.45375 15.9035 3.48486 15.8802 3.5211 15.8712L3.51844 15.8794ZM3.8611 16.9157C3.89393 16.9 3.93168 16.8981 3.96583 16.9102C4.00017 16.9225 4.02806 16.948 4.04343 16.981C4.11952 17.1386 4.20395 17.2921 4.29634 17.4407C4.32803 17.5039 4.30602 17.5807 4.24568 17.6177C4.18535 17.6545 4.10699 17.6391 4.06506 17.5822C3.96564 17.423 3.87475 17.2587 3.79317 17.0899C3.77761 17.0567 3.7759 17.0187 3.78881 16.9844C3.80152 16.95 3.8277 16.9223 3.86109 16.9075L3.8611 16.9157ZM4.40505 17.8623C4.46368 17.816 4.54887 17.8256 4.59555 17.8841C4.70407 18.0235 4.82132 18.1562 4.94636 18.2812C4.97539 18.3057 4.99285 18.341 4.99455 18.3789C4.99626 18.4167 4.98203 18.4537 4.95547 18.4806C4.92891 18.5075 4.89229 18.5222 4.85434 18.521C4.81659 18.5199 4.78092 18.5028 4.75606 18.4743C4.6223 18.3415 4.49689 18.2007 4.38058 18.0528C4.35611 18.0237 4.34472 17.9858 4.34928 17.948C4.35402 17.9103 4.37413 17.8763 4.40506 17.8541L4.40505 17.8623ZM5.15582 18.6538C5.20174 18.5946 5.28693 18.5836 5.34612 18.6294C5.48577 18.7364 5.63205 18.8346 5.78421 18.9231C5.81912 18.939 5.84588 18.969 5.85764 19.0056C5.8694 19.0422 5.86504 19.0821 5.84569 19.1154C5.82633 19.1487 5.79389 19.1722 5.75613 19.1801C5.71856 19.1881 5.67929 19.1796 5.64817 19.157C5.48576 19.0627 5.32942 18.9584 5.18029 18.8441C5.14937 18.8221 5.12925 18.788 5.12451 18.7502C5.11996 18.7126 5.13115 18.6747 5.15582 18.6457L5.15582 18.6538ZM6.08057 19.2333V19.2331C6.09442 19.1995 6.12118 19.1726 6.15495 19.1589C6.18872 19.1451 6.22667 19.1454 6.26006 19.1597C6.42247 19.2285 6.58867 19.2876 6.75792 19.3365C6.83305 19.3471 6.88542 19.4166 6.87479 19.4915C6.86435 19.5667 6.79491 19.619 6.71978 19.6086H6.68164C6.5014 19.5566 6.32418 19.494 6.15134 19.4209C6.1132 19.4077 6.08284 19.3781 6.06862 19.3401C6.05458 19.3024 6.0578 19.26 6.07791 19.2249L6.08057 19.2333ZM8.33817 19.5298C8.51234 19.5298 8.69183 19.5135 8.88212 19.4917V19.4915C8.95726 19.4834 9.0248 19.5374 9.03315 19.6126C9.04131 19.6877 8.98724 19.7552 8.9121 19.7636C8.72446 19.7854 8.53681 19.7962 8.36815 19.8017C8.29302 19.8017 8.23211 19.7408 8.23211 19.6657C8.23211 19.5906 8.29302 19.5297 8.36815 19.5297L8.33817 19.5298ZM12.4563 16.6955C12.3971 16.6495 12.3861 16.5644 12.4318 16.505C12.5487 16.35 12.6658 16.2058 12.78 16.0726C12.8031 16.0437 12.8373 16.0255 12.8743 16.0223C12.9113 16.0192 12.9479 16.0312 12.9758 16.0559C13.0035 16.0803 13.0202 16.1151 13.0217 16.1523C13.0232 16.1893 13.0096 16.2253 12.9839 16.2521C12.8724 16.3799 12.7608 16.5241 12.6466 16.671C12.6007 16.7302 12.5157 16.7412 12.4563 16.6955L12.4563 16.6955ZM14.121 15.3763H14.1208C14.1155 15.3406 14.1244 15.3042 14.1458 15.2751C14.1673 15.2459 14.1994 15.2266 14.2352 15.2212C14.4153 15.1943 14.597 15.1806 14.7792 15.1805L14.7981 15.3165V15.4525V15.4523C14.6224 15.452 14.4469 15.4647 14.2731 15.4905H14.2515C14.1841 15.4899 14.1276 15.4402 14.1181 15.3736L14.121 15.3763ZM15.2089 15.3381C15.2188 15.2639 15.2869 15.2116 15.3612 15.2212C15.5354 15.2457 15.7149 15.2784 15.9052 15.3218C15.9803 15.3302 16.0344 15.3977 16.0262 15.4728C16.0179 15.548 15.9504 15.602 15.8752 15.5939H15.8452C15.6576 15.5504 15.4863 15.5178 15.3202 15.496H15.3204C15.284 15.4907 15.2516 15.4709 15.2299 15.4411C15.2085 15.4114 15.1999 15.3744 15.206 15.3381L15.2089 15.3381ZM16.9334 15.8821H16.8926L16.3702 15.7271C16.2951 15.7062 16.2513 15.6282 16.2723 15.5531C16.2934 15.4779 16.3714 15.4341 16.4465 15.4552L16.9715 15.6128C17.0465 15.6242 17.0983 15.6942 17.0871 15.7694C17.0757 15.8443 17.0057 15.8961 16.9307 15.8849L16.9334 15.8821ZM17.325 15.8658C17.335 15.8312 17.3586 15.802 17.3903 15.7847C17.4217 15.7673 17.4591 15.7633 17.4937 15.7734C17.665 15.825 17.8392 15.8739 18.016 15.9176C18.0909 15.9265 18.1446 15.9948 18.1355 16.0699C18.1266 16.145 18.0583 16.1985 17.9834 16.1894H17.9507C17.7712 16.1431 17.5944 16.0942 17.4068 16.0426H17.4066C17.3722 16.031 17.344 16.006 17.3282 15.9731C17.3123 15.9405 17.3102 15.9028 17.3223 15.8686L17.325 15.8658ZM19.6044 16.1705H20.1294C20.205 16.1657 20.2704 16.2228 20.2763 16.2983C20.2801 16.3334 20.2695 16.3685 20.2469 16.3957C20.2243 16.4228 20.1919 16.4397 20.1566 16.4425H19.5853C19.5492 16.441 19.5153 16.4255 19.4908 16.3989C19.4663 16.3723 19.4534 16.337 19.4547 16.301C19.4553 16.2638 19.4716 16.2287 19.4997 16.2042C19.5276 16.1798 19.5648 16.1686 19.6016 16.1731L19.6044 16.1705ZM23.6844 13.3471C23.7586 13.1848 23.8241 13.0188 23.8802 12.8494C23.9021 12.7743 23.9806 12.731 24.0557 12.7528C24.1309 12.7746 24.1739 12.8532 24.1523 12.9283C24.0984 13.1074 24.0349 13.2837 23.9618 13.456C23.9307 13.522 23.8529 13.5518 23.7858 13.5233C23.7184 13.4947 23.6858 13.4182 23.7116 13.3499L23.6844 13.3471ZM24.0924 10.5999C24.1278 10.5927 24.1645 10.5997 24.1946 10.6196C24.2248 10.6396 24.2457 10.6707 24.2529 10.706C24.2891 10.8902 24.3136 11.0763 24.3263 11.2636C24.3286 11.2996 24.3162 11.3351 24.2923 11.3622C24.2684 11.3892 24.2347 11.4057 24.1984 11.4078C24.1265 11.4078 24.0667 11.3518 24.0626 11.2799C24.051 11.1036 24.0282 10.9283 23.9945 10.7549C23.9821 10.6856 24.0246 10.6184 24.0924 10.5999V10.5999ZM24.1277 12.5039H24.1032H24.1034C24.0298 12.4902 23.9812 12.4196 23.9945 12.3462C24.0258 12.1726 24.0466 11.9973 24.0571 11.8212C24.0628 11.7466 24.1265 11.6901 24.2013 11.6933C24.2373 11.6954 24.2711 11.7119 24.295 11.7388C24.3191 11.766 24.3312 11.8014 24.329 11.8375C24.3183 12.0244 24.2965 12.2107 24.2637 12.3951C24.2506 12.4594 24.1935 12.5051 24.1278 12.5038L24.1277 12.5039ZM24.0216 10.3278H23.9808C23.9212 10.3282 23.8683 10.2897 23.8503 10.2328C23.7962 10.0648 23.7317 9.90034 23.6571 9.74038C23.6256 9.67208 23.6554 9.59106 23.7239 9.55937C23.7922 9.52788 23.8732 9.55767 23.9047 9.62616C23.984 9.79578 24.0531 9.97033 24.1115 10.1483C24.1252 10.184 24.1231 10.2238 24.106 10.258C24.0889 10.2919 24.0584 10.3174 24.0216 10.3278V10.3278ZM1.5981 14.4841C1.32602 13.5564 1.63074 12.6209 2.4957 11.7641C3.83938 10.4556 4.94361 8.70955 5.0662 7.70587C5.12065 7.25981 5.22121 6.14192 4.99828 5.38299H4.99809C4.93908 5.23784 4.96071 5.07259 5.05539 4.94775C5.27415 4.80773 5.54829 4.78514 5.78697 4.88779C9.4154 5.77461 11.5286 4.61571 13.5744 3.48432C14.8229 2.79616 16.0007 2.14613 17.4994 1.9993C21.8052 1.57771 23.5704 4.07194 24.2994 6.23696C24.5531 6.98753 24.5664 7.79863 24.3374 8.55722C23.214 6.67221 21.136 5.8888 17.9289 6.10931C15.7802 6.25882 14.3928 6.30246 13.4736 6.32959C11.4064 6.39221 11.3738 6.40302 9.96199 7.30331C9.2765 7.74121 8.24018 8.39121 6.42594 9.40591C3.60253 10.9646 2.19357 13.0343 2.34594 15.3273H2.34613C1.99323 15.1586 1.72344 14.8544 1.59803 14.4841L1.5981 14.4841Z" fill="#4926E8"/>
</svg>
