<svg width="255" height="7" viewBox="0 0 255 7" fill="none" xmlns="http://www.w3.org/2000/svg">
<path d="M-48.58 5H-50.11V-7.6H-43.09V-6.16H-48.58V5ZM-42.5492 8.6H-43.9892V-3.1H-42.5492V-2.146C-42.2612 -2.482 -41.8652 -2.752 -41.3612 -2.956C-40.8572 -3.172 -40.3352 -3.28 -39.7952 -3.28C-38.6432 -3.28 -37.7372 -2.896 -37.0772 -2.128C-36.3932 -1.372 -36.0512 -0.388 -36.0512 0.824C-36.0512 2.06 -36.4412 3.098 -37.2212 3.938C-37.9892 4.766 -39.0032 5.18 -40.2632 5.18C-41.2352 5.18 -41.9972 4.994 -42.5492 4.622V8.6ZM-40.2092 -1.93C-41.1692 -1.93 -41.9492 -1.558 -42.5492 -0.814V3.2C-41.9132 3.62 -41.1932 3.83 -40.3892 3.83C-39.5372 3.83 -38.8592 3.56 -38.3552 3.02C-37.8392 2.468 -37.5812 1.754 -37.5812 0.878C-37.5812 0.0259998 -37.8152 -0.652 -38.2832 -1.156C-38.7512 -1.672 -39.3932 -1.93 -40.2092 -1.93ZM-28.5796 -3.1H-26.9416L-30.1816 5C-30.7696 6.428 -31.2796 7.376 -31.7116 7.844C-32.1676 8.348 -32.6896 8.6 -33.2776 8.6C-33.8056 8.6 -34.3156 8.432 -34.8076 8.096L-34.3396 6.998C-33.9556 7.178 -33.6556 7.268 -33.4396 7.268C-33.1036 7.268 -32.8036 7.124 -32.5396 6.836C-32.2636 6.548 -31.9876 6.08 -31.7116 5.432L-31.5316 5L-35.4196 -3.1H-33.6916L-31.3156 2.048C-31.2676 2.132 -31.1056 2.54 -30.8296 3.272C-30.7216 2.876 -30.5956 2.462 -30.4516 2.03L-28.5796 -3.1ZM-25.8079 6.98H-27.1579V3.65H-26.1499C-25.8499 3.278 -25.5859 2.678 -25.3579 1.85C-25.1299 1.01 -24.9799 0.0739998 -24.9079 -0.958001L-24.7819 -3.1H-19.2559V3.65H-17.9059V6.98H-19.2559V5H-25.8079V6.98ZM-23.4319 -1.75L-23.5219 -0.4C-23.5939 0.5 -23.7379 1.322 -23.9539 2.066C-24.1699 2.81 -24.3919 3.338 -24.6199 3.65H-20.6959V-1.75H-23.4319ZM-13.6028 5H-16.3388V-3.1H-14.8988V-0.67H-13.4228C-12.3188 -0.67 -11.5088 -0.418 -10.9928 0.086C-10.4768 0.578 -10.2188 1.256 -10.2188 2.12C-10.2188 2.936 -10.4888 3.62 -11.0288 4.172C-11.5688 4.724 -12.4268 5 -13.6028 5ZM-13.6928 0.68H-14.8988V3.65H-13.7108C-12.4028 3.65 -11.7488 3.158 -11.7488 2.174C-11.7488 1.178 -12.3968 0.68 -13.6928 0.68ZM2.63633 4.028C2.63633 3.776 2.73233 3.554 2.92433 3.362C3.12833 3.17 3.37433 3.074 3.66233 3.074C3.91433 3.074 4.13633 3.17 4.32833 3.362C4.52033 3.554 4.61633 3.776 4.61633 4.028C4.61633 4.316 4.52633 4.562 4.34633 4.766C4.16633 4.958 3.93833 5.054 3.66233 5.054C3.37433 5.054 3.12833 4.958 2.92433 4.766C2.73233 4.562 2.63633 4.316 2.63633 4.028ZM8.27891 4.028C8.27891 3.776 8.37491 3.554 8.56691 3.362C8.77091 3.17 9.01691 3.074 9.30491 3.074C9.55691 3.074 9.77891 3.17 9.97091 3.362C10.1629 3.554 10.2589 3.776 10.2589 4.028C10.2589 4.316 10.1689 4.562 9.98891 4.766C9.80891 4.958 9.58091 5.054 9.30491 5.054C9.01691 5.054 8.77091 4.958 8.56691 4.766C8.37491 4.562 8.27891 4.316 8.27891 4.028ZM13.9215 4.028C13.9215 3.776 14.0175 3.554 14.2095 3.362C14.4135 3.17 14.6595 3.074 14.9475 3.074C15.1995 3.074 15.4215 3.17 15.6135 3.362C15.8055 3.554 15.9015 3.776 15.9015 4.028C15.9015 4.316 15.8115 4.562 15.6315 4.766C15.4515 4.958 15.2235 5.054 14.9475 5.054C14.6595 5.054 14.4135 4.958 14.2095 4.766C14.0175 4.562 13.9215 4.316 13.9215 4.028ZM19.5641 4.028C19.5641 3.776 19.6601 3.554 19.8521 3.362C20.0561 3.17 20.3021 3.074 20.5901 3.074C20.8421 3.074 21.0641 3.17 21.2561 3.362C21.4481 3.554 21.5441 3.776 21.5441 4.028C21.5441 4.316 21.4541 4.562 21.2741 4.766C21.0941 4.958 20.8661 5.054 20.5901 5.054C20.3021 5.054 20.0561 4.958 19.8521 4.766C19.6601 4.562 19.5641 4.316 19.5641 4.028ZM25.2066 4.028C25.2066 3.776 25.3026 3.554 25.4946 3.362C25.6986 3.17 25.9446 3.074 26.2326 3.074C26.4846 3.074 26.7066 3.17 26.8986 3.362C27.0906 3.554 27.1866 3.776 27.1866 4.028C27.1866 4.316 27.0966 4.562 26.9166 4.766C26.7366 4.958 26.5086 5.054 26.2326 5.054C25.9446 5.054 25.6986 4.958 25.4946 4.766C25.3026 4.562 25.2066 4.316 25.2066 4.028ZM30.8492 4.028C30.8492 3.776 30.9452 3.554 31.1372 3.362C31.3412 3.17 31.5872 3.074 31.8752 3.074C32.1272 3.074 32.3492 3.17 32.5412 3.362C32.7332 3.554 32.8292 3.776 32.8292 4.028C32.8292 4.316 32.7392 4.562 32.5592 4.766C32.3792 4.958 32.1512 5.054 31.8752 5.054C31.5872 5.054 31.3412 4.958 31.1372 4.766C30.9452 4.562 30.8492 4.316 30.8492 4.028ZM36.4918 4.028C36.4918 3.776 36.5878 3.554 36.7798 3.362C36.9838 3.17 37.2298 3.074 37.5178 3.074C37.7698 3.074 37.9918 3.17 38.1838 3.362C38.3758 3.554 38.4718 3.776 38.4718 4.028C38.4718 4.316 38.3818 4.562 38.2018 4.766C38.0218 4.958 37.7938 5.054 37.5178 5.054C37.2298 5.054 36.9838 4.958 36.7798 4.766C36.5878 4.562 36.4918 4.316 36.4918 4.028ZM42.1344 4.028C42.1344 3.776 42.2304 3.554 42.4224 3.362C42.6264 3.17 42.8724 3.074 43.1604 3.074C43.4124 3.074 43.6344 3.17 43.8264 3.362C44.0184 3.554 44.1144 3.776 44.1144 4.028C44.1144 4.316 44.0244 4.562 43.8444 4.766C43.6644 4.958 43.4364 5.054 43.1604 5.054C42.8724 5.054 42.6264 4.958 42.4224 4.766C42.2304 4.562 42.1344 4.316 42.1344 4.028ZM47.777 4.028C47.777 3.776 47.873 3.554 48.065 3.362C48.269 3.17 48.515 3.074 48.803 3.074C49.055 3.074 49.277 3.17 49.469 3.362C49.661 3.554 49.757 3.776 49.757 4.028C49.757 4.316 49.667 4.562 49.487 4.766C49.307 4.958 49.079 5.054 48.803 5.054C48.515 5.054 48.269 4.958 48.065 4.766C47.873 4.562 47.777 4.316 47.777 4.028ZM53.4195 4.028C53.4195 3.776 53.5155 3.554 53.7075 3.362C53.9115 3.17 54.1575 3.074 54.4455 3.074C54.6975 3.074 54.9195 3.17 55.1115 3.362C55.3035 3.554 55.3995 3.776 55.3995 4.028C55.3995 4.316 55.3095 4.562 55.1295 4.766C54.9495 4.958 54.7215 5.054 54.4455 5.054C54.1575 5.054 53.9115 4.958 53.7075 4.766C53.5155 4.562 53.4195 4.316 53.4195 4.028ZM59.0621 4.028C59.0621 3.776 59.1581 3.554 59.3501 3.362C59.5541 3.17 59.8001 3.074 60.0881 3.074C60.3401 3.074 60.5621 3.17 60.7541 3.362C60.9461 3.554 61.0421 3.776 61.0421 4.028C61.0421 4.316 60.9521 4.562 60.7721 4.766C60.5921 4.958 60.3641 5.054 60.0881 5.054C59.8001 5.054 59.5541 4.958 59.3501 4.766C59.1581 4.562 59.0621 4.316 59.0621 4.028ZM64.7047 4.028C64.7047 3.776 64.8007 3.554 64.9927 3.362C65.1967 3.17 65.4427 3.074 65.7307 3.074C65.9827 3.074 66.2047 3.17 66.3967 3.362C66.5887 3.554 66.6847 3.776 66.6847 4.028C66.6847 4.316 66.5947 4.562 66.4147 4.766C66.2347 4.958 66.0067 5.054 65.7307 5.054C65.4427 5.054 65.1967 4.958 64.9927 4.766C64.8007 4.562 64.7047 4.316 64.7047 4.028ZM70.3473 4.028C70.3473 3.776 70.4433 3.554 70.6353 3.362C70.8393 3.17 71.0853 3.074 71.3733 3.074C71.6253 3.074 71.8473 3.17 72.0393 3.362C72.2313 3.554 72.3273 3.776 72.3273 4.028C72.3273 4.316 72.2373 4.562 72.0573 4.766C71.8773 4.958 71.6493 5.054 71.3733 5.054C71.0853 5.054 70.8393 4.958 70.6353 4.766C70.4433 4.562 70.3473 4.316 70.3473 4.028ZM75.9898 4.028C75.9898 3.776 76.0858 3.554 76.2778 3.362C76.4818 3.17 76.7278 3.074 77.0158 3.074C77.2678 3.074 77.4898 3.17 77.6818 3.362C77.8738 3.554 77.9698 3.776 77.9698 4.028C77.9698 4.316 77.8798 4.562 77.6998 4.766C77.5198 4.958 77.2918 5.054 77.0158 5.054C76.7278 5.054 76.4818 4.958 76.2778 4.766C76.0858 4.562 75.9898 4.316 75.9898 4.028ZM81.6324 4.028C81.6324 3.776 81.7284 3.554 81.9204 3.362C82.1244 3.17 82.3704 3.074 82.6584 3.074C82.9104 3.074 83.1324 3.17 83.3244 3.362C83.5164 3.554 83.6124 3.776 83.6124 4.028C83.6124 4.316 83.5224 4.562 83.3424 4.766C83.1624 4.958 82.9344 5.054 82.6584 5.054C82.3704 5.054 82.1244 4.958 81.9204 4.766C81.7284 4.562 81.6324 4.316 81.6324 4.028ZM87.275 4.028C87.275 3.776 87.371 3.554 87.563 3.362C87.767 3.17 88.013 3.074 88.301 3.074C88.553 3.074 88.775 3.17 88.967 3.362C89.159 3.554 89.255 3.776 89.255 4.028C89.255 4.316 89.165 4.562 88.985 4.766C88.805 4.958 88.577 5.054 88.301 5.054C88.013 5.054 87.767 4.958 87.563 4.766C87.371 4.562 87.275 4.316 87.275 4.028ZM92.9176 4.028C92.9176 3.776 93.0136 3.554 93.2056 3.362C93.4096 3.17 93.6556 3.074 93.9436 3.074C94.1956 3.074 94.4176 3.17 94.6096 3.362C94.8016 3.554 94.8976 3.776 94.8976 4.028C94.8976 4.316 94.8076 4.562 94.6276 4.766C94.4476 4.958 94.2196 5.054 93.9436 5.054C93.6556 5.054 93.4096 4.958 93.2056 4.766C93.0136 4.562 92.9176 4.316 92.9176 4.028ZM98.5602 4.028C98.5602 3.776 98.6562 3.554 98.8482 3.362C99.0522 3.17 99.2982 3.074 99.5862 3.074C99.8382 3.074 100.06 3.17 100.252 3.362C100.444 3.554 100.54 3.776 100.54 4.028C100.54 4.316 100.45 4.562 100.27 4.766C100.09 4.958 99.8622 5.054 99.5862 5.054C99.2982 5.054 99.0522 4.958 98.8482 4.766C98.6562 4.562 98.5602 4.316 98.5602 4.028ZM104.203 4.028C104.203 3.776 104.299 3.554 104.491 3.362C104.695 3.17 104.941 3.074 105.229 3.074C105.481 3.074 105.703 3.17 105.895 3.362C106.087 3.554 106.183 3.776 106.183 4.028C106.183 4.316 106.093 4.562 105.913 4.766C105.733 4.958 105.505 5.054 105.229 5.054C104.941 5.054 104.695 4.958 104.491 4.766C104.299 4.562 104.203 4.316 104.203 4.028ZM109.845 4.028C109.845 3.776 109.941 3.554 110.133 3.362C110.337 3.17 110.583 3.074 110.871 3.074C111.123 3.074 111.345 3.17 111.537 3.362C111.729 3.554 111.825 3.776 111.825 4.028C111.825 4.316 111.735 4.562 111.555 4.766C111.375 4.958 111.147 5.054 110.871 5.054C110.583 5.054 110.337 4.958 110.133 4.766C109.941 4.562 109.845 4.316 109.845 4.028ZM115.488 4.028C115.488 3.776 115.584 3.554 115.776 3.362C115.98 3.17 116.226 3.074 116.514 3.074C116.766 3.074 116.988 3.17 117.18 3.362C117.372 3.554 117.468 3.776 117.468 4.028C117.468 4.316 117.378 4.562 117.198 4.766C117.018 4.958 116.79 5.054 116.514 5.054C116.226 5.054 115.98 4.958 115.776 4.766C115.584 4.562 115.488 4.316 115.488 4.028ZM121.13 4.028C121.13 3.776 121.226 3.554 121.418 3.362C121.622 3.17 121.868 3.074 122.156 3.074C122.408 3.074 122.63 3.17 122.822 3.362C123.014 3.554 123.11 3.776 123.11 4.028C123.11 4.316 123.02 4.562 122.84 4.766C122.66 4.958 122.432 5.054 122.156 5.054C121.868 5.054 121.622 4.958 121.418 4.766C121.226 4.562 121.13 4.316 121.13 4.028ZM126.773 4.028C126.773 3.776 126.869 3.554 127.061 3.362C127.265 3.17 127.511 3.074 127.799 3.074C128.051 3.074 128.273 3.17 128.465 3.362C128.657 3.554 128.753 3.776 128.753 4.028C128.753 4.316 128.663 4.562 128.483 4.766C128.303 4.958 128.075 5.054 127.799 5.054C127.511 5.054 127.265 4.958 127.061 4.766C126.869 4.562 126.773 4.316 126.773 4.028ZM132.416 4.028C132.416 3.776 132.512 3.554 132.704 3.362C132.908 3.17 133.154 3.074 133.442 3.074C133.694 3.074 133.916 3.17 134.108 3.362C134.3 3.554 134.396 3.776 134.396 4.028C134.396 4.316 134.306 4.562 134.126 4.766C133.946 4.958 133.718 5.054 133.442 5.054C133.154 5.054 132.908 4.958 132.704 4.766C132.512 4.562 132.416 4.316 132.416 4.028ZM138.058 4.028C138.058 3.776 138.154 3.554 138.346 3.362C138.55 3.17 138.796 3.074 139.084 3.074C139.336 3.074 139.558 3.17 139.75 3.362C139.942 3.554 140.038 3.776 140.038 4.028C140.038 4.316 139.948 4.562 139.768 4.766C139.588 4.958 139.36 5.054 139.084 5.054C138.796 5.054 138.55 4.958 138.346 4.766C138.154 4.562 138.058 4.316 138.058 4.028ZM143.701 4.028C143.701 3.776 143.797 3.554 143.989 3.362C144.193 3.17 144.439 3.074 144.727 3.074C144.979 3.074 145.201 3.17 145.393 3.362C145.585 3.554 145.681 3.776 145.681 4.028C145.681 4.316 145.591 4.562 145.411 4.766C145.231 4.958 145.003 5.054 144.727 5.054C144.439 5.054 144.193 4.958 143.989 4.766C143.797 4.562 143.701 4.316 143.701 4.028ZM149.343 4.028C149.343 3.776 149.439 3.554 149.631 3.362C149.835 3.17 150.081 3.074 150.369 3.074C150.621 3.074 150.843 3.17 151.035 3.362C151.227 3.554 151.323 3.776 151.323 4.028C151.323 4.316 151.233 4.562 151.053 4.766C150.873 4.958 150.645 5.054 150.369 5.054C150.081 5.054 149.835 4.958 149.631 4.766C149.439 4.562 149.343 4.316 149.343 4.028ZM154.986 4.028C154.986 3.776 155.082 3.554 155.274 3.362C155.478 3.17 155.724 3.074 156.012 3.074C156.264 3.074 156.486 3.17 156.678 3.362C156.87 3.554 156.966 3.776 156.966 4.028C156.966 4.316 156.876 4.562 156.696 4.766C156.516 4.958 156.288 5.054 156.012 5.054C155.724 5.054 155.478 4.958 155.274 4.766C155.082 4.562 154.986 4.316 154.986 4.028ZM160.629 4.028C160.629 3.776 160.725 3.554 160.917 3.362C161.121 3.17 161.367 3.074 161.655 3.074C161.907 3.074 162.129 3.17 162.321 3.362C162.513 3.554 162.609 3.776 162.609 4.028C162.609 4.316 162.519 4.562 162.339 4.766C162.159 4.958 161.931 5.054 161.655 5.054C161.367 5.054 161.121 4.958 160.917 4.766C160.725 4.562 160.629 4.316 160.629 4.028ZM166.271 4.028C166.271 3.776 166.367 3.554 166.559 3.362C166.763 3.17 167.009 3.074 167.297 3.074C167.549 3.074 167.771 3.17 167.963 3.362C168.155 3.554 168.251 3.776 168.251 4.028C168.251 4.316 168.161 4.562 167.981 4.766C167.801 4.958 167.573 5.054 167.297 5.054C167.009 5.054 166.763 4.958 166.559 4.766C166.367 4.562 166.271 4.316 166.271 4.028ZM171.914 4.028C171.914 3.776 172.01 3.554 172.202 3.362C172.406 3.17 172.652 3.074 172.94 3.074C173.192 3.074 173.414 3.17 173.606 3.362C173.798 3.554 173.894 3.776 173.894 4.028C173.894 4.316 173.804 4.562 173.624 4.766C173.444 4.958 173.216 5.054 172.94 5.054C172.652 5.054 172.406 4.958 172.202 4.766C172.01 4.562 171.914 4.316 171.914 4.028ZM177.556 4.028C177.556 3.776 177.652 3.554 177.844 3.362C178.048 3.17 178.294 3.074 178.582 3.074C178.834 3.074 179.056 3.17 179.248 3.362C179.44 3.554 179.536 3.776 179.536 4.028C179.536 4.316 179.446 4.562 179.266 4.766C179.086 4.958 178.858 5.054 178.582 5.054C178.294 5.054 178.048 4.958 177.844 4.766C177.652 4.562 177.556 4.316 177.556 4.028ZM183.199 4.028C183.199 3.776 183.295 3.554 183.487 3.362C183.691 3.17 183.937 3.074 184.225 3.074C184.477 3.074 184.699 3.17 184.891 3.362C185.083 3.554 185.179 3.776 185.179 4.028C185.179 4.316 185.089 4.562 184.909 4.766C184.729 4.958 184.501 5.054 184.225 5.054C183.937 5.054 183.691 4.958 183.487 4.766C183.295 4.562 183.199 4.316 183.199 4.028ZM188.841 4.028C188.841 3.776 188.937 3.554 189.129 3.362C189.333 3.17 189.579 3.074 189.867 3.074C190.119 3.074 190.341 3.17 190.533 3.362C190.725 3.554 190.821 3.776 190.821 4.028C190.821 4.316 190.731 4.562 190.551 4.766C190.371 4.958 190.143 5.054 189.867 5.054C189.579 5.054 189.333 4.958 189.129 4.766C188.937 4.562 188.841 4.316 188.841 4.028ZM194.484 4.028C194.484 3.776 194.58 3.554 194.772 3.362C194.976 3.17 195.222 3.074 195.51 3.074C195.762 3.074 195.984 3.17 196.176 3.362C196.368 3.554 196.464 3.776 196.464 4.028C196.464 4.316 196.374 4.562 196.194 4.766C196.014 4.958 195.786 5.054 195.51 5.054C195.222 5.054 194.976 4.958 194.772 4.766C194.58 4.562 194.484 4.316 194.484 4.028ZM200.127 4.028C200.127 3.776 200.223 3.554 200.415 3.362C200.619 3.17 200.865 3.074 201.153 3.074C201.405 3.074 201.627 3.17 201.819 3.362C202.011 3.554 202.107 3.776 202.107 4.028C202.107 4.316 202.017 4.562 201.837 4.766C201.657 4.958 201.429 5.054 201.153 5.054C200.865 5.054 200.619 4.958 200.415 4.766C200.223 4.562 200.127 4.316 200.127 4.028ZM205.769 4.028C205.769 3.776 205.865 3.554 206.057 3.362C206.261 3.17 206.507 3.074 206.795 3.074C207.047 3.074 207.269 3.17 207.461 3.362C207.653 3.554 207.749 3.776 207.749 4.028C207.749 4.316 207.659 4.562 207.479 4.766C207.299 4.958 207.071 5.054 206.795 5.054C206.507 5.054 206.261 4.958 206.057 4.766C205.865 4.562 205.769 4.316 205.769 4.028ZM211.412 4.028C211.412 3.776 211.508 3.554 211.7 3.362C211.904 3.17 212.15 3.074 212.438 3.074C212.69 3.074 212.912 3.17 213.104 3.362C213.296 3.554 213.392 3.776 213.392 4.028C213.392 4.316 213.302 4.562 213.122 4.766C212.942 4.958 212.714 5.054 212.438 5.054C212.15 5.054 211.904 4.958 211.7 4.766C211.508 4.562 211.412 4.316 211.412 4.028ZM217.054 4.028C217.054 3.776 217.15 3.554 217.342 3.362C217.546 3.17 217.792 3.074 218.08 3.074C218.332 3.074 218.554 3.17 218.746 3.362C218.938 3.554 219.034 3.776 219.034 4.028C219.034 4.316 218.944 4.562 218.764 4.766C218.584 4.958 218.356 5.054 218.08 5.054C217.792 5.054 217.546 4.958 217.342 4.766C217.15 4.562 217.054 4.316 217.054 4.028ZM222.697 4.028C222.697 3.776 222.793 3.554 222.985 3.362C223.189 3.17 223.435 3.074 223.723 3.074C223.975 3.074 224.197 3.17 224.389 3.362C224.581 3.554 224.677 3.776 224.677 4.028C224.677 4.316 224.587 4.562 224.407 4.766C224.227 4.958 223.999 5.054 223.723 5.054C223.435 5.054 223.189 4.958 222.985 4.766C222.793 4.562 222.697 4.316 222.697 4.028ZM228.339 4.028C228.339 3.776 228.435 3.554 228.627 3.362C228.831 3.17 229.077 3.074 229.365 3.074C229.617 3.074 229.839 3.17 230.031 3.362C230.223 3.554 230.319 3.776 230.319 4.028C230.319 4.316 230.229 4.562 230.049 4.766C229.869 4.958 229.641 5.054 229.365 5.054C229.077 5.054 228.831 4.958 228.627 4.766C228.435 4.562 228.339 4.316 228.339 4.028ZM233.982 4.028C233.982 3.776 234.078 3.554 234.27 3.362C234.474 3.17 234.72 3.074 235.008 3.074C235.26 3.074 235.482 3.17 235.674 3.362C235.866 3.554 235.962 3.776 235.962 4.028C235.962 4.316 235.872 4.562 235.692 4.766C235.512 4.958 235.284 5.054 235.008 5.054C234.72 5.054 234.474 4.958 234.27 4.766C234.078 4.562 233.982 4.316 233.982 4.028ZM239.625 4.028C239.625 3.776 239.721 3.554 239.913 3.362C240.117 3.17 240.363 3.074 240.651 3.074C240.903 3.074 241.125 3.17 241.317 3.362C241.509 3.554 241.605 3.776 241.605 4.028C241.605 4.316 241.515 4.562 241.335 4.766C241.155 4.958 240.927 5.054 240.651 5.054C240.363 5.054 240.117 4.958 239.913 4.766C239.721 4.562 239.625 4.316 239.625 4.028ZM245.267 4.028C245.267 3.776 245.363 3.554 245.555 3.362C245.759 3.17 246.005 3.074 246.293 3.074C246.545 3.074 246.767 3.17 246.959 3.362C247.151 3.554 247.247 3.776 247.247 4.028C247.247 4.316 247.157 4.562 246.977 4.766C246.797 4.958 246.569 5.054 246.293 5.054C246.005 5.054 245.759 4.958 245.555 4.766C245.363 4.562 245.267 4.316 245.267 4.028ZM250.91 4.028C250.91 3.776 251.006 3.554 251.198 3.362C251.402 3.17 251.648 3.074 251.936 3.074C252.188 3.074 252.41 3.17 252.602 3.362C252.794 3.554 252.89 3.776 252.89 4.028C252.89 4.316 252.8 4.562 252.62 4.766C252.44 4.958 252.212 5.054 251.936 5.054C251.648 5.054 251.402 4.958 251.198 4.766C251.006 4.562 250.91 4.316 250.91 4.028ZM-50.11 32.982V20.418C-48.442 20.37 -47.29 20.346 -46.654 20.346C-45.286 20.346 -44.272 20.622 -43.612 21.174C-42.94 21.714 -42.604 22.476 -42.604 23.46C-42.604 24.192 -42.796 24.804 -43.18 25.296C-43.564 25.788 -44.092 26.148 -44.764 26.376V26.412C-43.948 26.544 -43.312 26.868 -42.856 27.384C-42.388 27.9 -42.154 28.572 -42.154 29.4C-42.154 30.6 -42.562 31.512 -43.378 32.136C-44.194 32.748 -45.31 33.054 -46.726 33.054C-48.106 33.054 -49.234 33.03 -50.11 32.982ZM-46.546 27.258H-48.58V31.542C-48.088 31.59 -47.44 31.614 -46.636 31.614C-45.688 31.614 -44.962 31.422 -44.458 31.038C-43.942 30.642 -43.684 30.066 -43.684 29.31C-43.684 28.65 -43.936 28.146 -44.44 27.798C-44.932 27.438 -45.634 27.258 -46.546 27.258ZM-46.69 21.786C-47.05 21.786 -47.68 21.804 -48.58 21.84V25.908H-46.564C-45.856 25.908 -45.274 25.722 -44.818 25.35C-44.362 24.966 -44.134 24.45 -44.134 23.802C-44.134 22.458 -44.986 21.786 -46.69 21.786ZM-33.2046 30.984L-32.7546 32.118C-33.5346 32.826 -34.5486 33.18 -35.7966 33.18C-37.1166 33.18 -38.1666 32.796 -38.9466 32.028C-39.7386 31.26 -40.1346 30.234 -40.1346 28.95C-40.1346 27.738 -39.7626 26.73 -39.0186 25.926C-38.2866 25.122 -37.2666 24.72 -35.9586 24.72C-34.8786 24.72 -33.9846 25.068 -33.2766 25.764C-32.5566 26.448 -32.1966 27.336 -32.1966 28.428C-32.1966 28.776 -32.2266 29.1 -32.2866 29.4H-38.5146C-38.4546 30.156 -38.1726 30.75 -37.6686 31.182C-37.1526 31.614 -36.4926 31.83 -35.6886 31.83C-34.6326 31.83 -33.8046 31.548 -33.2046 30.984ZM-36.0306 26.07C-36.7386 26.07 -37.3266 26.268 -37.7946 26.664C-38.2506 27.06 -38.5206 27.582 -38.6046 28.23H-33.6906C-33.7266 27.558 -33.9546 27.03 -34.3746 26.646C-34.7826 26.262 -35.3346 26.07 -36.0306 26.07ZM-24.1205 30.786L-23.4365 31.83C-24.1325 32.73 -25.1705 33.18 -26.5505 33.18C-27.8465 33.18 -28.8965 32.796 -29.7005 32.028C-30.4925 31.26 -30.8885 30.234 -30.8885 28.95C-30.8885 27.762 -30.4985 26.76 -29.7185 25.944C-28.9385 25.128 -27.9605 24.72 -26.7845 24.72C-25.3685 24.72 -24.3065 25.074 -23.5985 25.782L-24.2645 26.916C-24.8885 26.352 -25.6625 26.07 -26.5865 26.07C-27.3425 26.07 -27.9965 26.346 -28.5485 26.898C-29.0885 27.438 -29.3585 28.122 -29.3585 28.95C-29.3585 29.826 -29.0825 30.522 -28.5305 31.038C-27.9665 31.566 -27.2705 31.83 -26.4425 31.83C-25.5065 31.83 -24.7325 31.482 -24.1205 30.786ZM-14.6781 32.028C-14.6781 31.776 -14.5821 31.554 -14.3901 31.362C-14.1861 31.17 -13.9401 31.074 -13.6521 31.074C-13.4001 31.074 -13.1781 31.17 -12.9861 31.362C-12.7941 31.554 -12.6981 31.776 -12.6981 32.028C-12.6981 32.316 -12.7881 32.562 -12.9681 32.766C-13.1481 32.958 -13.3761 33.054 -13.6521 33.054C-13.9401 33.054 -14.1861 32.958 -14.3901 32.766C-14.5821 32.562 -14.6781 32.316 -14.6781 32.028ZM-9.03555 32.028C-9.03555 31.776 -8.93955 31.554 -8.74755 31.362C-8.54355 31.17 -8.29755 31.074 -8.00955 31.074C-7.75755 31.074 -7.53555 31.17 -7.34355 31.362C-7.15155 31.554 -7.05555 31.776 -7.05555 32.028C-7.05555 32.316 -7.14555 32.562 -7.32555 32.766C-7.50555 32.958 -7.73355 33.054 -8.00955 33.054C-8.29755 33.054 -8.54355 32.958 -8.74755 32.766C-8.93955 32.562 -9.03555 32.316 -9.03555 32.028ZM-3.39297 32.028C-3.39297 31.776 -3.29697 31.554 -3.10497 31.362C-2.90097 31.17 -2.65497 31.074 -2.36697 31.074C-2.11497 31.074 -1.89297 31.17 -1.70097 31.362C-1.50897 31.554 -1.41297 31.776 -1.41297 32.028C-1.41297 32.316 -1.50297 32.562 -1.68297 32.766C-1.86297 32.958 -2.09097 33.054 -2.36697 33.054C-2.65497 33.054 -2.90097 32.958 -3.10497 32.766C-3.29697 32.562 -3.39297 32.316 -3.39297 32.028ZM2.24961 32.028C2.24961 31.776 2.34561 31.554 2.53761 31.362C2.74161 31.17 2.98761 31.074 3.27561 31.074C3.52761 31.074 3.74961 31.17 3.94161 31.362C4.13361 31.554 4.22961 31.776 4.22961 32.028C4.22961 32.316 4.13961 32.562 3.95961 32.766C3.77961 32.958 3.55161 33.054 3.27561 33.054C2.98761 33.054 2.74161 32.958 2.53761 32.766C2.34561 32.562 2.24961 32.316 2.24961 32.028ZM7.89219 32.028C7.89219 31.776 7.98819 31.554 8.18019 31.362C8.38419 31.17 8.63019 31.074 8.91819 31.074C9.17019 31.074 9.39219 31.17 9.58419 31.362C9.77619 31.554 9.87219 31.776 9.87219 32.028C9.87219 32.316 9.78219 32.562 9.60219 32.766C9.42219 32.958 9.19419 33.054 8.91819 33.054C8.63019 33.054 8.38419 32.958 8.18019 32.766C7.98819 32.562 7.89219 32.316 7.89219 32.028ZM13.5348 32.028C13.5348 31.776 13.6308 31.554 13.8228 31.362C14.0268 31.17 14.2728 31.074 14.5608 31.074C14.8128 31.074 15.0348 31.17 15.2268 31.362C15.4188 31.554 15.5148 31.776 15.5148 32.028C15.5148 32.316 15.4248 32.562 15.2448 32.766C15.0648 32.958 14.8368 33.054 14.5608 33.054C14.2728 33.054 14.0268 32.958 13.8228 32.766C13.6308 32.562 13.5348 32.316 13.5348 32.028ZM19.1773 32.028C19.1773 31.776 19.2733 31.554 19.4653 31.362C19.6693 31.17 19.9153 31.074 20.2033 31.074C20.4553 31.074 20.6773 31.17 20.8693 31.362C21.0613 31.554 21.1573 31.776 21.1573 32.028C21.1573 32.316 21.0673 32.562 20.8873 32.766C20.7073 32.958 20.4793 33.054 20.2033 33.054C19.9153 33.054 19.6693 32.958 19.4653 32.766C19.2733 32.562 19.1773 32.316 19.1773 32.028ZM24.8199 32.028C24.8199 31.776 24.9159 31.554 25.1079 31.362C25.3119 31.17 25.5579 31.074 25.8459 31.074C26.0979 31.074 26.3199 31.17 26.5119 31.362C26.7039 31.554 26.7999 31.776 26.7999 32.028C26.7999 32.316 26.7099 32.562 26.5299 32.766C26.3499 32.958 26.1219 33.054 25.8459 33.054C25.5579 33.054 25.3119 32.958 25.1079 32.766C24.9159 32.562 24.8199 32.316 24.8199 32.028ZM30.4625 32.028C30.4625 31.776 30.5585 31.554 30.7505 31.362C30.9545 31.17 31.2005 31.074 31.4885 31.074C31.7405 31.074 31.9625 31.17 32.1545 31.362C32.3465 31.554 32.4425 31.776 32.4425 32.028C32.4425 32.316 32.3525 32.562 32.1725 32.766C31.9925 32.958 31.7645 33.054 31.4885 33.054C31.2005 33.054 30.9545 32.958 30.7505 32.766C30.5585 32.562 30.4625 32.316 30.4625 32.028ZM36.1051 32.028C36.1051 31.776 36.2011 31.554 36.3931 31.362C36.5971 31.17 36.8431 31.074 37.1311 31.074C37.3831 31.074 37.6051 31.17 37.7971 31.362C37.9891 31.554 38.0851 31.776 38.0851 32.028C38.0851 32.316 37.9951 32.562 37.8151 32.766C37.6351 32.958 37.4071 33.054 37.1311 33.054C36.8431 33.054 36.5971 32.958 36.3931 32.766C36.2011 32.562 36.1051 32.316 36.1051 32.028ZM41.7477 32.028C41.7477 31.776 41.8437 31.554 42.0357 31.362C42.2397 31.17 42.4857 31.074 42.7737 31.074C43.0257 31.074 43.2477 31.17 43.4397 31.362C43.6317 31.554 43.7277 31.776 43.7277 32.028C43.7277 32.316 43.6377 32.562 43.4577 32.766C43.2777 32.958 43.0497 33.054 42.7737 33.054C42.4857 33.054 42.2397 32.958 42.0357 32.766C41.8437 32.562 41.7477 32.316 41.7477 32.028ZM47.3902 32.028C47.3902 31.776 47.4862 31.554 47.6782 31.362C47.8822 31.17 48.1282 31.074 48.4162 31.074C48.6682 31.074 48.8902 31.17 49.0822 31.362C49.2742 31.554 49.3702 31.776 49.3702 32.028C49.3702 32.316 49.2802 32.562 49.1002 32.766C48.9202 32.958 48.6922 33.054 48.4162 33.054C48.1282 33.054 47.8822 32.958 47.6782 32.766C47.4862 32.562 47.3902 32.316 47.3902 32.028ZM53.0328 32.028C53.0328 31.776 53.1288 31.554 53.3208 31.362C53.5248 31.17 53.7708 31.074 54.0588 31.074C54.3108 31.074 54.5328 31.17 54.7248 31.362C54.9168 31.554 55.0128 31.776 55.0128 32.028C55.0128 32.316 54.9228 32.562 54.7428 32.766C54.5628 32.958 54.3348 33.054 54.0588 33.054C53.7708 33.054 53.5248 32.958 53.3208 32.766C53.1288 32.562 53.0328 32.316 53.0328 32.028ZM58.6754 32.028C58.6754 31.776 58.7714 31.554 58.9634 31.362C59.1674 31.17 59.4134 31.074 59.7014 31.074C59.9534 31.074 60.1754 31.17 60.3674 31.362C60.5594 31.554 60.6554 31.776 60.6554 32.028C60.6554 32.316 60.5654 32.562 60.3854 32.766C60.2054 32.958 59.9774 33.054 59.7014 33.054C59.4134 33.054 59.1674 32.958 58.9634 32.766C58.7714 32.562 58.6754 32.316 58.6754 32.028ZM64.318 32.028C64.318 31.776 64.414 31.554 64.606 31.362C64.81 31.17 65.056 31.074 65.344 31.074C65.596 31.074 65.818 31.17 66.01 31.362C66.202 31.554 66.298 31.776 66.298 32.028C66.298 32.316 66.208 32.562 66.028 32.766C65.848 32.958 65.62 33.054 65.344 33.054C65.056 33.054 64.81 32.958 64.606 32.766C64.414 32.562 64.318 32.316 64.318 32.028ZM69.9605 32.028C69.9605 31.776 70.0565 31.554 70.2485 31.362C70.4525 31.17 70.6985 31.074 70.9865 31.074C71.2385 31.074 71.4605 31.17 71.6525 31.362C71.8445 31.554 71.9405 31.776 71.9405 32.028C71.9405 32.316 71.8505 32.562 71.6705 32.766C71.4905 32.958 71.2625 33.054 70.9865 33.054C70.6985 33.054 70.4525 32.958 70.2485 32.766C70.0565 32.562 69.9605 32.316 69.9605 32.028ZM75.6031 32.028C75.6031 31.776 75.6991 31.554 75.8911 31.362C76.0951 31.17 76.3411 31.074 76.6291 31.074C76.8811 31.074 77.1031 31.17 77.2951 31.362C77.4871 31.554 77.5831 31.776 77.5831 32.028C77.5831 32.316 77.4931 32.562 77.3131 32.766C77.1331 32.958 76.9051 33.054 76.6291 33.054C76.3411 33.054 76.0951 32.958 75.8911 32.766C75.6991 32.562 75.6031 32.316 75.6031 32.028ZM81.2457 32.028C81.2457 31.776 81.3417 31.554 81.5337 31.362C81.7377 31.17 81.9837 31.074 82.2717 31.074C82.5237 31.074 82.7457 31.17 82.9377 31.362C83.1297 31.554 83.2257 31.776 83.2257 32.028C83.2257 32.316 83.1357 32.562 82.9557 32.766C82.7757 32.958 82.5477 33.054 82.2717 33.054C81.9837 33.054 81.7377 32.958 81.5337 32.766C81.3417 32.562 81.2457 32.316 81.2457 32.028ZM86.8883 32.028C86.8883 31.776 86.9843 31.554 87.1763 31.362C87.3803 31.17 87.6263 31.074 87.9143 31.074C88.1663 31.074 88.3883 31.17 88.5803 31.362C88.7723 31.554 88.8683 31.776 88.8683 32.028C88.8683 32.316 88.7783 32.562 88.5983 32.766C88.4183 32.958 88.1903 33.054 87.9143 33.054C87.6263 33.054 87.3803 32.958 87.1763 32.766C86.9843 32.562 86.8883 32.316 86.8883 32.028ZM92.5309 32.028C92.5309 31.776 92.6269 31.554 92.8189 31.362C93.0229 31.17 93.2689 31.074 93.5569 31.074C93.8089 31.074 94.0309 31.17 94.2229 31.362C94.4149 31.554 94.5109 31.776 94.5109 32.028C94.5109 32.316 94.4209 32.562 94.2409 32.766C94.0609 32.958 93.8329 33.054 93.5569 33.054C93.2689 33.054 93.0229 32.958 92.8189 32.766C92.6269 32.562 92.5309 32.316 92.5309 32.028ZM98.1734 32.028C98.1734 31.776 98.2694 31.554 98.4614 31.362C98.6654 31.17 98.9114 31.074 99.1994 31.074C99.4514 31.074 99.6734 31.17 99.8654 31.362C100.057 31.554 100.153 31.776 100.153 32.028C100.153 32.316 100.063 32.562 99.8834 32.766C99.7034 32.958 99.4754 33.054 99.1994 33.054C98.9114 33.054 98.6654 32.958 98.4614 32.766C98.2694 32.562 98.1734 32.316 98.1734 32.028ZM103.816 32.028C103.816 31.776 103.912 31.554 104.104 31.362C104.308 31.17 104.554 31.074 104.842 31.074C105.094 31.074 105.316 31.17 105.508 31.362C105.7 31.554 105.796 31.776 105.796 32.028C105.796 32.316 105.706 32.562 105.526 32.766C105.346 32.958 105.118 33.054 104.842 33.054C104.554 33.054 104.308 32.958 104.104 32.766C103.912 32.562 103.816 32.316 103.816 32.028ZM109.459 32.028C109.459 31.776 109.555 31.554 109.747 31.362C109.951 31.17 110.197 31.074 110.485 31.074C110.737 31.074 110.959 31.17 111.151 31.362C111.343 31.554 111.439 31.776 111.439 32.028C111.439 32.316 111.349 32.562 111.169 32.766C110.989 32.958 110.761 33.054 110.485 33.054C110.197 33.054 109.951 32.958 109.747 32.766C109.555 32.562 109.459 32.316 109.459 32.028ZM115.101 32.028C115.101 31.776 115.197 31.554 115.389 31.362C115.593 31.17 115.839 31.074 116.127 31.074C116.379 31.074 116.601 31.17 116.793 31.362C116.985 31.554 117.081 31.776 117.081 32.028C117.081 32.316 116.991 32.562 116.811 32.766C116.631 32.958 116.403 33.054 116.127 33.054C115.839 33.054 115.593 32.958 115.389 32.766C115.197 32.562 115.101 32.316 115.101 32.028ZM120.744 32.028C120.744 31.776 120.84 31.554 121.032 31.362C121.236 31.17 121.482 31.074 121.77 31.074C122.022 31.074 122.244 31.17 122.436 31.362C122.628 31.554 122.724 31.776 122.724 32.028C122.724 32.316 122.634 32.562 122.454 32.766C122.274 32.958 122.046 33.054 121.77 33.054C121.482 33.054 121.236 32.958 121.032 32.766C120.84 32.562 120.744 32.316 120.744 32.028ZM126.386 32.028C126.386 31.776 126.482 31.554 126.674 31.362C126.878 31.17 127.124 31.074 127.412 31.074C127.664 31.074 127.886 31.17 128.078 31.362C128.27 31.554 128.366 31.776 128.366 32.028C128.366 32.316 128.276 32.562 128.096 32.766C127.916 32.958 127.688 33.054 127.412 33.054C127.124 33.054 126.878 32.958 126.674 32.766C126.482 32.562 126.386 32.316 126.386 32.028ZM132.029 32.028C132.029 31.776 132.125 31.554 132.317 31.362C132.521 31.17 132.767 31.074 133.055 31.074C133.307 31.074 133.529 31.17 133.721 31.362C133.913 31.554 134.009 31.776 134.009 32.028C134.009 32.316 133.919 32.562 133.739 32.766C133.559 32.958 133.331 33.054 133.055 33.054C132.767 33.054 132.521 32.958 132.317 32.766C132.125 32.562 132.029 32.316 132.029 32.028ZM137.671 32.028C137.671 31.776 137.767 31.554 137.959 31.362C138.163 31.17 138.409 31.074 138.697 31.074C138.949 31.074 139.171 31.17 139.363 31.362C139.555 31.554 139.651 31.776 139.651 32.028C139.651 32.316 139.561 32.562 139.381 32.766C139.201 32.958 138.973 33.054 138.697 33.054C138.409 33.054 138.163 32.958 137.959 32.766C137.767 32.562 137.671 32.316 137.671 32.028ZM143.314 32.028C143.314 31.776 143.41 31.554 143.602 31.362C143.806 31.17 144.052 31.074 144.34 31.074C144.592 31.074 144.814 31.17 145.006 31.362C145.198 31.554 145.294 31.776 145.294 32.028C145.294 32.316 145.204 32.562 145.024 32.766C144.844 32.958 144.616 33.054 144.34 33.054C144.052 33.054 143.806 32.958 143.602 32.766C143.41 32.562 143.314 32.316 143.314 32.028ZM148.957 32.028C148.957 31.776 149.053 31.554 149.245 31.362C149.449 31.17 149.695 31.074 149.983 31.074C150.235 31.074 150.457 31.17 150.649 31.362C150.841 31.554 150.937 31.776 150.937 32.028C150.937 32.316 150.847 32.562 150.667 32.766C150.487 32.958 150.259 33.054 149.983 33.054C149.695 33.054 149.449 32.958 149.245 32.766C149.053 32.562 148.957 32.316 148.957 32.028ZM154.599 32.028C154.599 31.776 154.695 31.554 154.887 31.362C155.091 31.17 155.337 31.074 155.625 31.074C155.877 31.074 156.099 31.17 156.291 31.362C156.483 31.554 156.579 31.776 156.579 32.028C156.579 32.316 156.489 32.562 156.309 32.766C156.129 32.958 155.901 33.054 155.625 33.054C155.337 33.054 155.091 32.958 154.887 32.766C154.695 32.562 154.599 32.316 154.599 32.028ZM160.242 32.028C160.242 31.776 160.338 31.554 160.53 31.362C160.734 31.17 160.98 31.074 161.268 31.074C161.52 31.074 161.742 31.17 161.934 31.362C162.126 31.554 162.222 31.776 162.222 32.028C162.222 32.316 162.132 32.562 161.952 32.766C161.772 32.958 161.544 33.054 161.268 33.054C160.98 33.054 160.734 32.958 160.53 32.766C160.338 32.562 160.242 32.316 160.242 32.028ZM165.884 32.028C165.884 31.776 165.98 31.554 166.172 31.362C166.376 31.17 166.622 31.074 166.91 31.074C167.162 31.074 167.384 31.17 167.576 31.362C167.768 31.554 167.864 31.776 167.864 32.028C167.864 32.316 167.774 32.562 167.594 32.766C167.414 32.958 167.186 33.054 166.91 33.054C166.622 33.054 166.376 32.958 166.172 32.766C165.98 32.562 165.884 32.316 165.884 32.028ZM171.527 32.028C171.527 31.776 171.623 31.554 171.815 31.362C172.019 31.17 172.265 31.074 172.553 31.074C172.805 31.074 173.027 31.17 173.219 31.362C173.411 31.554 173.507 31.776 173.507 32.028C173.507 32.316 173.417 32.562 173.237 32.766C173.057 32.958 172.829 33.054 172.553 33.054C172.265 33.054 172.019 32.958 171.815 32.766C171.623 32.562 171.527 32.316 171.527 32.028ZM177.17 32.028C177.17 31.776 177.266 31.554 177.458 31.362C177.662 31.17 177.908 31.074 178.196 31.074C178.448 31.074 178.67 31.17 178.862 31.362C179.054 31.554 179.15 31.776 179.15 32.028C179.15 32.316 179.06 32.562 178.88 32.766C178.7 32.958 178.472 33.054 178.196 33.054C177.908 33.054 177.662 32.958 177.458 32.766C177.266 32.562 177.17 32.316 177.17 32.028ZM182.812 32.028C182.812 31.776 182.908 31.554 183.1 31.362C183.304 31.17 183.55 31.074 183.838 31.074C184.09 31.074 184.312 31.17 184.504 31.362C184.696 31.554 184.792 31.776 184.792 32.028C184.792 32.316 184.702 32.562 184.522 32.766C184.342 32.958 184.114 33.054 183.838 33.054C183.55 33.054 183.304 32.958 183.1 32.766C182.908 32.562 182.812 32.316 182.812 32.028ZM188.455 32.028C188.455 31.776 188.551 31.554 188.743 31.362C188.947 31.17 189.193 31.074 189.481 31.074C189.733 31.074 189.955 31.17 190.147 31.362C190.339 31.554 190.435 31.776 190.435 32.028C190.435 32.316 190.345 32.562 190.165 32.766C189.985 32.958 189.757 33.054 189.481 33.054C189.193 33.054 188.947 32.958 188.743 32.766C188.551 32.562 188.455 32.316 188.455 32.028ZM194.097 32.028C194.097 31.776 194.193 31.554 194.385 31.362C194.589 31.17 194.835 31.074 195.123 31.074C195.375 31.074 195.597 31.17 195.789 31.362C195.981 31.554 196.077 31.776 196.077 32.028C196.077 32.316 195.987 32.562 195.807 32.766C195.627 32.958 195.399 33.054 195.123 33.054C194.835 33.054 194.589 32.958 194.385 32.766C194.193 32.562 194.097 32.316 194.097 32.028ZM199.74 32.028C199.74 31.776 199.836 31.554 200.028 31.362C200.232 31.17 200.478 31.074 200.766 31.074C201.018 31.074 201.24 31.17 201.432 31.362C201.624 31.554 201.72 31.776 201.72 32.028C201.72 32.316 201.63 32.562 201.45 32.766C201.27 32.958 201.042 33.054 200.766 33.054C200.478 33.054 200.232 32.958 200.028 32.766C199.836 32.562 199.74 32.316 199.74 32.028ZM205.382 32.028C205.382 31.776 205.478 31.554 205.67 31.362C205.874 31.17 206.12 31.074 206.408 31.074C206.66 31.074 206.882 31.17 207.074 31.362C207.266 31.554 207.362 31.776 207.362 32.028C207.362 32.316 207.272 32.562 207.092 32.766C206.912 32.958 206.684 33.054 206.408 33.054C206.12 33.054 205.874 32.958 205.67 32.766C205.478 32.562 205.382 32.316 205.382 32.028ZM211.025 32.028C211.025 31.776 211.121 31.554 211.313 31.362C211.517 31.17 211.763 31.074 212.051 31.074C212.303 31.074 212.525 31.17 212.717 31.362C212.909 31.554 213.005 31.776 213.005 32.028C213.005 32.316 212.915 32.562 212.735 32.766C212.555 32.958 212.327 33.054 212.051 33.054C211.763 33.054 211.517 32.958 211.313 32.766C211.121 32.562 211.025 32.316 211.025 32.028ZM216.668 32.028C216.668 31.776 216.764 31.554 216.956 31.362C217.16 31.17 217.406 31.074 217.694 31.074C217.946 31.074 218.168 31.17 218.36 31.362C218.552 31.554 218.648 31.776 218.648 32.028C218.648 32.316 218.558 32.562 218.378 32.766C218.198 32.958 217.97 33.054 217.694 33.054C217.406 33.054 217.16 32.958 216.956 32.766C216.764 32.562 216.668 32.316 216.668 32.028ZM222.31 32.028C222.31 31.776 222.406 31.554 222.598 31.362C222.802 31.17 223.048 31.074 223.336 31.074C223.588 31.074 223.81 31.17 224.002 31.362C224.194 31.554 224.29 31.776 224.29 32.028C224.29 32.316 224.2 32.562 224.02 32.766C223.84 32.958 223.612 33.054 223.336 33.054C223.048 33.054 222.802 32.958 222.598 32.766C222.406 32.562 222.31 32.316 222.31 32.028ZM227.953 32.028C227.953 31.776 228.049 31.554 228.241 31.362C228.445 31.17 228.691 31.074 228.979 31.074C229.231 31.074 229.453 31.17 229.645 31.362C229.837 31.554 229.933 31.776 229.933 32.028C229.933 32.316 229.843 32.562 229.663 32.766C229.483 32.958 229.255 33.054 228.979 33.054C228.691 33.054 228.445 32.958 228.241 32.766C228.049 32.562 227.953 32.316 227.953 32.028ZM233.595 32.028C233.595 31.776 233.691 31.554 233.883 31.362C234.087 31.17 234.333 31.074 234.621 31.074C234.873 31.074 235.095 31.17 235.287 31.362C235.479 31.554 235.575 31.776 235.575 32.028C235.575 32.316 235.485 32.562 235.305 32.766C235.125 32.958 234.897 33.054 234.621 33.054C234.333 33.054 234.087 32.958 233.883 32.766C233.691 32.562 233.595 32.316 233.595 32.028ZM239.238 32.028C239.238 31.776 239.334 31.554 239.526 31.362C239.73 31.17 239.976 31.074 240.264 31.074C240.516 31.074 240.738 31.17 240.93 31.362C241.122 31.554 241.218 31.776 241.218 32.028C241.218 32.316 241.128 32.562 240.948 32.766C240.768 32.958 240.54 33.054 240.264 33.054C239.976 33.054 239.73 32.958 239.526 32.766C239.334 32.562 239.238 32.316 239.238 32.028ZM244.88 32.028C244.88 31.776 244.976 31.554 245.168 31.362C245.372 31.17 245.618 31.074 245.906 31.074C246.158 31.074 246.38 31.17 246.572 31.362C246.764 31.554 246.86 31.776 246.86 32.028C246.86 32.316 246.77 32.562 246.59 32.766C246.41 32.958 246.182 33.054 245.906 33.054C245.618 33.054 245.372 32.958 245.168 32.766C244.976 32.562 244.88 32.316 244.88 32.028ZM250.523 32.028C250.523 31.776 250.619 31.554 250.811 31.362C251.015 31.17 251.261 31.074 251.549 31.074C251.801 31.074 252.023 31.17 252.215 31.362C252.407 31.554 252.503 31.776 252.503 32.028C252.503 32.316 252.413 32.562 252.233 32.766C252.053 32.958 251.825 33.054 251.549 33.054C251.261 33.054 251.015 32.958 250.811 32.766C250.619 32.562 250.523 32.316 250.523 32.028ZM-48.58 56.158V61H-50.11V48.4C-49.606 48.4 -49.072 48.394 -48.508 48.382C-47.944 48.37 -47.38 48.364 -46.816 48.364C-45.16 48.364 -43.972 48.736 -43.252 49.48C-42.52 50.212 -42.154 51.142 -42.154 52.27C-42.154 53.362 -42.55 54.298 -43.342 55.078C-44.11 55.846 -45.226 56.23 -46.69 56.23C-47.458 56.23 -48.088 56.206 -48.58 56.158ZM-46.672 49.804C-46.888 49.804 -47.524 49.816 -48.58 49.84V54.7C-47.824 54.76 -47.212 54.79 -46.744 54.79C-45.82 54.79 -45.094 54.568 -44.566 54.124C-44.038 53.668 -43.774 53.044 -43.774 52.252C-43.774 51.472 -44.02 50.872 -44.512 50.452C-44.992 50.02 -45.712 49.804 -46.672 49.804ZM-40.3177 59.992C-41.1097 59.176 -41.5057 58.162 -41.5057 56.95C-41.5057 55.726 -41.1097 54.718 -40.3177 53.926C-39.5137 53.122 -38.4697 52.72 -37.1857 52.72C-35.9017 52.72 -34.8637 53.122 -34.0717 53.926C-33.2677 54.718 -32.8657 55.726 -32.8657 56.95C-32.8657 58.174 -33.2677 59.188 -34.0717 59.992C-34.8637 60.784 -35.9017 61.18 -37.1857 61.18C-38.4577 61.18 -39.5017 60.784 -40.3177 59.992ZM-39.1837 54.88C-39.7117 55.408 -39.9757 56.098 -39.9757 56.95C-39.9757 57.802 -39.7177 58.492 -39.2017 59.02C-38.6737 59.56 -38.0017 59.83 -37.1857 59.83C-36.3697 59.83 -35.7037 59.566 -35.1877 59.038C-34.6597 58.498 -34.3957 57.802 -34.3957 56.95C-34.3957 56.122 -34.6597 55.432 -35.1877 54.88C-35.7037 54.34 -36.3697 54.07 -37.1857 54.07C-38.0017 54.07 -38.6677 54.34 -39.1837 54.88ZM-24.56 58.786L-23.876 59.83C-24.572 60.73 -25.61 61.18 -26.99 61.18C-28.286 61.18 -29.336 60.796 -30.14 60.028C-30.932 59.26 -31.328 58.234 -31.328 56.95C-31.328 55.762 -30.938 54.76 -30.158 53.944C-29.378 53.128 -28.4 52.72 -27.224 52.72C-25.808 52.72 -24.746 53.074 -24.038 53.782L-24.704 54.916C-25.328 54.352 -26.102 54.07 -27.026 54.07C-27.782 54.07 -28.436 54.346 -28.988 54.898C-29.528 55.438 -29.798 56.122 -29.798 56.95C-29.798 57.826 -29.522 58.522 -28.97 59.038C-28.406 59.566 -27.71 59.83 -26.882 59.83C-25.946 59.83 -25.172 59.482 -24.56 58.786ZM-20.1604 54.34H-23.1304V52.9H-15.7504V54.34H-18.7204V61H-20.1604V54.34ZM-7.29531 60.028C-7.29531 59.776 -7.19931 59.554 -7.00731 59.362C-6.80331 59.17 -6.55731 59.074 -6.26931 59.074C-6.01731 59.074 -5.79531 59.17 -5.60331 59.362C-5.41131 59.554 -5.31531 59.776 -5.31531 60.028C-5.31531 60.316 -5.40531 60.562 -5.58531 60.766C-5.76531 60.958 -5.99331 61.054 -6.26931 61.054C-6.55731 61.054 -6.80331 60.958 -7.00731 60.766C-7.19931 60.562 -7.29531 60.316 -7.29531 60.028ZM-1.65273 60.028C-1.65273 59.776 -1.55673 59.554 -1.36473 59.362C-1.16073 59.17 -0.914734 59.074 -0.626734 59.074C-0.374734 59.074 -0.152734 59.17 0.0392658 59.362C0.231266 59.554 0.327266 59.776 0.327266 60.028C0.327266 60.316 0.237266 60.562 0.0572658 60.766C-0.122734 60.958 -0.350734 61.054 -0.626734 61.054C-0.914734 61.054 -1.16073 60.958 -1.36473 60.766C-1.55673 60.562 -1.65273 60.316 -1.65273 60.028ZM3.98984 60.028C3.98984 59.776 4.08584 59.554 4.27784 59.362C4.48184 59.17 4.72784 59.074 5.01584 59.074C5.26784 59.074 5.48984 59.17 5.68184 59.362C5.87384 59.554 5.96984 59.776 5.96984 60.028C5.96984 60.316 5.87984 60.562 5.69984 60.766C5.51984 60.958 5.29184 61.054 5.01584 61.054C4.72784 61.054 4.48184 60.958 4.27784 60.766C4.08584 60.562 3.98984 60.316 3.98984 60.028ZM9.63242 60.028C9.63242 59.776 9.72842 59.554 9.92042 59.362C10.1244 59.17 10.3704 59.074 10.6584 59.074C10.9104 59.074 11.1324 59.17 11.3244 59.362C11.5164 59.554 11.6124 59.776 11.6124 60.028C11.6124 60.316 11.5224 60.562 11.3424 60.766C11.1624 60.958 10.9344 61.054 10.6584 61.054C10.3704 61.054 10.1244 60.958 9.92042 60.766C9.72842 60.562 9.63242 60.316 9.63242 60.028ZM15.275 60.028C15.275 59.776 15.371 59.554 15.563 59.362C15.767 59.17 16.013 59.074 16.301 59.074C16.553 59.074 16.775 59.17 16.967 59.362C17.159 59.554 17.255 59.776 17.255 60.028C17.255 60.316 17.165 60.562 16.985 60.766C16.805 60.958 16.577 61.054 16.301 61.054C16.013 61.054 15.767 60.958 15.563 60.766C15.371 60.562 15.275 60.316 15.275 60.028ZM20.9176 60.028C20.9176 59.776 21.0136 59.554 21.2056 59.362C21.4096 59.17 21.6556 59.074 21.9436 59.074C22.1956 59.074 22.4176 59.17 22.6096 59.362C22.8016 59.554 22.8976 59.776 22.8976 60.028C22.8976 60.316 22.8076 60.562 22.6276 60.766C22.4476 60.958 22.2196 61.054 21.9436 61.054C21.6556 61.054 21.4096 60.958 21.2056 60.766C21.0136 60.562 20.9176 60.316 20.9176 60.028ZM26.5602 60.028C26.5602 59.776 26.6562 59.554 26.8482 59.362C27.0522 59.17 27.2982 59.074 27.5862 59.074C27.8382 59.074 28.0602 59.17 28.2522 59.362C28.4442 59.554 28.5402 59.776 28.5402 60.028C28.5402 60.316 28.4502 60.562 28.2702 60.766C28.0902 60.958 27.8622 61.054 27.5862 61.054C27.2982 61.054 27.0522 60.958 26.8482 60.766C26.6562 60.562 26.5602 60.316 26.5602 60.028ZM32.2027 60.028C32.2027 59.776 32.2987 59.554 32.4907 59.362C32.6947 59.17 32.9407 59.074 33.2287 59.074C33.4807 59.074 33.7027 59.17 33.8947 59.362C34.0867 59.554 34.1827 59.776 34.1827 60.028C34.1827 60.316 34.0927 60.562 33.9127 60.766C33.7327 60.958 33.5047 61.054 33.2287 61.054C32.9407 61.054 32.6947 60.958 32.4907 60.766C32.2987 60.562 32.2027 60.316 32.2027 60.028ZM37.8453 60.028C37.8453 59.776 37.9413 59.554 38.1333 59.362C38.3373 59.17 38.5833 59.074 38.8713 59.074C39.1233 59.074 39.3453 59.17 39.5373 59.362C39.7293 59.554 39.8253 59.776 39.8253 60.028C39.8253 60.316 39.7353 60.562 39.5553 60.766C39.3753 60.958 39.1473 61.054 38.8713 61.054C38.5833 61.054 38.3373 60.958 38.1333 60.766C37.9413 60.562 37.8453 60.316 37.8453 60.028ZM43.4879 60.028C43.4879 59.776 43.5839 59.554 43.7759 59.362C43.9799 59.17 44.2259 59.074 44.5139 59.074C44.7659 59.074 44.9879 59.17 45.1799 59.362C45.3719 59.554 45.4679 59.776 45.4679 60.028C45.4679 60.316 45.3779 60.562 45.1979 60.766C45.0179 60.958 44.7899 61.054 44.5139 61.054C44.2259 61.054 43.9799 60.958 43.7759 60.766C43.5839 60.562 43.4879 60.316 43.4879 60.028ZM49.1305 60.028C49.1305 59.776 49.2265 59.554 49.4185 59.362C49.6225 59.17 49.8685 59.074 50.1565 59.074C50.4085 59.074 50.6305 59.17 50.8225 59.362C51.0145 59.554 51.1105 59.776 51.1105 60.028C51.1105 60.316 51.0205 60.562 50.8405 60.766C50.6605 60.958 50.4325 61.054 50.1565 61.054C49.8685 61.054 49.6225 60.958 49.4185 60.766C49.2265 60.562 49.1305 60.316 49.1305 60.028ZM54.773 60.028C54.773 59.776 54.869 59.554 55.061 59.362C55.265 59.17 55.511 59.074 55.799 59.074C56.051 59.074 56.273 59.17 56.465 59.362C56.657 59.554 56.753 59.776 56.753 60.028C56.753 60.316 56.663 60.562 56.483 60.766C56.303 60.958 56.075 61.054 55.799 61.054C55.511 61.054 55.265 60.958 55.061 60.766C54.869 60.562 54.773 60.316 54.773 60.028ZM60.4156 60.028C60.4156 59.776 60.5116 59.554 60.7036 59.362C60.9076 59.17 61.1536 59.074 61.4416 59.074C61.6936 59.074 61.9156 59.17 62.1076 59.362C62.2996 59.554 62.3956 59.776 62.3956 60.028C62.3956 60.316 62.3056 60.562 62.1256 60.766C61.9456 60.958 61.7176 61.054 61.4416 61.054C61.1536 61.054 60.9076 60.958 60.7036 60.766C60.5116 60.562 60.4156 60.316 60.4156 60.028ZM66.0582 60.028C66.0582 59.776 66.1542 59.554 66.3462 59.362C66.5502 59.17 66.7962 59.074 67.0842 59.074C67.3362 59.074 67.5582 59.17 67.7502 59.362C67.9422 59.554 68.0382 59.776 68.0382 60.028C68.0382 60.316 67.9482 60.562 67.7682 60.766C67.5882 60.958 67.3602 61.054 67.0842 61.054C66.7962 61.054 66.5502 60.958 66.3462 60.766C66.1542 60.562 66.0582 60.316 66.0582 60.028ZM71.7008 60.028C71.7008 59.776 71.7968 59.554 71.9888 59.362C72.1928 59.17 72.4388 59.074 72.7268 59.074C72.9788 59.074 73.2008 59.17 73.3928 59.362C73.5848 59.554 73.6808 59.776 73.6808 60.028C73.6808 60.316 73.5908 60.562 73.4108 60.766C73.2308 60.958 73.0028 61.054 72.7268 61.054C72.4388 61.054 72.1928 60.958 71.9888 60.766C71.7968 60.562 71.7008 60.316 71.7008 60.028ZM77.3434 60.028C77.3434 59.776 77.4394 59.554 77.6314 59.362C77.8354 59.17 78.0814 59.074 78.3694 59.074C78.6214 59.074 78.8434 59.17 79.0354 59.362C79.2274 59.554 79.3234 59.776 79.3234 60.028C79.3234 60.316 79.2334 60.562 79.0534 60.766C78.8734 60.958 78.6454 61.054 78.3694 61.054C78.0814 61.054 77.8354 60.958 77.6314 60.766C77.4394 60.562 77.3434 60.316 77.3434 60.028ZM82.9859 60.028C82.9859 59.776 83.0819 59.554 83.2739 59.362C83.4779 59.17 83.7239 59.074 84.0119 59.074C84.2639 59.074 84.4859 59.17 84.6779 59.362C84.8699 59.554 84.9659 59.776 84.9659 60.028C84.9659 60.316 84.8759 60.562 84.6959 60.766C84.5159 60.958 84.2879 61.054 84.0119 61.054C83.7239 61.054 83.4779 60.958 83.2739 60.766C83.0819 60.562 82.9859 60.316 82.9859 60.028ZM88.6285 60.028C88.6285 59.776 88.7245 59.554 88.9165 59.362C89.1205 59.17 89.3665 59.074 89.6545 59.074C89.9065 59.074 90.1285 59.17 90.3205 59.362C90.5125 59.554 90.6085 59.776 90.6085 60.028C90.6085 60.316 90.5185 60.562 90.3385 60.766C90.1585 60.958 89.9305 61.054 89.6545 61.054C89.3665 61.054 89.1205 60.958 88.9165 60.766C88.7245 60.562 88.6285 60.316 88.6285 60.028ZM94.2711 60.028C94.2711 59.776 94.3671 59.554 94.5591 59.362C94.7631 59.17 95.0091 59.074 95.2971 59.074C95.5491 59.074 95.7711 59.17 95.9631 59.362C96.1551 59.554 96.2511 59.776 96.2511 60.028C96.2511 60.316 96.1611 60.562 95.9811 60.766C95.8011 60.958 95.5731 61.054 95.2971 61.054C95.0091 61.054 94.7631 60.958 94.5591 60.766C94.3671 60.562 94.2711 60.316 94.2711 60.028ZM99.9137 60.028C99.9137 59.776 100.01 59.554 100.202 59.362C100.406 59.17 100.652 59.074 100.94 59.074C101.192 59.074 101.414 59.17 101.606 59.362C101.798 59.554 101.894 59.776 101.894 60.028C101.894 60.316 101.804 60.562 101.624 60.766C101.444 60.958 101.216 61.054 100.94 61.054C100.652 61.054 100.406 60.958 100.202 60.766C100.01 60.562 99.9137 60.316 99.9137 60.028ZM105.556 60.028C105.556 59.776 105.652 59.554 105.844 59.362C106.048 59.17 106.294 59.074 106.582 59.074C106.834 59.074 107.056 59.17 107.248 59.362C107.44 59.554 107.536 59.776 107.536 60.028C107.536 60.316 107.446 60.562 107.266 60.766C107.086 60.958 106.858 61.054 106.582 61.054C106.294 61.054 106.048 60.958 105.844 60.766C105.652 60.562 105.556 60.316 105.556 60.028ZM111.199 60.028C111.199 59.776 111.295 59.554 111.487 59.362C111.691 59.17 111.937 59.074 112.225 59.074C112.477 59.074 112.699 59.17 112.891 59.362C113.083 59.554 113.179 59.776 113.179 60.028C113.179 60.316 113.089 60.562 112.909 60.766C112.729 60.958 112.501 61.054 112.225 61.054C111.937 61.054 111.691 60.958 111.487 60.766C111.295 60.562 111.199 60.316 111.199 60.028ZM116.841 60.028C116.841 59.776 116.937 59.554 117.129 59.362C117.333 59.17 117.579 59.074 117.867 59.074C118.119 59.074 118.341 59.17 118.533 59.362C118.725 59.554 118.821 59.776 118.821 60.028C118.821 60.316 118.731 60.562 118.551 60.766C118.371 60.958 118.143 61.054 117.867 61.054C117.579 61.054 117.333 60.958 117.129 60.766C116.937 60.562 116.841 60.316 116.841 60.028ZM122.484 60.028C122.484 59.776 122.58 59.554 122.772 59.362C122.976 59.17 123.222 59.074 123.51 59.074C123.762 59.074 123.984 59.17 124.176 59.362C124.368 59.554 124.464 59.776 124.464 60.028C124.464 60.316 124.374 60.562 124.194 60.766C124.014 60.958 123.786 61.054 123.51 61.054C123.222 61.054 122.976 60.958 122.772 60.766C122.58 60.562 122.484 60.316 122.484 60.028ZM128.127 60.028C128.127 59.776 128.223 59.554 128.415 59.362C128.619 59.17 128.865 59.074 129.153 59.074C129.405 59.074 129.627 59.17 129.819 59.362C130.011 59.554 130.107 59.776 130.107 60.028C130.107 60.316 130.017 60.562 129.837 60.766C129.657 60.958 129.429 61.054 129.153 61.054C128.865 61.054 128.619 60.958 128.415 60.766C128.223 60.562 128.127 60.316 128.127 60.028ZM133.769 60.028C133.769 59.776 133.865 59.554 134.057 59.362C134.261 59.17 134.507 59.074 134.795 59.074C135.047 59.074 135.269 59.17 135.461 59.362C135.653 59.554 135.749 59.776 135.749 60.028C135.749 60.316 135.659 60.562 135.479 60.766C135.299 60.958 135.071 61.054 134.795 61.054C134.507 61.054 134.261 60.958 134.057 60.766C133.865 60.562 133.769 60.316 133.769 60.028ZM139.412 60.028C139.412 59.776 139.508 59.554 139.7 59.362C139.904 59.17 140.15 59.074 140.438 59.074C140.69 59.074 140.912 59.17 141.104 59.362C141.296 59.554 141.392 59.776 141.392 60.028C141.392 60.316 141.302 60.562 141.122 60.766C140.942 60.958 140.714 61.054 140.438 61.054C140.15 61.054 139.904 60.958 139.7 60.766C139.508 60.562 139.412 60.316 139.412 60.028ZM145.054 60.028C145.054 59.776 145.15 59.554 145.342 59.362C145.546 59.17 145.792 59.074 146.08 59.074C146.332 59.074 146.554 59.17 146.746 59.362C146.938 59.554 147.034 59.776 147.034 60.028C147.034 60.316 146.944 60.562 146.764 60.766C146.584 60.958 146.356 61.054 146.08 61.054C145.792 61.054 145.546 60.958 145.342 60.766C145.15 60.562 145.054 60.316 145.054 60.028ZM150.697 60.028C150.697 59.776 150.793 59.554 150.985 59.362C151.189 59.17 151.435 59.074 151.723 59.074C151.975 59.074 152.197 59.17 152.389 59.362C152.581 59.554 152.677 59.776 152.677 60.028C152.677 60.316 152.587 60.562 152.407 60.766C152.227 60.958 151.999 61.054 151.723 61.054C151.435 61.054 151.189 60.958 150.985 60.766C150.793 60.562 150.697 60.316 150.697 60.028ZM156.339 60.028C156.339 59.776 156.435 59.554 156.627 59.362C156.831 59.17 157.077 59.074 157.365 59.074C157.617 59.074 157.839 59.17 158.031 59.362C158.223 59.554 158.319 59.776 158.319 60.028C158.319 60.316 158.229 60.562 158.049 60.766C157.869 60.958 157.641 61.054 157.365 61.054C157.077 61.054 156.831 60.958 156.627 60.766C156.435 60.562 156.339 60.316 156.339 60.028ZM161.982 60.028C161.982 59.776 162.078 59.554 162.27 59.362C162.474 59.17 162.72 59.074 163.008 59.074C163.26 59.074 163.482 59.17 163.674 59.362C163.866 59.554 163.962 59.776 163.962 60.028C163.962 60.316 163.872 60.562 163.692 60.766C163.512 60.958 163.284 61.054 163.008 61.054C162.72 61.054 162.474 60.958 162.27 60.766C162.078 60.562 161.982 60.316 161.982 60.028ZM167.625 60.028C167.625 59.776 167.721 59.554 167.913 59.362C168.117 59.17 168.363 59.074 168.651 59.074C168.903 59.074 169.125 59.17 169.317 59.362C169.509 59.554 169.605 59.776 169.605 60.028C169.605 60.316 169.515 60.562 169.335 60.766C169.155 60.958 168.927 61.054 168.651 61.054C168.363 61.054 168.117 60.958 167.913 60.766C167.721 60.562 167.625 60.316 167.625 60.028ZM173.267 60.028C173.267 59.776 173.363 59.554 173.555 59.362C173.759 59.17 174.005 59.074 174.293 59.074C174.545 59.074 174.767 59.17 174.959 59.362C175.151 59.554 175.247 59.776 175.247 60.028C175.247 60.316 175.157 60.562 174.977 60.766C174.797 60.958 174.569 61.054 174.293 61.054C174.005 61.054 173.759 60.958 173.555 60.766C173.363 60.562 173.267 60.316 173.267 60.028ZM178.91 60.028C178.91 59.776 179.006 59.554 179.198 59.362C179.402 59.17 179.648 59.074 179.936 59.074C180.188 59.074 180.41 59.17 180.602 59.362C180.794 59.554 180.89 59.776 180.89 60.028C180.89 60.316 180.8 60.562 180.62 60.766C180.44 60.958 180.212 61.054 179.936 61.054C179.648 61.054 179.402 60.958 179.198 60.766C179.006 60.562 178.91 60.316 178.91 60.028ZM184.552 60.028C184.552 59.776 184.648 59.554 184.84 59.362C185.044 59.17 185.29 59.074 185.578 59.074C185.83 59.074 186.052 59.17 186.244 59.362C186.436 59.554 186.532 59.776 186.532 60.028C186.532 60.316 186.442 60.562 186.262 60.766C186.082 60.958 185.854 61.054 185.578 61.054C185.29 61.054 185.044 60.958 184.84 60.766C184.648 60.562 184.552 60.316 184.552 60.028ZM190.195 60.028C190.195 59.776 190.291 59.554 190.483 59.362C190.687 59.17 190.933 59.074 191.221 59.074C191.473 59.074 191.695 59.17 191.887 59.362C192.079 59.554 192.175 59.776 192.175 60.028C192.175 60.316 192.085 60.562 191.905 60.766C191.725 60.958 191.497 61.054 191.221 61.054C190.933 61.054 190.687 60.958 190.483 60.766C190.291 60.562 190.195 60.316 190.195 60.028ZM195.838 60.028C195.838 59.776 195.934 59.554 196.125 59.362C196.33 59.17 196.576 59.074 196.864 59.074C197.116 59.074 197.338 59.17 197.53 59.362C197.722 59.554 197.818 59.776 197.818 60.028C197.818 60.316 197.728 60.562 197.548 60.766C197.368 60.958 197.14 61.054 196.864 61.054C196.576 61.054 196.33 60.958 196.125 60.766C195.934 60.562 195.838 60.316 195.838 60.028ZM201.48 60.028C201.48 59.776 201.576 59.554 201.768 59.362C201.972 59.17 202.218 59.074 202.506 59.074C202.758 59.074 202.98 59.17 203.172 59.362C203.364 59.554 203.46 59.776 203.46 60.028C203.46 60.316 203.37 60.562 203.19 60.766C203.01 60.958 202.782 61.054 202.506 61.054C202.218 61.054 201.972 60.958 201.768 60.766C201.576 60.562 201.48 60.316 201.48 60.028ZM207.123 60.028C207.123 59.776 207.219 59.554 207.411 59.362C207.615 59.17 207.861 59.074 208.149 59.074C208.401 59.074 208.623 59.17 208.815 59.362C209.007 59.554 209.103 59.776 209.103 60.028C209.103 60.316 209.013 60.562 208.833 60.766C208.653 60.958 208.425 61.054 208.149 61.054C207.861 61.054 207.615 60.958 207.411 60.766C207.219 60.562 207.123 60.316 207.123 60.028ZM212.765 60.028C212.765 59.776 212.861 59.554 213.053 59.362C213.257 59.17 213.503 59.074 213.791 59.074C214.043 59.074 214.265 59.17 214.457 59.362C214.649 59.554 214.745 59.776 214.745 60.028C214.745 60.316 214.655 60.562 214.475 60.766C214.295 60.958 214.067 61.054 213.791 61.054C213.503 61.054 213.257 60.958 213.053 60.766C212.861 60.562 212.765 60.316 212.765 60.028ZM218.408 60.028C218.408 59.776 218.504 59.554 218.696 59.362C218.9 59.17 219.146 59.074 219.434 59.074C219.686 59.074 219.908 59.17 220.1 59.362C220.292 59.554 220.388 59.776 220.388 60.028C220.388 60.316 220.298 60.562 220.118 60.766C219.938 60.958 219.71 61.054 219.434 61.054C219.146 61.054 218.9 60.958 218.696 60.766C218.504 60.562 218.408 60.316 218.408 60.028ZM224.05 60.028C224.05 59.776 224.146 59.554 224.338 59.362C224.542 59.17 224.788 59.074 225.076 59.074C225.328 59.074 225.55 59.17 225.742 59.362C225.934 59.554 226.03 59.776 226.03 60.028C226.03 60.316 225.94 60.562 225.76 60.766C225.58 60.958 225.352 61.054 225.076 61.054C224.788 61.054 224.542 60.958 224.338 60.766C224.146 60.562 224.05 60.316 224.05 60.028ZM229.693 60.028C229.693 59.776 229.789 59.554 229.981 59.362C230.185 59.17 230.431 59.074 230.719 59.074C230.971 59.074 231.193 59.17 231.385 59.362C231.577 59.554 231.673 59.776 231.673 60.028C231.673 60.316 231.583 60.562 231.403 60.766C231.223 60.958 230.995 61.054 230.719 61.054C230.431 61.054 230.185 60.958 229.981 60.766C229.789 60.562 229.693 60.316 229.693 60.028ZM235.336 60.028C235.336 59.776 235.432 59.554 235.624 59.362C235.828 59.17 236.074 59.074 236.362 59.074C236.614 59.074 236.836 59.17 237.028 59.362C237.22 59.554 237.316 59.776 237.316 60.028C237.316 60.316 237.226 60.562 237.046 60.766C236.866 60.958 236.638 61.054 236.362 61.054C236.074 61.054 235.828 60.958 235.624 60.766C235.432 60.562 235.336 60.316 235.336 60.028ZM240.978 60.028C240.978 59.776 241.074 59.554 241.266 59.362C241.47 59.17 241.716 59.074 242.004 59.074C242.256 59.074 242.478 59.17 242.67 59.362C242.862 59.554 242.958 59.776 242.958 60.028C242.958 60.316 242.868 60.562 242.688 60.766C242.508 60.958 242.28 61.054 242.004 61.054C241.716 61.054 241.47 60.958 241.266 60.766C241.074 60.562 240.978 60.316 240.978 60.028ZM246.621 60.028C246.621 59.776 246.717 59.554 246.909 59.362C247.113 59.17 247.359 59.074 247.647 59.074C247.899 59.074 248.121 59.17 248.313 59.362C248.505 59.554 248.601 59.776 248.601 60.028C248.601 60.316 248.511 60.562 248.331 60.766C248.151 60.958 247.923 61.054 247.647 61.054C247.359 61.054 247.113 60.958 246.909 60.766C246.717 60.562 246.621 60.316 246.621 60.028ZM252.263 60.028C252.263 59.776 252.359 59.554 252.551 59.362C252.755 59.17 253.001 59.074 253.289 59.074C253.541 59.074 253.763 59.17 253.955 59.362C254.147 59.554 254.243 59.776 254.243 60.028C254.243 60.316 254.153 60.562 253.973 60.766C253.793 60.958 253.565 61.054 253.289 61.054C253.001 61.054 252.755 60.958 252.551 60.766C252.359 60.562 252.263 60.316 252.263 60.028ZM-50.11 88.982V76.418C-48.442 76.37 -47.29 76.346 -46.654 76.346C-45.286 76.346 -44.272 76.622 -43.612 77.174C-42.94 77.714 -42.604 78.476 -42.604 79.46C-42.604 80.192 -42.796 80.804 -43.18 81.296C-43.564 81.788 -44.092 82.148 -44.764 82.376V82.412C-43.948 82.544 -43.312 82.868 -42.856 83.384C-42.388 83.9 -42.154 84.572 -42.154 85.4C-42.154 86.6 -42.562 87.512 -43.378 88.136C-44.194 88.748 -45.31 89.054 -46.726 89.054C-48.106 89.054 -49.234 89.03 -50.11 88.982ZM-46.546 83.258H-48.58V87.542C-48.088 87.59 -47.44 87.614 -46.636 87.614C-45.688 87.614 -44.962 87.422 -44.458 87.038C-43.942 86.642 -43.684 86.066 -43.684 85.31C-43.684 84.65 -43.936 84.146 -44.44 83.798C-44.932 83.438 -45.634 83.258 -46.546 83.258ZM-46.69 77.786C-47.05 77.786 -47.68 77.804 -48.58 77.84V81.908H-46.564C-45.856 81.908 -45.274 81.722 -44.818 81.35C-44.362 80.966 -44.134 80.45 -44.134 79.802C-44.134 78.458 -44.986 77.786 -46.69 77.786ZM-38.9466 87.992C-39.7386 87.176 -40.1346 86.162 -40.1346 84.95C-40.1346 83.726 -39.7386 82.718 -38.9466 81.926C-38.1426 81.122 -37.0986 80.72 -35.8146 80.72C-34.5306 80.72 -33.4926 81.122 -32.7006 81.926C-31.8966 82.718 -31.4946 83.726 -31.4946 84.95C-31.4946 86.174 -31.8966 87.188 -32.7006 87.992C-33.4926 88.784 -34.5306 89.18 -35.8146 89.18C-37.0866 89.18 -38.1306 88.784 -38.9466 87.992ZM-37.8126 82.88C-38.3406 83.408 -38.6046 84.098 -38.6046 84.95C-38.6046 85.802 -38.3466 86.492 -37.8306 87.02C-37.3026 87.56 -36.6306 87.83 -35.8146 87.83C-34.9986 87.83 -34.3326 87.566 -33.8166 87.038C-33.2886 86.498 -33.0246 85.802 -33.0246 84.95C-33.0246 84.122 -33.2886 83.432 -33.8166 82.88C-34.3326 82.34 -34.9986 82.07 -35.8146 82.07C-36.6306 82.07 -37.2966 82.34 -37.8126 82.88ZM-26.7349 89.18C-27.3469 89.18 -27.9949 89.078 -28.6789 88.874C-29.3389 88.658 -29.8069 88.394 -30.0829 88.082L-29.3449 87.002C-29.0209 87.266 -28.6369 87.482 -28.1929 87.65C-27.7369 87.806 -27.3229 87.884 -26.9509 87.884C-26.3269 87.884 -25.8169 87.764 -25.4209 87.524C-25.0249 87.272 -24.8269 86.948 -24.8269 86.552C-24.8269 86.216 -24.9709 85.958 -25.2589 85.778C-25.5349 85.598 -25.9189 85.508 -26.4109 85.508H-27.7789V84.338H-26.5009C-26.0929 84.338 -25.7569 84.23 -25.4929 84.014C-25.2289 83.786 -25.0969 83.51 -25.0969 83.186C-25.0969 82.826 -25.2529 82.544 -25.5649 82.34C-25.8769 82.124 -26.2969 82.016 -26.8249 82.016C-27.6769 82.016 -28.4869 82.316 -29.2549 82.916L-29.8129 81.8C-29.4889 81.464 -29.0389 81.2 -28.4629 81.008C-27.8749 80.816 -27.2569 80.72 -26.6089 80.72C-25.6489 80.72 -24.9049 80.912 -24.3769 81.296C-23.8369 81.68 -23.5669 82.214 -23.5669 82.898C-23.5669 83.834 -24.0409 84.47 -24.9889 84.806V84.842C-24.4609 84.902 -24.0469 85.112 -23.7469 85.472C-23.4469 85.82 -23.2969 86.246 -23.2969 86.75C-23.2969 87.494 -23.6149 88.088 -24.2509 88.532C-24.8749 88.964 -25.7029 89.18 -26.7349 89.18ZM-19.6624 92.6H-21.1024V80.9H-19.6624V81.854C-19.3744 81.518 -18.9784 81.248 -18.4744 81.044C-17.9704 80.828 -17.4484 80.72 -16.9084 80.72C-15.7564 80.72 -14.8504 81.104 -14.1904 81.872C-13.5064 82.628 -13.1644 83.612 -13.1644 84.824C-13.1644 86.06 -13.5544 87.098 -14.3344 87.938C-15.1024 88.766 -16.1164 89.18 -17.3764 89.18C-18.3484 89.18 -19.1104 88.994 -19.6624 88.622V92.6ZM-17.3224 82.07C-18.2824 82.07 -19.0624 82.442 -19.6624 83.186V87.2C-19.0264 87.62 -18.3064 87.83 -17.5024 87.83C-16.6504 87.83 -15.9724 87.56 -15.4684 87.02C-14.9524 86.468 -14.6944 85.754 -14.6944 84.878C-14.6944 84.026 -14.9284 83.348 -15.3964 82.844C-15.8644 82.328 -16.5064 82.07 -17.3224 82.07ZM-10.6685 82.61L-11.0465 81.458C-10.2425 80.966 -9.34248 80.72 -8.34648 80.72C-7.25448 80.72 -6.46248 80.99 -5.97048 81.53C-5.47848 82.07 -5.23248 82.904 -5.23248 84.032V89H-6.60048V87.956C-7.23648 88.736 -8.10048 89.126 -9.19248 89.126C-9.93648 89.126 -10.5365 88.904 -10.9925 88.46C-11.4485 88.004 -11.6765 87.392 -11.6765 86.624C-11.6765 85.832 -11.3945 85.208 -10.8305 84.752C-10.2665 84.284 -9.52848 84.05 -8.61648 84.05C-7.76448 84.05 -7.09248 84.224 -6.60048 84.572C-6.60048 83.66 -6.72648 83.006 -6.97848 82.61C-7.23048 82.214 -7.71648 82.016 -8.43648 82.016C-9.16848 82.016 -9.91248 82.214 -10.6685 82.61ZM-8.68848 87.83C-7.88448 87.83 -7.18848 87.482 -6.60048 86.786V85.76C-7.10448 85.4 -7.71048 85.22 -8.41848 85.22C-8.91048 85.22 -9.32448 85.34 -9.66048 85.58C-9.98448 85.808 -10.1465 86.132 -10.1465 86.552C-10.1465 86.948 -10.0205 87.26 -9.76848 87.488C-9.50448 87.716 -9.14448 87.83 -8.68848 87.83ZM3.40681 86.786L4.09081 87.83C3.39481 88.73 2.35681 89.18 0.976813 89.18C-0.319187 89.18 -1.36919 88.796 -2.17319 88.028C-2.96519 87.26 -3.36119 86.234 -3.36119 84.95C-3.36119 83.762 -2.97119 82.76 -2.19119 81.944C-1.41119 81.128 -0.433187 80.72 0.742813 80.72C2.15881 80.72 3.22081 81.074 3.92881 81.782L3.26281 82.916C2.63881 82.352 1.86481 82.07 0.940813 82.07C0.184813 82.07 -0.469187 82.346 -1.02119 82.898C-1.56119 83.438 -1.83119 84.122 -1.83119 84.95C-1.83119 85.826 -1.55519 86.522 -1.00319 87.038C-0.439187 87.566 0.256813 87.83 1.08481 87.83C2.02081 87.83 2.79481 87.482 3.40681 86.786ZM7.80641 82.34H4.83641V80.9H12.2164V82.34H9.24641V89H7.80641V82.34ZM20.6715 88.028C20.6715 87.776 20.7675 87.554 20.9595 87.362C21.1635 87.17 21.4095 87.074 21.6975 87.074C21.9495 87.074 22.1715 87.17 22.3635 87.362C22.5555 87.554 22.6515 87.776 22.6515 88.028C22.6515 88.316 22.5615 88.562 22.3815 88.766C22.2015 88.958 21.9735 89.054 21.6975 89.054C21.4095 89.054 21.1635 88.958 20.9595 88.766C20.7675 88.562 20.6715 88.316 20.6715 88.028ZM26.3141 88.028C26.3141 87.776 26.4101 87.554 26.6021 87.362C26.8061 87.17 27.0521 87.074 27.3401 87.074C27.5921 87.074 27.8141 87.17 28.0061 87.362C28.1981 87.554 28.2941 87.776 28.2941 88.028C28.2941 88.316 28.2041 88.562 28.0241 88.766C27.8441 88.958 27.6161 89.054 27.3401 89.054C27.0521 89.054 26.8061 88.958 26.6021 88.766C26.4101 88.562 26.3141 88.316 26.3141 88.028ZM31.9566 88.028C31.9566 87.776 32.0526 87.554 32.2446 87.362C32.4486 87.17 32.6946 87.074 32.9826 87.074C33.2346 87.074 33.4566 87.17 33.6486 87.362C33.8406 87.554 33.9366 87.776 33.9366 88.028C33.9366 88.316 33.8466 88.562 33.6666 88.766C33.4866 88.958 33.2586 89.054 32.9826 89.054C32.6946 89.054 32.4486 88.958 32.2446 88.766C32.0526 88.562 31.9566 88.316 31.9566 88.028ZM37.5992 88.028C37.5992 87.776 37.6952 87.554 37.8872 87.362C38.0912 87.17 38.3372 87.074 38.6252 87.074C38.8772 87.074 39.0992 87.17 39.2912 87.362C39.4832 87.554 39.5792 87.776 39.5792 88.028C39.5792 88.316 39.4892 88.562 39.3092 88.766C39.1292 88.958 38.9012 89.054 38.6252 89.054C38.3372 89.054 38.0912 88.958 37.8872 88.766C37.6952 88.562 37.5992 88.316 37.5992 88.028ZM43.2418 88.028C43.2418 87.776 43.3378 87.554 43.5298 87.362C43.7338 87.17 43.9798 87.074 44.2678 87.074C44.5198 87.074 44.7418 87.17 44.9338 87.362C45.1258 87.554 45.2218 87.776 45.2218 88.028C45.2218 88.316 45.1318 88.562 44.9518 88.766C44.7718 88.958 44.5438 89.054 44.2678 89.054C43.9798 89.054 43.7338 88.958 43.5298 88.766C43.3378 88.562 43.2418 88.316 43.2418 88.028ZM48.8844 88.028C48.8844 87.776 48.9804 87.554 49.1724 87.362C49.3764 87.17 49.6224 87.074 49.9104 87.074C50.1624 87.074 50.3844 87.17 50.5764 87.362C50.7684 87.554 50.8644 87.776 50.8644 88.028C50.8644 88.316 50.7744 88.562 50.5944 88.766C50.4144 88.958 50.1864 89.054 49.9104 89.054C49.6224 89.054 49.3764 88.958 49.1724 88.766C48.9804 88.562 48.8844 88.316 48.8844 88.028ZM54.527 88.028C54.527 87.776 54.623 87.554 54.815 87.362C55.019 87.17 55.265 87.074 55.553 87.074C55.805 87.074 56.027 87.17 56.219 87.362C56.411 87.554 56.507 87.776 56.507 88.028C56.507 88.316 56.417 88.562 56.237 88.766C56.057 88.958 55.829 89.054 55.553 89.054C55.265 89.054 55.019 88.958 54.815 88.766C54.623 88.562 54.527 88.316 54.527 88.028ZM60.1695 88.028C60.1695 87.776 60.2655 87.554 60.4575 87.362C60.6615 87.17 60.9075 87.074 61.1955 87.074C61.4475 87.074 61.6695 87.17 61.8615 87.362C62.0535 87.554 62.1495 87.776 62.1495 88.028C62.1495 88.316 62.0595 88.562 61.8795 88.766C61.6995 88.958 61.4715 89.054 61.1955 89.054C60.9075 89.054 60.6615 88.958 60.4575 88.766C60.2655 88.562 60.1695 88.316 60.1695 88.028ZM65.8121 88.028C65.8121 87.776 65.9081 87.554 66.1001 87.362C66.3041 87.17 66.5501 87.074 66.8381 87.074C67.0901 87.074 67.3121 87.17 67.5041 87.362C67.6961 87.554 67.7921 87.776 67.7921 88.028C67.7921 88.316 67.7021 88.562 67.5221 88.766C67.3421 88.958 67.1141 89.054 66.8381 89.054C66.5501 89.054 66.3041 88.958 66.1001 88.766C65.9081 88.562 65.8121 88.316 65.8121 88.028ZM71.4547 88.028C71.4547 87.776 71.5507 87.554 71.7427 87.362C71.9467 87.17 72.1927 87.074 72.4807 87.074C72.7327 87.074 72.9547 87.17 73.1467 87.362C73.3387 87.554 73.4347 87.776 73.4347 88.028C73.4347 88.316 73.3447 88.562 73.1647 88.766C72.9847 88.958 72.7567 89.054 72.4807 89.054C72.1927 89.054 71.9467 88.958 71.7427 88.766C71.5507 88.562 71.4547 88.316 71.4547 88.028ZM77.0973 88.028C77.0973 87.776 77.1933 87.554 77.3853 87.362C77.5893 87.17 77.8353 87.074 78.1233 87.074C78.3753 87.074 78.5973 87.17 78.7893 87.362C78.9813 87.554 79.0773 87.776 79.0773 88.028C79.0773 88.316 78.9873 88.562 78.8073 88.766C78.6273 88.958 78.3993 89.054 78.1233 89.054C77.8353 89.054 77.5893 88.958 77.3853 88.766C77.1933 88.562 77.0973 88.316 77.0973 88.028ZM82.7398 88.028C82.7398 87.776 82.8358 87.554 83.0278 87.362C83.2318 87.17 83.4778 87.074 83.7658 87.074C84.0178 87.074 84.2398 87.17 84.4318 87.362C84.6238 87.554 84.7198 87.776 84.7198 88.028C84.7198 88.316 84.6298 88.562 84.4498 88.766C84.2698 88.958 84.0418 89.054 83.7658 89.054C83.4778 89.054 83.2318 88.958 83.0278 88.766C82.8358 88.562 82.7398 88.316 82.7398 88.028ZM88.3824 88.028C88.3824 87.776 88.4784 87.554 88.6704 87.362C88.8744 87.17 89.1204 87.074 89.4084 87.074C89.6604 87.074 89.8824 87.17 90.0744 87.362C90.2664 87.554 90.3624 87.776 90.3624 88.028C90.3624 88.316 90.2724 88.562 90.0924 88.766C89.9124 88.958 89.6844 89.054 89.4084 89.054C89.1204 89.054 88.8744 88.958 88.6704 88.766C88.4784 88.562 88.3824 88.316 88.3824 88.028ZM94.025 88.028C94.025 87.776 94.121 87.554 94.313 87.362C94.517 87.17 94.763 87.074 95.051 87.074C95.303 87.074 95.525 87.17 95.717 87.362C95.909 87.554 96.005 87.776 96.005 88.028C96.005 88.316 95.915 88.562 95.735 88.766C95.555 88.958 95.327 89.054 95.051 89.054C94.763 89.054 94.517 88.958 94.313 88.766C94.121 88.562 94.025 88.316 94.025 88.028ZM99.6676 88.028C99.6676 87.776 99.7636 87.554 99.9556 87.362C100.16 87.17 100.406 87.074 100.694 87.074C100.946 87.074 101.168 87.17 101.36 87.362C101.552 87.554 101.648 87.776 101.648 88.028C101.648 88.316 101.558 88.562 101.378 88.766C101.198 88.958 100.97 89.054 100.694 89.054C100.406 89.054 100.16 88.958 99.9556 88.766C99.7636 88.562 99.6676 88.316 99.6676 88.028ZM105.31 88.028C105.31 87.776 105.406 87.554 105.598 87.362C105.802 87.17 106.048 87.074 106.336 87.074C106.588 87.074 106.81 87.17 107.002 87.362C107.194 87.554 107.29 87.776 107.29 88.028C107.29 88.316 107.2 88.562 107.02 88.766C106.84 88.958 106.612 89.054 106.336 89.054C106.048 89.054 105.802 88.958 105.598 88.766C105.406 88.562 105.31 88.316 105.31 88.028ZM110.953 88.028C110.953 87.776 111.049 87.554 111.241 87.362C111.445 87.17 111.691 87.074 111.979 87.074C112.231 87.074 112.453 87.17 112.645 87.362C112.837 87.554 112.933 87.776 112.933 88.028C112.933 88.316 112.843 88.562 112.663 88.766C112.483 88.958 112.255 89.054 111.979 89.054C111.691 89.054 111.445 88.958 111.241 88.766C111.049 88.562 110.953 88.316 110.953 88.028ZM116.595 88.028C116.595 87.776 116.691 87.554 116.883 87.362C117.087 87.17 117.333 87.074 117.621 87.074C117.873 87.074 118.095 87.17 118.287 87.362C118.479 87.554 118.575 87.776 118.575 88.028C118.575 88.316 118.485 88.562 118.305 88.766C118.125 88.958 117.897 89.054 117.621 89.054C117.333 89.054 117.087 88.958 116.883 88.766C116.691 88.562 116.595 88.316 116.595 88.028ZM122.238 88.028C122.238 87.776 122.334 87.554 122.526 87.362C122.73 87.17 122.976 87.074 123.264 87.074C123.516 87.074 123.738 87.17 123.93 87.362C124.122 87.554 124.218 87.776 124.218 88.028C124.218 88.316 124.128 88.562 123.948 88.766C123.768 88.958 123.54 89.054 123.264 89.054C122.976 89.054 122.73 88.958 122.526 88.766C122.334 88.562 122.238 88.316 122.238 88.028ZM127.88 88.028C127.88 87.776 127.976 87.554 128.168 87.362C128.372 87.17 128.618 87.074 128.906 87.074C129.158 87.074 129.38 87.17 129.572 87.362C129.764 87.554 129.86 87.776 129.86 88.028C129.86 88.316 129.77 88.562 129.59 88.766C129.41 88.958 129.182 89.054 128.906 89.054C128.618 89.054 128.372 88.958 128.168 88.766C127.976 88.562 127.88 88.316 127.88 88.028ZM133.523 88.028C133.523 87.776 133.619 87.554 133.811 87.362C134.015 87.17 134.261 87.074 134.549 87.074C134.801 87.074 135.023 87.17 135.215 87.362C135.407 87.554 135.503 87.776 135.503 88.028C135.503 88.316 135.413 88.562 135.233 88.766C135.053 88.958 134.825 89.054 134.549 89.054C134.261 89.054 134.015 88.958 133.811 88.766C133.619 88.562 133.523 88.316 133.523 88.028ZM139.166 88.028C139.166 87.776 139.262 87.554 139.454 87.362C139.658 87.17 139.904 87.074 140.192 87.074C140.444 87.074 140.666 87.17 140.858 87.362C141.05 87.554 141.146 87.776 141.146 88.028C141.146 88.316 141.056 88.562 140.876 88.766C140.696 88.958 140.468 89.054 140.192 89.054C139.904 89.054 139.658 88.958 139.454 88.766C139.262 88.562 139.166 88.316 139.166 88.028ZM144.808 88.028C144.808 87.776 144.904 87.554 145.096 87.362C145.3 87.17 145.546 87.074 145.834 87.074C146.086 87.074 146.308 87.17 146.5 87.362C146.692 87.554 146.788 87.776 146.788 88.028C146.788 88.316 146.698 88.562 146.518 88.766C146.338 88.958 146.11 89.054 145.834 89.054C145.546 89.054 145.3 88.958 145.096 88.766C144.904 88.562 144.808 88.316 144.808 88.028ZM150.451 88.028C150.451 87.776 150.547 87.554 150.739 87.362C150.943 87.17 151.189 87.074 151.477 87.074C151.729 87.074 151.951 87.17 152.143 87.362C152.335 87.554 152.431 87.776 152.431 88.028C152.431 88.316 152.341 88.562 152.161 88.766C151.981 88.958 151.753 89.054 151.477 89.054C151.189 89.054 150.943 88.958 150.739 88.766C150.547 88.562 150.451 88.316 150.451 88.028ZM156.093 88.028C156.093 87.776 156.189 87.554 156.381 87.362C156.585 87.17 156.831 87.074 157.119 87.074C157.371 87.074 157.593 87.17 157.785 87.362C157.977 87.554 158.073 87.776 158.073 88.028C158.073 88.316 157.983 88.562 157.803 88.766C157.623 88.958 157.395 89.054 157.119 89.054C156.831 89.054 156.585 88.958 156.381 88.766C156.189 88.562 156.093 88.316 156.093 88.028ZM161.736 88.028C161.736 87.776 161.832 87.554 162.024 87.362C162.228 87.17 162.474 87.074 162.762 87.074C163.014 87.074 163.236 87.17 163.428 87.362C163.62 87.554 163.716 87.776 163.716 88.028C163.716 88.316 163.626 88.562 163.446 88.766C163.266 88.958 163.038 89.054 162.762 89.054C162.474 89.054 162.228 88.958 162.024 88.766C161.832 88.562 161.736 88.316 161.736 88.028ZM167.379 88.028C167.379 87.776 167.475 87.554 167.667 87.362C167.871 87.17 168.117 87.074 168.405 87.074C168.657 87.074 168.879 87.17 169.071 87.362C169.263 87.554 169.359 87.776 169.359 88.028C169.359 88.316 169.269 88.562 169.089 88.766C168.909 88.958 168.681 89.054 168.405 89.054C168.117 89.054 167.871 88.958 167.667 88.766C167.475 88.562 167.379 88.316 167.379 88.028ZM173.021 88.028C173.021 87.776 173.117 87.554 173.309 87.362C173.513 87.17 173.759 87.074 174.047 87.074C174.299 87.074 174.521 87.17 174.713 87.362C174.905 87.554 175.001 87.776 175.001 88.028C175.001 88.316 174.911 88.562 174.731 88.766C174.551 88.958 174.323 89.054 174.047 89.054C173.759 89.054 173.513 88.958 173.309 88.766C173.117 88.562 173.021 88.316 173.021 88.028ZM178.664 88.028C178.664 87.776 178.76 87.554 178.952 87.362C179.156 87.17 179.402 87.074 179.69 87.074C179.942 87.074 180.164 87.17 180.356 87.362C180.548 87.554 180.644 87.776 180.644 88.028C180.644 88.316 180.554 88.562 180.374 88.766C180.194 88.958 179.966 89.054 179.69 89.054C179.402 89.054 179.156 88.958 178.952 88.766C178.76 88.562 178.664 88.316 178.664 88.028ZM184.306 88.028C184.306 87.776 184.402 87.554 184.594 87.362C184.798 87.17 185.044 87.074 185.332 87.074C185.584 87.074 185.806 87.17 185.998 87.362C186.19 87.554 186.286 87.776 186.286 88.028C186.286 88.316 186.196 88.562 186.016 88.766C185.836 88.958 185.608 89.054 185.332 89.054C185.044 89.054 184.798 88.958 184.594 88.766C184.402 88.562 184.306 88.316 184.306 88.028ZM189.949 88.028C189.949 87.776 190.045 87.554 190.237 87.362C190.441 87.17 190.687 87.074 190.975 87.074C191.227 87.074 191.449 87.17 191.641 87.362C191.833 87.554 191.929 87.776 191.929 88.028C191.929 88.316 191.839 88.562 191.659 88.766C191.479 88.958 191.251 89.054 190.975 89.054C190.687 89.054 190.441 88.958 190.237 88.766C190.045 88.562 189.949 88.316 189.949 88.028ZM195.591 88.028C195.591 87.776 195.687 87.554 195.879 87.362C196.083 87.17 196.329 87.074 196.617 87.074C196.869 87.074 197.091 87.17 197.283 87.362C197.475 87.554 197.571 87.776 197.571 88.028C197.571 88.316 197.481 88.562 197.301 88.766C197.121 88.958 196.893 89.054 196.617 89.054C196.329 89.054 196.083 88.958 195.879 88.766C195.687 88.562 195.591 88.316 195.591 88.028ZM201.234 88.028C201.234 87.776 201.33 87.554 201.522 87.362C201.726 87.17 201.972 87.074 202.26 87.074C202.512 87.074 202.734 87.17 202.926 87.362C203.118 87.554 203.214 87.776 203.214 88.028C203.214 88.316 203.124 88.562 202.944 88.766C202.764 88.958 202.536 89.054 202.26 89.054C201.972 89.054 201.726 88.958 201.522 88.766C201.33 88.562 201.234 88.316 201.234 88.028ZM206.877 88.028C206.877 87.776 206.973 87.554 207.165 87.362C207.369 87.17 207.615 87.074 207.903 87.074C208.155 87.074 208.377 87.17 208.569 87.362C208.761 87.554 208.857 87.776 208.857 88.028C208.857 88.316 208.767 88.562 208.587 88.766C208.407 88.958 208.179 89.054 207.903 89.054C207.615 89.054 207.369 88.958 207.165 88.766C206.973 88.562 206.877 88.316 206.877 88.028ZM212.519 88.028C212.519 87.776 212.615 87.554 212.807 87.362C213.011 87.17 213.257 87.074 213.545 87.074C213.797 87.074 214.019 87.17 214.211 87.362C214.403 87.554 214.499 87.776 214.499 88.028C214.499 88.316 214.409 88.562 214.229 88.766C214.049 88.958 213.821 89.054 213.545 89.054C213.257 89.054 213.011 88.958 212.807 88.766C212.615 88.562 212.519 88.316 212.519 88.028ZM218.162 88.028C218.162 87.776 218.258 87.554 218.45 87.362C218.654 87.17 218.9 87.074 219.188 87.074C219.44 87.074 219.662 87.17 219.854 87.362C220.046 87.554 220.142 87.776 220.142 88.028C220.142 88.316 220.052 88.562 219.872 88.766C219.692 88.958 219.464 89.054 219.188 89.054C218.9 89.054 218.654 88.958 218.45 88.766C218.258 88.562 218.162 88.316 218.162 88.028ZM223.804 88.028C223.804 87.776 223.9 87.554 224.092 87.362C224.296 87.17 224.542 87.074 224.83 87.074C225.082 87.074 225.304 87.17 225.496 87.362C225.688 87.554 225.784 87.776 225.784 88.028C225.784 88.316 225.694 88.562 225.514 88.766C225.334 88.958 225.106 89.054 224.83 89.054C224.542 89.054 224.296 88.958 224.092 88.766C223.9 88.562 223.804 88.316 223.804 88.028ZM229.447 88.028C229.447 87.776 229.543 87.554 229.735 87.362C229.939 87.17 230.185 87.074 230.473 87.074C230.725 87.074 230.947 87.17 231.139 87.362C231.331 87.554 231.427 87.776 231.427 88.028C231.427 88.316 231.337 88.562 231.157 88.766C230.977 88.958 230.749 89.054 230.473 89.054C230.185 89.054 229.939 88.958 229.735 88.766C229.543 88.562 229.447 88.316 229.447 88.028ZM235.089 88.028C235.089 87.776 235.185 87.554 235.377 87.362C235.581 87.17 235.827 87.074 236.115 87.074C236.367 87.074 236.589 87.17 236.781 87.362C236.973 87.554 237.069 87.776 237.069 88.028C237.069 88.316 236.979 88.562 236.799 88.766C236.619 88.958 236.391 89.054 236.115 89.054C235.827 89.054 235.581 88.958 235.377 88.766C235.185 88.562 235.089 88.316 235.089 88.028ZM240.732 88.028C240.732 87.776 240.828 87.554 241.02 87.362C241.224 87.17 241.47 87.074 241.758 87.074C242.01 87.074 242.232 87.17 242.424 87.362C242.616 87.554 242.712 87.776 242.712 88.028C242.712 88.316 242.622 88.562 242.442 88.766C242.262 88.958 242.034 89.054 241.758 89.054C241.47 89.054 241.224 88.958 241.02 88.766C240.828 88.562 240.732 88.316 240.732 88.028ZM246.375 88.028C246.375 87.776 246.471 87.554 246.663 87.362C246.867 87.17 247.113 87.074 247.401 87.074C247.653 87.074 247.875 87.17 248.067 87.362C248.259 87.554 248.355 87.776 248.355 88.028C248.355 88.316 248.265 88.562 248.085 88.766C247.905 88.958 247.677 89.054 247.401 89.054C247.113 89.054 246.867 88.958 246.663 88.766C246.471 88.562 246.375 88.316 246.375 88.028ZM252.017 88.028C252.017 87.776 252.113 87.554 252.305 87.362C252.509 87.17 252.755 87.074 253.043 87.074C253.295 87.074 253.517 87.17 253.709 87.362C253.901 87.554 253.997 87.776 253.997 88.028C253.997 88.316 253.907 88.562 253.727 88.766C253.547 88.958 253.319 89.054 253.043 89.054C252.755 89.054 252.509 88.958 252.305 88.766C252.113 88.562 252.017 88.316 252.017 88.028Z" fill="#9690B1"/>
</g>
</svg>
