<svg width="22" height="25" viewBox="0 0 22 25" fill="none" xmlns="http://www.w3.org/2000/svg">
<path fill-rule="evenodd" clip-rule="evenodd" d="M10.0452 9.857C10.6396 10.7487 10.9369 12.0363 10.6891 13.1262C10.4909 14.0673 9.64899 15.1571 8.55917 14.9587C6.33009 14.5625 9.40109 10.5008 10.0452 9.857H10.0452ZM10.0452 6.09271C9.649 6.29083 7.41992 9.90675 6.97424 10.5506C5.98361 12.0366 4.99305 13.8692 4.44811 15.5533C3.11068 19.7142 5.43874 24.0235 10.0452 24.0235C14.7012 24.0235 17.0293 19.615 15.5929 15.4544C14.9986 13.7703 14.008 11.9872 13.0174 10.5011C12.5717 9.85732 10.392 6.34031 9.9958 6.09271H10.0452Z" fill="#4926E8"/>
<path fill-rule="evenodd" clip-rule="evenodd" d="M18.0689 5.54775C18.9108 6.63757 18.6632 9.21315 17.1278 8.91581C15.7409 8.66823 17.6232 5.94399 18.0689 5.54775ZM18.0689 3.02162C17.4251 3.51707 14.3046 8.47012 14.5522 9.11419L16.3847 12.2346C17.7222 14.8102 17.0783 15.0581 18.4157 14.9589C21.4372 14.7113 22.6259 11.8384 21.6848 9.11411C21.338 8.12348 18.713 3.51697 18.0194 3.02155L18.0689 3.02162Z" fill="#4926E8"/>
<path fill-rule="evenodd" clip-rule="evenodd" d="M4.00242 2.52636C4.84434 3.61618 4.59678 6.19176 3.01179 5.89441C1.62492 5.64683 3.50724 2.9226 4.00242 2.52636ZM4.05188 0.000224628C3.2594 0.495675 0.73327 5.00297 0.337032 5.9936C-0.901124 9.55981 1.52574 11.8383 3.50693 11.8878C4.05183 11.8878 4.2994 10.9961 4.54701 10.5999C7.56857 5.49817 8.45993 6.73641 6.03306 2.97182C5.38924 2.03071 4.74516 0.891365 4.05188 0V0.000224628Z" fill="#4926E8"/>
</svg>
