<svg width="67" height="67" viewBox="0 0 67 67" fill="none" xmlns="http://www.w3.org/2000/svg">
<g clip-path="url(#clip0_274_515)">
<path d="M26.3995 44.1402C26.6348 44.4312 27.0606 44.4762 27.3515 44.241L52.6176 23.8104C52.9086 23.5751 52.9536 23.1493 52.7183 22.8583L47.6107 16.5418C47.3754 16.2509 46.9496 16.2058 46.6587 16.4411L21.3926 36.8717C21.1016 37.1069 21.0566 37.5328 21.2918 37.8237L26.3995 44.1402ZM46.9836 17.9195L51.24 23.1832L45.9762 27.4396L43.848 24.8077C43.6127 24.5168 43.1869 24.4717 42.896 24.707C42.605 24.9423 42.56 25.3681 42.7952 25.659L44.9234 28.2909L43.8707 29.1422L42.5938 27.563C42.3585 27.2721 41.9327 27.227 41.6417 27.4623C41.3508 27.6976 41.3057 28.1234 41.541 28.4143L42.8179 29.9934L41.7652 30.8447L40.4883 29.2656C40.253 28.9746 39.8272 28.9296 39.5362 29.1648C39.2453 29.4001 39.2002 29.8259 39.4355 30.1169L40.7124 31.696L39.6597 32.5473L38.3827 30.9681C38.1475 30.6772 37.7217 30.6321 37.4307 30.8674C37.1398 31.1027 37.0947 31.5285 37.33 31.8194L38.6069 33.3985L37.5541 34.2498L35.426 31.6179C35.1907 31.327 34.7649 31.2819 34.4739 31.5172C34.183 31.7525 34.1379 32.1783 34.3732 32.4692L36.5014 35.1011L35.4486 35.9524L34.1717 34.3732C33.9365 34.0823 33.5107 34.0372 33.2197 34.2725C32.9288 34.5078 32.8837 34.9336 33.119 35.2245L34.3959 36.8036L33.3431 37.6549L32.0662 36.0758C31.831 35.7848 31.4051 35.7398 31.1142 35.9751C30.8233 36.2103 30.7782 36.6361 31.0135 36.9271L32.2904 38.5062L31.2376 39.3575L29.9607 37.7783C29.7254 37.4874 29.2996 37.4423 29.0087 37.6776C28.7178 37.9129 28.6727 38.3387 28.908 38.6296L30.1849 40.2087L29.1321 41.06L27.0039 38.4281C26.7687 38.1372 26.3429 38.0921 26.0519 38.3274C25.761 38.5627 25.7159 38.9885 25.9512 39.2794L28.0794 41.9113L27.0266 42.7626L22.7702 37.4988L46.9836 17.9195Z" fill="#D9D9D9"/>
<path d="M47.7569 24.2587C48.6277 23.5545 48.7633 22.2734 48.0591 21.4026C47.355 20.5318 46.0739 20.3963 45.2031 21.1004C44.3323 21.8045 44.1967 23.0857 44.9009 23.9564C45.605 24.8272 46.8861 24.9628 47.7569 24.2587ZM46.0544 22.1532C46.3447 21.9184 46.7716 21.9636 47.0064 22.2539C47.2411 22.5442 47.196 22.9711 46.9056 23.2059C46.6153 23.4407 46.1884 23.3955 45.9536 23.1052C45.7189 22.8148 45.764 22.3879 46.0544 22.1532Z" fill="#D9D9D9"/>
</g>
<defs>
<clipPath id="clip0_274_515">
<rect width="47.3854" height="47.3854" fill="white" transform="translate(36.8462) rotate(51.0404)"/>
</clipPath>
</defs>
</svg>
