<svg width="19" height="22" viewBox="0 0 19 22" fill="none" xmlns="http://www.w3.org/2000/svg">
<path d="M18.3778 9.0936C18.3778 4.1904 14.4034 0.216003 9.50016 0.216003C4.59696 0.216003 0.622559 4.1904 0.622559 9.0936C0.622559 13.5648 3.94888 17.28 8.24736 17.8848C8.52821 19.9798 8.98172 21.3838 9.50016 21.3838C10.0186 21.3838 10.4721 19.9799 10.753 17.8846C15.0514 17.2583 18.3778 13.5646 18.3778 9.09345V9.0936ZM9.50016 16.0272C5.67692 16.0272 2.54496 12.9168 2.54496 9.072C2.54496 5.27044 5.67692 2.1384 9.50016 2.1384C13.3234 2.1384 16.4554 5.24884 16.4554 9.0936C16.4554 12.9167 13.3234 16.0272 9.50016 16.0272Z" fill="#4926E8"/>
<path d="M14.101 7.8624L9.8458 4.77367C9.62974 4.6224 9.3706 4.6224 9.15453 4.77367L4.89933 7.8624C4.64017 8.05676 4.57539 8.42396 4.76975 8.68323C4.96411 8.94239 5.33131 9.00717 5.59059 8.81281L5.93622 8.5752L6.51946 13.0032C6.5627 13.3056 6.80031 13.5216 7.1027 13.5216H11.9195C12.2219 13.5216 12.4595 13.3056 12.5027 13.0032L13.086 8.5752L13.4316 8.81281C13.5396 8.8776 13.6477 8.92084 13.7772 8.92084C13.9501 8.92084 14.1444 8.83451 14.2524 8.68323C14.425 8.42393 14.3602 8.0352 14.101 7.8624H14.101ZM10.7314 12.5064C10.7314 12.7008 10.5802 12.852 10.3858 12.852H8.65777C8.4634 12.852 8.31213 12.7008 8.31213 12.5064V9.78483C8.31213 9.59047 8.46341 9.4392 8.65777 9.4392H10.3858C10.5802 9.4392 10.7314 9.59047 10.7314 9.78483V12.5064Z" fill="#4926E8"/>
</svg>
