<svg width="20" height="18" viewBox="0 0 20 18" fill="none" xmlns="http://www.w3.org/2000/svg">
<path d="M18.9475 6.96107L10.4106 0.996849C9.97708 0.704745 9.45718 0.704745 9.02368 0.996849L0.486692 6.96107C-0.0332351 7.33638 -0.163209 8.04542 0.226728 8.54608C0.616673 9.0465 1.35336 9.17159 1.87353 8.79629L2.56696 8.33748L3.73708 16.8878C3.82384 17.4717 4.30053 17.8889 4.90721 17.8889H14.5709C15.1776 17.8889 15.6543 17.4717 15.741 16.8878L16.9111 8.33748L17.6046 8.79629C17.8213 8.92139 18.038 9.00489 18.298 9.00489C18.6447 9.00489 19.0347 8.83818 19.2514 8.54608C19.5975 8.04537 19.4675 7.29474 18.9476 6.96107H18.9475ZM12.1874 15.9285C12.1874 16.3038 11.8839 16.5959 11.4939 16.5959H8.02706C7.63711 16.5959 7.33363 16.3038 7.33363 15.9285V10.6732C7.33363 10.2979 7.63712 10.0058 8.02706 10.0058H11.4939C11.8839 10.0058 12.1874 10.2979 12.1874 10.6732V15.9285Z" fill="#4926E8"/>
</svg>
