<svg width="21" height="23" viewBox="0 0 21 23" fill="none" xmlns="http://www.w3.org/2000/svg">
<path d="M20.0352 9.76719C20.0352 4.50079 15.7664 0.231995 10.5 0.231995C5.23364 0.231995 0.964844 4.50079 0.964844 9.76719C0.964844 14.5696 4.53756 18.56 9.15444 19.2096C9.45609 21.4598 9.9432 22.9678 10.5 22.9678C11.0569 22.9678 11.544 21.4599 11.8456 19.2094C16.4624 18.5367 20.0352 14.5694 20.0352 9.76703V9.76719ZM10.5 17.2144C6.3936 17.2144 3.02964 13.8736 3.02964 9.74399C3.02964 5.66084 6.3936 2.29679 10.5 2.29679C14.6065 2.29679 17.9704 5.63763 17.9704 9.76719C17.9704 13.8735 14.6065 17.2144 10.5 17.2144Z" fill="#4926E8"/>
<path d="M7.76318 10.8892C7.76318 11.0965 7.71761 11.2788 7.62646 11.436C7.5376 11.5933 7.40999 11.7197 7.24365 11.8154C7.07959 11.9089 6.88818 11.9784 6.66943 12.0239C6.45296 12.0695 6.21029 12.0923 5.94141 12.0923C5.38314 12.0923 4.96387 12.0205 4.68359 11.877C4.4056 11.7334 4.2666 11.5636 4.2666 11.3677C4.2666 11.2218 4.34066 11.0954 4.48877 10.9883C4.63916 10.8812 4.83171 10.8276 5.06641 10.8276L5.33301 11.3198C5.46289 11.354 5.59391 11.3711 5.72607 11.3711C5.83317 11.3711 5.92546 11.3494 6.00293 11.3062C6.0804 11.2629 6.11914 11.2104 6.11914 11.1489C6.11914 11.0874 6.08952 11.0282 6.03027 10.9712C5.97103 10.9142 5.89242 10.863 5.79443 10.8174C5.69873 10.7718 5.60189 10.7319 5.50391 10.6978C5.4082 10.6613 5.30794 10.626 5.20312 10.5918C5.10059 10.5553 5.02767 10.5269 4.98438 10.5063C4.70638 10.3742 4.49333 10.217 4.34521 10.0347C4.1971 9.85238 4.12305 9.63249 4.12305 9.375C4.12305 9.19271 4.17773 9.02865 4.28711 8.88281C4.39648 8.73698 4.54232 8.62077 4.72461 8.53418C4.9069 8.44531 5.10742 8.37809 5.32617 8.33252C5.5472 8.28467 5.77507 8.26074 6.00977 8.26074C6.486 8.26074 6.86312 8.33936 7.14111 8.49658C7.42139 8.65381 7.56152 8.82699 7.56152 9.01611C7.56152 9.13916 7.49658 9.24056 7.3667 9.32031C7.2391 9.40007 7.0568 9.43994 6.81982 9.43994L6.59766 9.01953C6.57259 8.99219 6.50537 8.96712 6.396 8.94434C6.2889 8.91927 6.18066 8.90674 6.07129 8.90674C5.82292 8.90674 5.69873 8.97396 5.69873 9.1084C5.69873 9.17904 5.75114 9.25309 5.85596 9.33057C5.96305 9.40804 6.10319 9.4707 6.27637 9.51855C6.39258 9.55046 6.48942 9.57894 6.56689 9.604C6.64665 9.62679 6.74235 9.66097 6.854 9.70654C6.96794 9.74984 7.0625 9.79427 7.1377 9.83984C7.21517 9.88542 7.29606 9.94352 7.38037 10.0142C7.46696 10.0848 7.53532 10.1611 7.58545 10.2432C7.63558 10.3229 7.67773 10.4186 7.71191 10.5303C7.74609 10.6396 7.76318 10.7593 7.76318 10.8892ZM9.74561 9.60742C9.81169 9.60742 9.91309 9.6097 10.0498 9.61426C10.1865 9.61654 10.2925 9.61768 10.3677 9.61768C10.4588 9.61768 10.5203 9.59945 10.5522 9.56299C10.5864 9.52425 10.6035 9.46045 10.6035 9.37158C10.6035 9.20524 10.5693 9.07764 10.501 8.98877C10.4326 8.8999 10.3335 8.85547 10.2036 8.85547C10.0168 8.85547 9.89372 8.91471 9.83447 9.0332C9.77523 9.14941 9.74561 9.34082 9.74561 9.60742ZM11.6289 11.665C11.3304 11.9499 10.8473 12.0923 10.1797 12.0923C9.79004 12.0923 9.43457 12.0171 9.11328 11.8667C8.79427 11.714 8.53792 11.4896 8.34424 11.1934C8.15055 10.8949 8.05371 10.5508 8.05371 10.1611C8.05371 9.56413 8.24626 9.09814 8.63135 8.76318C9.01644 8.42822 9.52458 8.26074 10.1558 8.26074C10.6525 8.26074 11.0649 8.39404 11.3931 8.66064C11.7212 8.92725 11.9035 9.25081 11.9399 9.63135C11.8875 9.98226 11.4626 10.1657 10.665 10.1816C10.4349 10.1885 10.1489 10.1919 9.80713 10.1919C9.82992 10.4562 9.9165 10.6522 10.0669 10.7798C10.2196 10.9051 10.4053 10.9678 10.624 10.9678C10.8291 10.9678 11.0365 10.9347 11.2461 10.8687C11.4557 10.8026 11.6403 10.7148 11.7998 10.6055C11.8773 10.6396 11.916 10.7069 11.916 10.8071C11.916 10.9644 11.8841 11.1318 11.8203 11.3096C11.7588 11.485 11.695 11.6035 11.6289 11.665ZM14.7939 10.9883L14.3838 10.5679C14.0944 10.8732 13.9497 11.0304 13.9497 11.0396C13.9497 11.0783 13.9668 11.109 14.001 11.1318C14.0374 11.1523 14.0762 11.1672 14.1172 11.1763C14.1605 11.1831 14.1992 11.2013 14.2334 11.231C14.2699 11.2606 14.2881 11.3016 14.2881 11.354C14.2881 11.8166 14.2254 12.0638 14.1001 12.0957C13.7218 12.0319 13.3971 12 13.126 12C12.8867 12 12.6497 12.0308 12.415 12.0923C12.4105 12.0946 12.4036 12.0957 12.3945 12.0957C12.3695 12.0957 12.349 12.0763 12.333 12.0376C12.3193 12.0011 12.3091 11.9419 12.3022 11.8599C12.2977 11.7778 12.2943 11.7083 12.292 11.6514C12.292 11.5921 12.292 11.5078 12.292 11.3984C12.292 11.321 12.3102 11.2629 12.3467 11.2241C12.3831 11.1854 12.4253 11.1615 12.4731 11.1523C12.521 11.1432 12.578 11.125 12.644 11.0977C12.7101 11.0703 12.7648 11.0327 12.8081 10.9849C12.8674 10.9302 13.0132 10.7935 13.2456 10.5747C13.478 10.356 13.6637 10.1828 13.8027 10.0552C13.748 10.005 13.6774 9.9401 13.5908 9.86035C13.5042 9.77832 13.4336 9.71338 13.3789 9.66553C13.3265 9.61768 13.2866 9.58464 13.2593 9.56641C13.118 9.45703 12.9904 9.375 12.8765 9.32031C12.7625 9.26335 12.6839 9.23258 12.6406 9.22803C12.5996 9.22347 12.5688 9.20866 12.5483 9.18359C12.5301 9.15853 12.521 9.1084 12.521 9.0332C12.521 8.75521 12.5301 8.56836 12.5483 8.47266C12.5666 8.37695 12.6042 8.30632 12.6611 8.26074C13.1533 8.32227 13.5715 8.35303 13.9155 8.35303C14.3188 8.35303 14.6515 8.32113 14.9136 8.25732C14.966 8.27327 15.0024 8.33252 15.0229 8.43506C15.0457 8.53532 15.0571 8.7085 15.0571 8.95459C15.0571 9.01156 15.0435 9.05371 15.0161 9.08105C14.991 9.1084 14.9637 9.12435 14.9341 9.12891C14.9045 9.13118 14.876 9.14486 14.8486 9.16992C14.8236 9.19271 14.811 9.23031 14.811 9.28271C14.811 9.28499 14.819 9.29639 14.835 9.31689L15.1973 9.72021C15.498 9.39437 15.6484 9.22461 15.6484 9.21094C15.6484 9.1722 15.6336 9.14827 15.604 9.13916C15.5767 9.12777 15.5459 9.12435 15.5117 9.12891C15.4798 9.13346 15.4491 9.12663 15.4194 9.1084C15.3921 9.08789 15.3784 9.05143 15.3784 8.99902C15.3784 8.53646 15.4411 8.28923 15.5664 8.25732C15.8695 8.32113 16.1258 8.35303 16.3354 8.35303C16.5155 8.35303 16.6841 8.32227 16.8413 8.26074C16.8436 8.25846 16.8504 8.25732 16.8618 8.25732C16.8869 8.25732 16.9062 8.27669 16.9199 8.31543C16.9359 8.35189 16.9461 8.41113 16.9507 8.49316C16.9575 8.5752 16.9609 8.64583 16.9609 8.70508C16.9632 8.76204 16.9644 8.84521 16.9644 8.95459C16.9644 9.03206 16.9461 9.09017 16.9097 9.12891C16.8732 9.16764 16.8311 9.19157 16.7832 9.20068C16.7354 9.2098 16.6784 9.22803 16.6123 9.25537C16.5462 9.28271 16.4915 9.32031 16.4482 9.36816C16.2158 9.60059 15.98 9.84212 15.7407 10.0928C16.201 10.5234 16.4482 10.7536 16.4824 10.7832C16.5758 10.863 16.6624 10.929 16.7422 10.9814C16.8242 11.0339 16.8823 11.0658 16.9165 11.0771C16.9507 11.0885 16.9803 11.1034 17.0054 11.1216C17.0327 11.1398 17.0487 11.1615 17.0532 11.1865C17.0578 11.2093 17.0601 11.2537 17.0601 11.3198C17.0601 11.5978 17.0509 11.7847 17.0327 11.8804C17.0145 11.9761 16.9769 12.0467 16.9199 12.0923C16.4893 12.0308 16.1281 12 15.8364 12C15.3898 12 15.0195 12.0319 14.7256 12.0957C14.6732 12.0775 14.6356 12.0137 14.6128 11.9043C14.5923 11.7926 14.582 11.6012 14.582 11.3301C14.582 11.2731 14.5923 11.231 14.6128 11.2036C14.6356 11.174 14.6606 11.1569 14.688 11.1523C14.7153 11.1478 14.7393 11.133 14.7598 11.1079C14.7826 11.0806 14.7939 11.0407 14.7939 10.9883Z" fill="#4926E8"/>
</svg>
