<svg width="247" height="45" viewBox="0 0 247 45" fill="none" xmlns="http://www.w3.org/2000/svg">
<path d="M78.52 9.16V8.8H84.928V9.16H83.164V33.64H84.928V34H78.52V33.64H80.176V9.16H78.52ZM90.2689 34H89.8009V8.8H91.0249L106.001 32.092V8.8H106.469V34H103.841L90.2689 13.12V34ZM119.097 34H116.109V9.16H109.881V8.8H125.361V9.16H119.097V34ZM128.969 9.16V8.8H135.377V9.16H133.613V33.64H135.377V34H128.969V33.64H130.625V9.16H128.969ZM140.718 34H140.25L143.382 8.8H144.57L152.13 32.092L159.654 8.8H160.842L163.974 34H160.986L158.502 13.84L151.986 34H149.718L143.13 14.092L140.718 34ZM168.148 23.452H179.02V23.74H168.148V23.452ZM183.426 9.088C186.21 8.896 188.67 8.8 190.806 8.8C196.734 8.8 199.698 10.78 199.698 14.74C199.698 16.228 199.266 17.512 198.402 18.592C197.538 19.648 196.158 20.368 194.262 20.752C196.086 20.968 197.526 21.52 198.582 22.408C199.638 23.296 200.166 24.844 200.166 27.052C200.166 31.684 197.202 34 191.274 34H183.426V9.088ZM186.414 33.64H191.274C193.41 33.64 194.922 33.088 195.81 31.984C196.722 30.856 197.178 29.14 197.178 26.836C197.178 24.532 196.722 22.996 195.81 22.228C194.898 21.46 193.542 21.052 191.742 21.004H186.414V33.64ZM190.806 9.16C189.414 9.16 187.95 9.244 186.414 9.412V20.644H191.742C195.126 20.5 196.818 18.556 196.818 14.812C196.818 12.988 196.314 11.596 195.306 10.636C194.298 9.652 192.798 9.16 190.806 9.16ZM203.238 22.012C203.238 17.644 204.294 14.332 206.406 12.076C208.542 9.796 211.278 8.656 214.614 8.656C217.95 8.656 220.602 9.64 222.57 11.608C224.562 13.576 225.558 16.72 225.558 21.04C225.558 25.36 224.502 28.624 222.39 30.832C220.278 33.04 217.458 34.144 213.93 34.144C210.882 34.144 208.386 33.268 206.442 31.516C205.434 30.604 204.642 29.344 204.066 27.736C203.514 26.104 203.238 24.196 203.238 22.012ZM214.506 9.016C212.082 9.016 210.09 10.096 208.53 12.256C206.994 14.416 206.226 17.584 206.226 21.76C206.226 25.936 206.958 28.984 208.422 30.904C209.886 32.824 211.83 33.784 214.254 33.784C216.702 33.784 218.694 32.704 220.23 30.544C221.79 28.36 222.57 25.204 222.57 21.076C222.57 16.924 221.826 13.876 220.338 11.932C218.874 9.988 216.93 9.016 214.506 9.016ZM228.805 34H228.337L234.853 21.112L227.725 8.8H230.749L236.941 19.456L242.341 8.8H242.773L237.193 19.888L245.401 34H242.377L235.105 21.508L228.805 34Z" fill="white"/>
<path d="M60.3208 5.19851e-05H3.65321C1.62357 5.19851e-05 0 1.62362 0 3.65326V36.2087C0 38.2383 1.62357 39.8619 3.65321 39.8619H41.8917V37.4262L20.4586 37.4268C21.1082 36.2092 21.5142 34.8285 21.5142 33.4485C21.5142 31.2564 20.6212 28.4152 19.241 26.1421C20.2966 26.5482 21.4332 26.7917 22.6508 26.7917C22.9753 26.7917 23.3814 26.7917 23.7064 26.7107C23.7874 26.7107 23.9499 26.7107 24.0309 26.6297C24.2744 26.6297 24.5179 26.5487 24.7614 26.4672C24.924 26.4672 25.005 26.3862 25.1675 26.3862C25.411 26.3052 25.5735 26.3052 25.8171 26.2237C25.9796 26.1427 26.0606 26.1427 26.1416 26.0611C26.3851 25.9801 26.5476 25.8986 26.7911 25.8176C26.8721 25.7366 27.0346 25.7366 27.1156 25.6551C27.3591 25.5741 27.5216 25.4116 27.7652 25.3306C27.8461 25.2496 27.9277 25.2496 28.0087 25.1681C28.2522 25.0055 28.4957 24.8436 28.7392 24.5995C28.7392 24.5995 28.8202 24.5995 28.8202 24.5185C29.3072 24.1125 29.7943 23.7064 30.2003 23.2194H33.6101C35.4772 25.4116 38.2379 26.7101 41.0792 26.7101H41.1601H41.2411H41.9717C42.3777 23.7064 44.8943 21.3517 48.0606 21.3517C48.7101 21.3517 49.2781 21.4327 49.9277 21.6762C50.7398 20.2151 51.2268 18.591 51.2268 16.8864C51.2268 15.9123 51.0643 15.0193 50.8208 14.2073C50.6582 13.6387 50.5773 13.1517 50.3337 12.6646C50.2528 12.5021 50.1712 12.4211 50.0092 12.3401C48.9537 10.3104 47.2491 8.68688 45.7874 7.14421C44.1639 5.52064 42.7022 4.05901 42.1342 2.43544H60.3198C60.9694 2.43544 61.5374 3.00401 61.5374 3.65299V28.1711L63.9731 29.5511V3.57173C63.9742 1.62357 62.3507 0 60.321 0L60.3208 5.19851e-05ZM20.2963 33.4485C20.2963 34.9096 19.8902 36.2903 19.0787 37.4268H3.65344C3.00388 37.4268 2.43589 36.8582 2.43589 36.2092V3.65378C2.43589 3.00422 3.00446 2.43623 3.65344 2.43623H21.9202C21.5142 4.54691 19.8906 5.76499 18.1854 7.22604C16.0747 8.93123 13.72 10.8792 12.9895 14.5325V14.695C12.9085 14.9385 12.9085 15.182 12.9085 15.5071V15.7506C12.9085 16.0751 12.8275 16.4811 12.8275 16.8062C12.8275 20.2969 14.6136 23.3012 17.3738 25.0873C17.3738 25.2498 17.3738 25.4118 17.4548 25.4933C19.16 27.8468 20.2966 31.0131 20.2966 33.4488L20.2963 33.4485ZM31.094 22.0828C31.4185 21.5143 31.7435 20.9463 31.987 20.2968C32.2305 20.9463 32.4741 21.5143 32.8801 22.0828H31.094ZM44.8145 8.03728C46.1136 9.33639 47.4936 10.7164 48.4677 12.2591C43.9214 12.3401 35.8838 13.5582 33.6107 21.0271C32.8802 19.8096 32.5551 18.348 32.5551 16.8053V16.7244C32.9612 14.3703 34.0162 12.4215 35.4778 11.1224C35.7213 10.8789 35.7213 10.4728 35.5588 10.2293C35.3153 9.98581 34.9092 9.98581 34.6657 10.1483C33.4482 11.2039 32.4736 12.7466 31.9056 14.4512C31.337 12.746 30.3629 11.2849 29.1454 10.1483C28.9019 9.90483 28.4958 9.90483 28.2523 10.2293C28.0088 10.4728 28.0088 10.8789 28.3333 11.1224C29.7943 12.4215 30.8499 14.4512 31.256 16.7244C31.256 16.8053 31.337 16.8869 31.337 16.9679C31.337 18.5105 30.8499 19.8906 30.2004 21.1082C27.9272 13.3141 19.6461 12.1775 15.0999 12.1775C16.0739 10.4723 17.5356 9.2548 18.9156 8.1182C20.7827 6.57552 22.7313 5.033 23.1374 2.35373H40.7547C41.3232 4.46484 43.0285 6.17003 44.8145 8.03716L44.8145 8.03728Z" fill="white"/>
<path d="M62.1069 32.799L49.2795 25.411C48.8735 25.1675 48.4675 25.0865 48.062 25.0865C46.7629 25.0865 45.6263 26.1421 45.6263 27.5222V42.3792C45.6263 43.8403 46.7628 44.8149 48.062 44.8149C48.468 44.8149 48.8741 44.7339 49.2795 44.4904L62.1069 37.0209C63.7304 36.1278 63.7304 33.7732 62.1069 32.7991V32.799Z" fill="white"/>
</svg>
