<svg width="21" height="18" viewBox="0 0 21 18" fill="none" xmlns="http://www.w3.org/2000/svg">
<path d="M20.2492 0.189988L13.6892 4.38499L9.31566 3.10081C8.99702 2.98725 8.6442 2.99618 8.36266 3.09383L3.08516 5.08601C2.4928 5.30978 2.38177 5.81955 2.5468 6.25384C2.70766 6.68226 3.28605 6.92391 3.71716 6.76041L6.76084 5.61044C6.73182 5.40522 6.73838 5.05519 6.82417 4.85737C7.07641 4.29055 7.84453 4.04891 8.40996 4.29458L10.4884 5.20294L10.3498 5.56608L8.27211 4.65801C7.85568 4.47916 7.36796 4.67015 7.18171 5.08658C7.12954 5.2134 7.10847 5.35095 7.12186 5.48266C7.13191 5.6251 7.17962 5.75861 7.25342 5.87719C7.34424 6.00805 7.46701 6.10864 7.61167 6.17002L11.406 7.82124C11.406 7.82124 11.719 7.95279 12.035 8.00678C12.3778 8.06496 12.7872 7.91973 12.7872 7.91973L20.2497 4.55673V0.189941L20.2492 0.189988Z" fill="#4926E8"/>
<path d="M16.1718 10.8386C13.0656 10.3638 11.4586 8.46481 7.06677 7.87135C4.65409 7.54531 2.24177 8.11479 0.557129 8.69431V17.8411H20.2493V10.8436C19.0288 10.9825 17.5493 11.0492 16.1718 10.8386V10.8386Z" fill="#4926E8"/>
</svg>
