<svg width="25" height="25" viewBox="0 0 25 25" fill="none" xmlns="http://www.w3.org/2000/svg">
<path d="M15.6601 5.76001L12.5601 12.16L9.50006 5.76001L6.96002 13.48H6.52002V14.3399H9.10009V13.5199H8.70013L9.96002 10.0599L12.24 14.3399H12.86L15.1401 10.0199L16.4201 13.48H15.96V14.34H18.6001V13.48H18.1401L15.6601 5.76001Z" fill="white"/>
<path d="M12.4999 2.39996C10.0798 2.39996 7.79992 3.35993 6.09992 5.07993C4.41996 6.79993 3.49989 9.05993 3.51985 11.4399C3.51985 13.5199 4.25981 15.5599 5.59978 17.1799C5.67972 17.28 5.77975 17.32 5.89972 17.32H8.53979C10.5598 17.32 13.1598 17.3399 15.3198 17.3399C17.0798 17.3399 18.5598 17.3399 19.2198 17.32C19.3398 17.32 19.4398 17.26 19.5197 17.16C20.8398 15.5199 21.5397 13.52 21.5397 11.42C21.54 6.45998 17.4801 2.39998 12.5001 2.39998L12.4999 2.39996ZM18.9999 16.52C17.2799 16.56 11.8199 16.5399 8.51992 16.52H6.07992C4.93985 15.08 4.29992 13.28 4.29992 11.44C4.29992 9.26 5.14003 7.19996 6.67996 5.63996C8.23996 4.07982 10.3 3.19996 12.5 3.19996C17.04 3.19996 20.74 6.89996 20.74 11.44C20.74 13.2999 20.1401 15.06 19 16.52H18.9999Z" fill="white"/>
</svg>
