<svg width="31" height="31" viewBox="0 0 31 31" fill="none" xmlns="http://www.w3.org/2000/svg">
<g clip-path="url(#clip0_55_619)">
<path d="M11.8092 5.51976C11.8383 5.5663 11.8674 5.61284 11.9002 5.65729C11.9096 5.67338 11.9206 5.68826 11.9333 5.70192C11.9962 5.7834 12.0651 5.86021 12.1395 5.93166C12.1512 5.94325 12.164 5.9538 12.1761 5.96504C12.2415 6.02594 12.3102 6.08303 12.382 6.13631C12.8005 6.44613 13.312 6.60476 13.8325 6.58572C14.3529 6.56686 14.8516 6.37156 15.2466 6.03197C15.3922 5.90603 15.6081 5.90603 15.7538 6.03197C16.1465 6.3693 16.6412 6.56428 17.1583 6.58536C17.6754 6.60647 18.1845 6.45268 18.6035 6.14873C18.6886 6.08646 18.7697 6.01899 18.8465 5.94668L18.8509 5.9427C18.9294 5.86849 19.0017 5.78787 19.0671 5.7019C19.0773 5.68996 19.0875 5.67629 19.0977 5.6628C19.1033 5.65502 19.1071 5.64896 19.1122 5.64152C19.1392 5.60174 19.1654 5.56091 19.1911 5.51974L19.1932 5.51559C19.4897 4.99142 19.5117 4.35552 19.2522 3.81214C18.7277 2.66607 17.3119 -0.000244141 15.5002 -0.000244141C13.8092 -0.000244141 12.4635 2.32183 11.8653 3.56338C11.8245 3.64832 11.7857 3.73136 11.7492 3.81076C11.7286 3.85522 11.7131 3.90089 11.6961 3.94604V3.94621C11.5133 4.41657 11.5316 4.94144 11.7471 5.39794C11.7672 5.43877 11.7859 5.48029 11.8092 5.51973L11.8092 5.51976ZM12.4524 4.13446C12.7799 3.41947 13.8688 1.23791 15.1126 0.838809V1.54982C15.1126 1.7638 15.2861 1.93732 15.5001 1.93732C15.7141 1.93732 15.8876 1.7638 15.8876 1.54982V0.838809C17.1314 1.2379 18.2204 3.41947 18.5479 4.13446C18.702 4.44844 18.6934 4.81797 18.5245 5.12447C18.5071 5.15353 18.4877 5.1826 18.4664 5.21166C18.4645 5.21356 18.4626 5.21547 18.4626 5.21754C18.1919 5.5694 17.781 5.78582 17.3376 5.81004C16.8943 5.83426 16.4625 5.66386 16.1551 5.34349C15.985 5.16289 15.748 5.06048 15.5001 5.06048C15.2523 5.06048 15.0153 5.16289 14.8452 5.34349C14.5378 5.66387 14.106 5.83426 13.6626 5.81004C13.2193 5.78582 12.8084 5.56941 12.5377 5.21754C12.5377 5.21564 12.5358 5.21374 12.5339 5.21166C12.5128 5.18381 12.4932 5.15474 12.4758 5.12447C12.3069 4.81793 12.2983 4.4484 12.4524 4.13446H12.4524Z" fill="#4926E8"/>
<path d="M14.764 24.5033C13.9859 23.7785 13.5439 22.7632 13.5434 21.6998C13.5434 21.4858 13.7169 21.3123 13.9309 21.3123C14.1449 21.3123 14.3184 21.4858 14.3184 21.6998C14.3208 22.6696 14.7803 23.5814 15.5584 24.1604C16.2181 24.579 16.9838 24.8008 17.7652 24.7998C17.7943 24.7998 17.8233 24.796 17.8543 24.796H17.864C17.8699 24.796 17.8756 24.7941 17.8815 24.7941V24.7939C18.9741 24.7659 20.011 24.3052 20.7644 23.5133C21.5169 22.7248 21.9229 21.6681 21.8921 20.5785C21.8611 19.4889 21.3958 18.4571 20.5997 17.7123C20.0549 17.1665 19.3581 16.7977 18.6003 16.6545V7.05377C18.1086 7.2918 17.5627 7.39508 17.0181 7.35304C16.4733 7.31118 15.9497 7.12539 15.5003 6.81488C15.051 7.12574 14.5272 7.31137 13.9825 7.35322C13.4377 7.39491 12.8917 7.29129 12.4003 7.05256V15.9026C12.8168 15.8154 13.9231 15.4338 14.2719 13.8508C14.3158 13.6529 14.5115 13.528 14.7095 13.571C14.9074 13.6143 15.0332 13.8096 14.9906 14.0077C14.5762 15.8986 13.1734 16.5477 12.4003 16.6486V16.6505C11.562 16.8055 10.7999 17.2374 10.2362 17.8768C9.48367 18.6649 9.07748 19.7214 9.10844 20.8107C9.13941 21.9001 9.60475 22.9316 10.4009 23.6758C10.9737 24.2152 11.6886 24.5797 12.4617 24.7262C13.2348 24.8727 14.0335 24.7954 14.764 24.503L14.764 24.5033Z" fill="#4926E8"/>
</g>
<defs>
<clipPath id="clip0_55_619">
<rect width="31" height="31" fill="white"/>
</clipPath>
</defs>
</svg>
