<svg width="20" height="10" viewBox="0 0 20 10" fill="none" xmlns="http://www.w3.org/2000/svg">
<path d="M18.95 8.60556L16.7722 4.92778L18.9278 1.4C18.979 1.31594 19.0069 1.21978 19.0087 1.12138C19.0105 1.02297 18.9862 0.925854 18.9381 0.839953C18.8901 0.754052 18.8201 0.682454 18.7353 0.632484C18.6505 0.582515 18.554 0.555967 18.4556 0.555557H1.11111C0.816426 0.555557 0.533811 0.672621 0.325437 0.880994C0.117063 1.08937 0 1.37198 0 1.66667L0 8.33333C0 8.62802 0.117063 8.91063 0.325437 9.11901C0.533811 9.32738 0.816426 9.44445 1.11111 9.44445H18.4722C18.5703 9.44443 18.6666 9.41846 18.7514 9.36917C18.8361 9.31989 18.9063 9.24904 18.9549 9.16383C19.0034 9.07863 19.0285 8.98209 19.0277 8.88404C19.0268 8.78598 19 8.6899 18.95 8.60556ZM5.83889 6.76667H5.21667L3.40556 4.35556V6.77222H2.77778V3.33333H3.40556L5.22222 5.75V3.33333H5.84444L5.83889 6.76667ZM9.35556 3.88889H7.39444V4.71667H9.17222V5.27222H7.39444V6.16667H9.35556V6.72222H6.76667V3.33333H9.35L9.35556 3.88889ZM13.9611 6.75556H13.3333L12.4722 4.20556L11.6111 6.76667H10.9889L9.87778 3.33333H10.5556L11.2889 5.79445L12.1333 3.33333H12.8111L13.6222 5.79445L14.3611 3.33333H15.0444L13.9611 6.75556Z" fill="#4926E8"/>
</svg>
