<svg width="13" height="13" viewBox="0 0 13 13" fill="none" xmlns="http://www.w3.org/2000/svg">
<path d="M9.3125 13C4.66016 13 0.875 8.9625 0.875 4C0.876759 3.14879 1.16825 2.32722 1.69527 1.68804C2.22229 1.04886 2.94898 0.63557 3.74023 0.525005C3.94194 0.501149 4.14553 0.546448 4.32147 0.654332C4.49741 0.762216 4.63657 0.927076 4.71875 1.125L5.89648 4.05625C5.95757 4.20841 5.98207 4.37442 5.96774 4.53923C5.95342 4.70404 5.90073 4.86243 5.81445 5L4.8418 6.5875C5.28224 7.54094 6.00796 8.31064 6.9043 8.775L8.375 7.73125C8.50384 7.63861 8.6527 7.58254 8.80751 7.56832C8.96232 7.5541 9.11797 7.58222 9.25977 7.65L12.0078 8.9C12.1934 8.98767 12.3479 9.1361 12.4491 9.32377C12.5502 9.51144 12.5927 9.7286 12.5703 9.94375C12.4667 10.7878 12.0792 11.5629 11.48 12.1251C10.8807 12.6872 10.1105 12.9981 9.3125 13ZM3.85742 1.51875C3.29196 1.59629 2.77239 1.89101 2.39597 2.34774C2.01956 2.80447 1.81212 3.39189 1.8125 4C1.81405 6.12123 2.60473 8.1551 4.01091 9.65503C5.4171 11.155 7.32385 11.9983 9.3125 12C9.88261 12.0004 10.4333 11.7791 10.8615 11.3776C11.2897 10.9761 11.566 10.4219 11.6387 9.81875L8.89062 8.56875L7.42578 9.6125C7.291 9.70755 7.13547 9.76383 6.97429 9.77587C6.81311 9.78792 6.65175 9.75532 6.50586 9.68125C5.41422 9.11799 4.53121 8.18051 3.99805 7.01875C3.92775 6.86366 3.89621 6.69183 3.90647 6.51992C3.91674 6.348 3.96847 6.18183 4.05664 6.0375L5.03516 4.45L3.85742 1.51875Z" fill="white"/>
</svg>
