<svg width="18" height="16" viewBox="0 0 18 16" fill="none" xmlns="http://www.w3.org/2000/svg">
<path d="M13.125 15.625C6.30156 15.625 0.75 10.8305 0.75 4.93752C0.75258 3.9267 1.18009 2.95109 1.95306 2.19206C2.72602 1.43304 3.79184 0.942255 4.95234 0.810959C5.24818 0.78263 5.54677 0.836422 5.80482 0.964534C6.06288 1.09265 6.26697 1.28842 6.3875 1.52346L8.11484 5.00432C8.20444 5.185 8.24037 5.38214 8.21936 5.57785C8.19835 5.77357 8.12107 5.96165 7.99453 6.12502L6.56797 8.01018C7.21395 9.14238 8.27834 10.0564 9.59297 10.6078L11.75 9.36838C11.939 9.25837 12.1573 9.19178 12.3843 9.17489C12.6114 9.15801 12.8397 9.1914 13.0477 9.27189L17.0781 10.7563C17.3503 10.8604 17.577 11.0366 17.7253 11.2595C17.8736 11.4824 17.9359 11.7402 17.9031 11.9957C17.7511 12.998 17.1828 13.9185 16.304 14.586C15.4251 15.2536 14.2954 15.6228 13.125 15.625ZM5.12422 1.99104C4.29488 2.08311 3.53283 2.43309 2.98076 2.97546C2.42869 3.51782 2.12445 4.21538 2.125 4.93752C2.12728 7.45647 3.28693 9.87169 5.34934 11.6529C7.41175 13.434 10.2083 14.4356 13.125 14.4375C13.9612 14.438 14.7689 14.1752 15.3969 13.6985C16.0249 13.2217 16.4301 12.5635 16.5367 11.8473L12.5063 10.3629L10.3578 11.6024C10.1601 11.7152 9.93203 11.7821 9.69563 11.7964C9.45923 11.8107 9.22257 11.772 9.00859 11.684C7.40753 11.0151 6.11244 9.90188 5.33047 8.52229C5.22737 8.33812 5.1811 8.13407 5.19616 7.92992C5.21122 7.72577 5.28708 7.52844 5.41641 7.35705L6.85156 5.4719L5.12422 1.99104Z" fill="white"/>
</svg>
