<svg width="22" height="23" viewBox="0 0 22 23" fill="none" xmlns="http://www.w3.org/2000/svg">
<path d="M10.8066 13.5274L10.7959 13.5187L10.6029 12.1142C10.2514 9.32084 8.34592 8.80313 8.34592 8.80313H7.16736L7.07289 8.80331V8.25794C7.35611 8.05794 7.54165 7.72793 7.54165 7.35563C7.54165 6.74402 7.04629 6.24902 6.43504 6.24902C5.82398 6.24902 5.32844 6.74438 5.32844 7.35563C5.32844 7.72813 5.51379 8.05812 5.79682 8.25794V8.80331H4.44345L2.39006 10.4492V11.8103H1.65543C1.65543 11.8103 1.61239 11.8403 1.18613 12.1574C0.514858 12.6574 1.00113 12.6776 1.00113 12.6776H1.87829L1.87811 13.6547L1.66186 14.0079C1.66133 14.0074 1.10918 13.351 1.10918 13.351C0.653281 12.9892 0.269542 13.4521 0.269542 13.4521C-0.0349248 13.8578 0.167932 14.1469 0.515612 14.4297C0.863292 14.7119 0.690968 14.951 0.690968 14.951C0.331859 15.669 0.128819 16.4838 0.128819 17.3492C0.128819 20.2203 2.36489 22.5474 5.12356 22.5474H5.73929C5.9425 22.7061 6.19518 22.8047 6.47323 22.8047C6.75091 22.8047 7.00361 22.7061 7.20717 22.5474H7.42199C10.1804 22.5474 12.4167 20.2204 12.4167 17.3492C12.4157 15.8383 11.7958 14.4778 10.8065 13.5274L10.8066 13.5274ZM6.43465 6.71967C6.78555 6.71967 7.07035 7.0036 7.07035 7.35538C7.07035 7.70609 6.78571 7.99072 6.43465 7.99072C6.0834 7.99072 5.79895 7.70607 5.79895 7.35538C5.79895 7.00377 6.08342 6.71967 6.43465 6.71967ZM6.47215 22.1729C6.15787 22.1729 5.90305 21.9183 5.90305 21.6037C5.90305 21.2897 6.15805 21.0349 6.47215 21.0349C6.78572 21.0349 7.04088 21.2899 7.04088 21.6037C7.04106 21.9181 6.78588 22.1729 6.47215 22.1729ZM7.42127 20.6602H7.20645C7.00288 20.5019 6.7502 20.4035 6.47251 20.4035C6.19447 20.4035 5.94181 20.5019 5.73857 20.6602H5.12284C3.36517 20.6602 1.94071 19.1779 1.94071 17.3492C1.94071 16.1624 2.54071 15.122 3.44161 14.5375H9.10469L9.11808 14.5475C10.0106 15.1345 10.6031 16.1695 10.6031 17.3491C10.6027 19.1779 9.17843 20.6602 7.42126 20.6602L7.42127 20.6602Z" fill="#4926E8"/>
<path d="M21.485 9.16954C21.1373 8.88793 21.3099 8.64776 21.3099 8.64776C21.6688 7.93059 21.872 7.11436 21.872 6.25027C21.872 3.37918 19.6356 1.05164 16.8768 1.05164H16.2611C16.0579 0.893608 15.8052 0.794678 15.5271 0.794678C15.2495 0.794678 14.9968 0.893786 14.7932 1.05164H14.5784C11.82 1.05164 9.58363 3.37914 9.58363 6.25027C9.58363 7.76154 10.2035 9.12241 11.1929 10.0719L11.2036 10.0812L11.3967 11.4851C11.7481 14.2785 13.6536 14.7969 13.6536 14.7969H14.9267V15.3413C14.6435 15.5419 14.4583 15.871 14.4583 16.2446C14.4583 16.8556 14.9536 17.351 15.5647 17.351C16.1759 17.351 16.6717 16.8554 16.6717 16.2446C16.6717 15.871 16.4863 15.5419 16.2033 15.3413V14.7969H17.5567L19.6101 13.1501V11.7887H20.3445C20.3445 11.7887 20.3875 11.7599 20.8138 11.4421C21.4851 10.9416 20.9992 10.9215 20.9992 10.9215H20.1219L20.122 9.9444L20.3383 9.59154C20.3388 9.59208 20.891 10.2485 20.891 10.2485C21.3469 10.6105 21.7306 10.1471 21.7306 10.1471C22.0351 9.74154 21.8324 9.45153 21.4849 9.16956L21.485 9.16954ZM15.5275 1.42645C15.8417 1.42645 16.0966 1.6811 16.0966 1.9945C16.0966 2.30861 15.8416 2.5636 15.5275 2.5636C15.2136 2.5636 14.9588 2.3086 14.9588 1.9945C14.9586 1.68128 15.2136 1.42645 15.5275 1.42645ZM15.565 16.8802C15.2141 16.8802 14.9293 16.5952 14.9293 16.2445C14.9293 15.893 15.214 15.6086 15.565 15.6086C15.9163 15.6086 16.2009 15.893 16.2009 16.2445C16.2009 16.595 15.9161 16.8802 15.565 16.8802ZM18.5583 9.06165H12.8952L12.8818 9.05147C11.9893 8.46505 11.3968 7.42917 11.3968 6.25042C11.3968 4.42185 12.8213 2.93883 14.5786 2.93883H14.7934C14.997 3.09687 15.2497 3.1958 15.5274 3.1958C15.8054 3.1958 16.0581 3.09669 16.2613 2.93883H16.8771C18.6345 2.93883 20.0592 4.42185 20.0592 6.25042C20.0592 7.4363 19.4592 8.47685 18.5583 9.06167L18.5583 9.06165Z" fill="#4926E8"/>
</svg>
