<svg width="29" height="32" viewBox="0 0 29 32" fill="none" xmlns="http://www.w3.org/2000/svg">
<path fill-rule="evenodd" clip-rule="evenodd" d="M14.0329 0.204707C14.3371 0.109499 14.6634 0.109499 14.9676 0.204707L27.5012 4.12128C28.1551 4.3256 28.6004 4.93143 28.6004 5.61656V14.2337C28.6004 18.6717 26.5108 22.8508 22.9604 25.5137L15.4404 31.1537C14.8833 31.5715 14.1175 31.5715 13.5604 31.1537L6.04039 25.5137C2.48994 22.8508 0.400391 18.6718 0.400391 14.2337V5.61656C0.400391 4.9315 0.845736 4.3256 1.49986 4.12128L14.0329 0.204707ZM20.4039 12.1031C20.9578 11.4385 20.8681 10.4505 20.2032 9.89658C19.5386 9.34265 18.5506 9.43261 17.9967 10.0972L13.7699 15.1697L10.7938 12.7287C10.125 12.1797 9.13781 12.2773 8.58911 12.9461C8.04017 13.6152 8.13773 14.6024 8.8068 15.1511L12.9844 18.578C13.6498 19.1238 14.6309 19.0309 15.1818 18.3697L20.4039 12.1031Z" fill="#4926E8"/>
</svg>
