<svg width="23" height="23" viewBox="0 0 23 23" fill="none" xmlns="http://www.w3.org/2000/svg">
<path d="M18.6101 4.61L16.4595 6.7606C15.6925 6.2526 14.8195 5.89265 13.881 5.719C13.2788 2.4649 10.4282 0 7 0C3.134 0 0 3.134 0 7C0 10.3865 2.4049 13.211 5.6 13.86V16.8002H2.8V19.6002H5.6V22.4002H8.4V19.6002H11.2V16.8002H8.4V13.86C11.0816 13.3156 13.2006 11.2361 13.8145 8.5805C15.5414 9.1012 16.8 10.7031 16.8 12.6004C16.8 14.4283 15.6301 15.9791 14 16.5562V19.4601C17.1951 18.8113 19.6001 15.9869 19.6001 12.6001C19.6001 11.1736 19.1721 9.8472 18.4395 8.7406L20.5899 6.5902L22.4001 8.40015V2.80015H16.8L18.6101 4.61ZM5.7851 11.02C4.05835 10.4987 2.79995 8.89715 2.79995 7.0001C2.79995 4.68055 4.6804 2.8001 6.99995 2.8001C8.8972 2.8001 10.4991 4.0587 11.0198 5.78565C8.42455 6.38545 6.3847 8.4247 5.78485 11.0202L5.7851 11.02Z" fill="#4926E8"/>
</svg>
