<svg width="23" height="20" viewBox="0 0 23 20" fill="none" xmlns="http://www.w3.org/2000/svg">
<path d="M22.0292 0.285207L14.9444 4.81581L10.221 3.42889C9.87684 3.30625 9.49579 3.31589 9.19173 3.42136L3.49203 5.57291C2.85229 5.81459 2.73237 6.36513 2.91061 6.83416C3.08433 7.29686 3.709 7.55784 4.17459 7.38126L7.46176 6.1393C7.43042 5.91766 7.43751 5.53963 7.53017 5.32598C7.80258 4.71381 8.63215 4.45284 9.24282 4.71817L11.4875 5.6992L11.3379 6.09139L9.09393 5.11067C8.64419 4.91751 8.11746 5.12378 7.91631 5.57353C7.85996 5.71049 7.83721 5.85905 7.85167 6.00129C7.86252 6.15512 7.91405 6.29931 7.99375 6.42739C8.09184 6.56872 8.22443 6.67735 8.38066 6.74364L12.4785 8.52695C12.4785 8.52695 12.8166 8.66903 13.1579 8.72734C13.528 8.79017 13.9702 8.63332 13.9702 8.63332L22.0297 5.00128V0.285156L22.0292 0.285207Z" fill="#4926E8"/>
<path d="M17.6255 11.7856C14.2709 11.2729 12.5353 9.22196 7.79213 8.58102C5.18644 8.22891 2.58113 8.84394 0.761715 9.46982V19.3484H22.0292V11.7911C20.7112 11.9411 19.1133 12.0131 17.6255 11.7856V11.7856Z" fill="#4926E8"/>
</svg>
