<svg width="39" height="28" viewBox="0 0 39 28" fill="none" xmlns="http://www.w3.org/2000/svg">
<path d="M25.44 10.4857C25.4114 11.5102 25.7935 12.5041 26.5016 13.2452C27.2097 13.9864 28.1845 14.414 29.2093 14.4324C30.2341 14.4511 31.2239 14.0591 31.9583 13.344C32.6928 12.6289 33.1108 11.6498 33.1194 10.625C33.128 9.5999 32.7265 8.61406 32.0044 7.88665C31.2822 7.15925 30.2991 6.75074 29.274 6.752C28.2695 6.73512 27.2999 7.12 26.5799 7.82096C25.8602 8.52166 25.4498 9.4811 25.44 10.4856V10.4857ZM31.8954 10.4857C31.9239 11.1864 31.6704 11.8693 31.1919 12.3816C30.7131 12.8941 30.0493 13.1934 29.3483 13.2127C28.6473 13.232 27.9678 12.9696 27.4619 12.4841C26.9558 11.9988 26.6654 11.3306 26.6553 10.6296C26.6455 9.92831 26.9168 9.2525 27.4091 8.7531C27.9011 8.25343 28.5729 7.97199 29.2739 7.97138C29.9544 7.95941 30.6118 8.21722 31.1028 8.68834C31.5939 9.15947 31.8787 9.80555 31.8953 10.4857L31.8954 10.4857Z" fill="#D9D9D9"/>
<path d="M28.3692 10.4857C28.3566 10.8574 28.5708 11.1999 28.9109 11.3503C29.2513 11.501 29.6487 11.4298 29.9154 11.1708C30.1821 10.9114 30.2647 10.5158 30.1235 10.1718C29.9826 9.8274 29.6463 9.60334 29.2742 9.6058C29.0376 9.60243 28.8092 9.69328 28.6395 9.8584C28.4698 10.0232 28.3725 10.2491 28.3691 10.4857L28.3692 10.4857Z" fill="#D9D9D9"/>
<path d="M6.38154 19.1412C6.79004 19.9581 8.77639 24.1697 8.02847 26.9796C7.95082 27.3025 8.13804 27.6303 8.45601 27.7276H8.61315C8.88785 27.722 9.12694 27.5388 9.20397 27.2749C9.87643 24.7606 8.74513 21.4667 7.98454 19.6881C10.3279 20.3047 12.8179 20.0119 14.9541 18.868C17.0902 17.724 18.7141 15.8141 19.4998 13.5217C20.2818 15.8175 21.9043 17.7317 24.041 18.8793C26.1774 20.0269 28.6693 20.3228 31.0152 19.7068C30.2546 21.4857 29.1295 24.7354 29.7957 27.2936V27.2939C29.8728 27.5575 30.1119 27.7407 30.3866 27.7463H30.5437C30.8617 27.6493 31.0489 27.3215 30.9712 26.9983C30.2233 24.1949 32.2284 19.9772 32.6182 19.1599C34.3403 18.3563 35.796 17.0761 36.8129 15.471C37.83 13.8658 38.3659 12.0025 38.357 10.1024C38.357 7.28638 37.2383 5.52654 36.0502 3.66565C35.3983 2.69883 34.8286 1.67897 34.3467 0.617002C34.32 0.423339 34.2049 0.253303 34.0352 0.156314C33.8652 0.0596319 33.6602 0.0473591 33.48 0.123474C33.2998 0.199282 33.1651 0.354584 33.1157 0.54365C33.0663 0.733023 33.1077 0.934363 33.2277 1.08843C33.7332 2.21389 34.3324 3.29488 35.0192 4.31937C36.1569 6.09831 37.1376 7.63807 37.1376 10.1024C37.1999 12.4006 36.3307 14.6264 34.7273 16.2739C33.124 17.9215 30.9224 18.8508 28.6236 18.8508C26.3244 18.8508 24.1233 17.9215 22.5195 16.2739C20.9162 14.6264 20.047 12.4006 20.1096 10.1024C20.0393 9.82278 19.7879 9.62666 19.4997 9.62666C19.2116 9.62666 18.9602 9.82278 18.8899 10.1024C18.9117 12.3846 18.0272 14.5825 16.4305 16.2134C14.8336 17.8444 12.6551 18.7753 10.3728 18.8017C8.0912 18.7753 5.91327 17.844 4.31733 16.2128C2.72162 14.5818 1.83864 12.384 1.86197 10.1023C1.86197 7.64451 2.84254 6.09823 3.98034 4.31929C4.66722 3.2948 5.26632 2.21381 5.77185 1.08835C5.89185 0.934283 5.93329 0.732944 5.88387 0.543571C5.83446 0.354513 5.69972 0.199209 5.51956 0.123395C5.3394 0.047279 5.13438 0.0595557 4.96434 0.156236C4.79461 0.253224 4.67952 0.423252 4.65282 0.616923C4.17341 1.68007 3.6035 2.70001 2.94939 3.66557C1.76132 5.52615 0.642616 7.2863 0.642616 10.1023C0.637398 11.9994 1.17481 13.8584 2.19165 15.4599C3.20844 17.0615 4.66233 18.3389 6.38139 19.1412H6.38154Z" fill="#D9D9D9"/>
<path d="M5.88479 10.4857C5.85625 11.5099 6.23836 12.5031 6.94582 13.2443C7.65328 13.9855 8.62772 14.4134 9.65221 14.4324C10.6767 14.4517 11.6662 14.0607 12.401 13.3462C13.1357 12.632 13.5547 11.6539 13.5642 10.629C13.574 9.60456 13.1741 8.6184 12.4531 7.89044C11.7322 7.16243 10.75 6.75241 9.72552 6.7521C8.71973 6.73368 7.74835 7.11764 7.02706 7.81863C6.3058 8.51994 5.89485 9.48002 5.88471 10.4857H5.88479ZM12.3464 10.4857H12.3467C12.3752 11.1864 12.1217 11.8693 11.6432 12.3816C11.1647 12.8941 10.5005 13.1934 9.79952 13.2127C9.09851 13.232 8.41933 12.9696 7.91318 12.4841C7.40707 11.9988 7.1167 11.3307 7.10656 10.6296C7.09674 9.92833 7.36806 9.25252 7.86036 8.75312C8.35235 8.25346 9.02416 7.97201 9.72549 7.9714C10.4056 7.95943 11.063 8.21724 11.5541 8.68837C12.0452 9.15949 12.33 9.80557 12.3466 10.4857L12.3464 10.4857Z" fill="#D9D9D9"/>
<path d="M10.6308 10.4858C10.6308 10.9719 10.2254 11.3657 9.72569 11.3657C9.22572 11.3657 8.82031 10.9719 8.82031 10.4858C8.82031 9.99961 9.22576 9.60583 9.72569 9.60583C10.2254 9.60583 10.6308 9.99961 10.6308 10.4858Z" fill="#D9D9D9"/>
</svg>
