<svg width="18" height="17" viewBox="0 0 18 17" fill="none" xmlns="http://www.w3.org/2000/svg">
<path fill-rule="evenodd" clip-rule="evenodd" d="M9.36415 0.714411L10.3994 1.89607L11.9476 1.23929C12.1985 1.13362 12.4873 1.26969 12.5674 1.52871L13.0398 3.05175L14.719 3.08148C14.9905 3.08577 15.2029 3.32684 15.1694 3.59645L14.9826 5.18162L16.5049 5.89212C16.7353 6.00007 16.8351 6.27448 16.7271 6.50512C16.5197 6.93503 16.1439 7.48936 15.8897 7.91604L16.9923 9.18568C17.1703 9.39112 17.1306 9.70881 16.9091 9.86484L15.6065 10.7853L16.0972 12.3929C16.1767 12.655 16.0118 12.9261 15.7443 12.9788L14.1823 13.29L13.9773 14.9572C13.9423 15.2428 13.6561 15.4273 13.3832 15.3436L11.8601 14.9982L10.9948 16.4373C10.8545 16.6716 10.5411 16.7333 10.3229 16.5704L9.04362 15.6155L7.66736 16.5786C7.44195 16.736 7.13514 16.6624 7.00067 16.4246L6.22242 15.0343L4.57108 15.3549C4.29037 15.4085 4.03255 15.1985 4.02278 14.9152L3.87988 13.3549L2.24329 12.9767C1.97543 12.9153 1.8226 12.6371 1.909 12.3783L2.42222 10.868L1.08066 9.85618C0.849362 9.68181 0.834897 9.34135 1.04637 9.14702L2.10402 8.00366L1.28973 6.53366C1.15621 6.29352 1.2612 5.99297 1.51219 5.88504L2.9755 5.25665L2.82965 3.58186C2.80474 3.29298 3.05144 3.05393 3.33671 3.08163L4.89053 3.10266L5.43818 1.51359C5.53099 1.24372 5.84159 1.12331 6.09215 1.2551L7.51713 1.9127L8.66303 0.684726C8.85736 0.475933 9.18897 0.492671 9.36427 0.713922L9.36415 0.714411ZM5.21764 8.77567C4.60492 8.16295 5.53666 7.23093 6.14966 7.84365L8.21377 9.90802L11.8285 5.90139C12.4065 5.25895 13.385 6.13912 12.8069 6.78199L8.74948 11.2792C8.50345 11.5818 8.04875 11.6064 7.77206 11.3296L5.21791 8.77573L5.21764 8.77567Z" fill="#4926E8"/>
</svg>
