<svg width="35" height="36" viewBox="0 0 35 36" fill="none" xmlns="http://www.w3.org/2000/svg">
<path d="M0.65589 18.3246C0.772157 21.6567 3.47289 24.2665 6.80424 24.2665C11.648 24.2665 13.6108 18.9966 12.8556 17.9834L8.01114 7.9156C8.3956 7.55475 8.62085 7.03746 8.56309 6.44957L14.4819 4.35051C14.6968 5.09179 15.1807 5.72609 15.8469 6.13315V28.2275C12.8383 28.9294 10.6282 31.5094 10.3819 34.5787H8.05652C7.7597 34.5787 7.51913 34.8193 7.51913 35.1161C7.51913 35.413 7.7597 35.6535 8.05652 35.6535H26.8884C27.1852 35.6535 27.4258 35.413 27.4258 35.1161C27.4258 34.8193 27.1852 34.5787 26.8884 34.5787H24.5605C24.3139 31.5024 22.1033 28.9196 19.0977 28.2267V6.13302C19.7685 5.7237 20.2546 5.08484 20.4653 4.35109L26.3816 6.44944C26.3245 7.04358 26.5496 7.5601 26.9322 7.91772C20.4863 21.3226 22.3655 17.3311 22.038 18.0967C22.0189 18.1422 21.9986 18.224 21.9973 18.2936C21.9971 18.3041 21.9918 18.3139 21.992 18.3245C22.1085 21.6565 24.809 24.2664 28.1404 24.2664C33.004 24.2664 34.9264 18.9694 34.192 17.9833L29.3488 7.9174C29.9449 7.36042 30.1069 6.45387 29.6519 5.70256C30.3497 4.87238 31.3097 4.41833 30.8379 3.94654C30.6804 3.78909 30.4255 3.78909 30.2681 3.94654L29.0883 5.12631C28.2187 4.57536 27.1475 4.86967 26.6407 5.68604L20.594 3.54154C20.5945 3.51642 20.5966 3.49558 20.5966 3.46846C20.5966 1.74708 19.1963 0.346619 17.4749 0.346619C15.7505 0.346619 14.3477 1.74708 14.3477 3.46846C14.3477 3.49583 14.3495 3.51617 14.3502 3.54154L8.30313 5.68604C7.98346 5.17201 7.42396 4.84403 6.80399 4.84403C6.46849 4.84403 6.14082 4.94649 5.8568 5.12678L4.67632 3.94656C4.51888 3.78911 4.26374 3.78911 4.10654 3.94656C3.94909 4.10401 3.94909 4.3589 4.10654 4.51634L5.29229 5.70184C4.84354 6.44215 4.99095 7.34588 5.59715 7.91468L0.710146 18.0705C0.691061 18.1097 0.653142 18.2621 0.655905 18.3244L0.65589 18.3246ZM6.80424 23.192C4.2431 23.192 2.13375 21.3225 1.77915 18.8434H11.8296C11.475 21.3224 9.36538 23.192 6.8045 23.192H6.80424ZM18.2921 6.48544V28.0829C17.7494 28.0188 17.1879 28.0191 16.6533 28.0824V6.48494C17.19 6.63058 17.7553 6.63234 18.2921 6.48519V6.48544ZM23.4882 34.5789H11.4571C11.7082 31.9232 13.6925 29.7103 16.3566 29.2113C17.0618 29.0692 17.8681 29.0657 18.5969 29.2131C21.2539 29.706 23.2373 31.9189 23.4881 34.579L23.4882 34.5789ZM28.1409 23.1927C25.5797 23.1927 23.4704 21.3231 23.1158 18.844H33.1662C32.8116 21.323 30.7023 23.1927 28.1411 23.1927H28.1409ZM23.3862 17.7671L27.9028 8.38007C28.06 8.40166 28.2217 8.40166 28.3789 8.38007L32.8955 17.7671H23.3862ZM28.1409 5.91921C28.5389 5.91921 28.8395 6.24792 28.8395 6.62282C28.8395 7.54519 27.4425 7.54718 27.4425 6.62282C27.4425 6.54698 27.7524 5.91921 28.1409 5.91921ZM17.4752 1.153C18.7521 1.153 19.791 2.19186 19.791 3.46877C19.791 3.56143 19.7882 3.65409 19.7671 3.7686C19.4354 6.45555 15.5112 6.45253 15.1737 3.74248C15.1569 3.65409 15.1539 3.56143 15.1539 3.46877C15.1541 2.19212 16.1952 1.153 17.4752 1.153L17.4752 1.153ZM6.65272 7.30412C5.83031 7.1198 5.99302 5.91895 6.80414 5.91895C7.8232 5.9192 7.66545 7.52886 6.65272 7.30412ZM6.56608 8.38013C6.72328 8.40173 6.885 8.40173 7.0422 8.38013L11.5588 17.7671H2.04899L6.56608 8.38013Z" fill="#D9D9D9"/>
</svg>
