<svg width="57" height="54" viewBox="0 0 57 54" fill="none" xmlns="http://www.w3.org/2000/svg">
<path d="M34.7799 17.5628H38.7726C39.2531 17.5628 39.6423 17.174 39.6423 16.6931V12.6954C39.6423 12.2149 39.2535 11.8257 38.7726 11.8257H34.7799C34.2994 11.8257 33.9102 12.2145 33.9102 12.6954V16.6931C33.9106 17.174 34.2994 17.5628 34.7799 17.5628ZM35.6496 13.5647H37.9033V15.8234H35.6496V13.5647Z" fill="url(#paint0_linear_249_3867)"/>
<path d="M42.4971 17.5628H46.4899C46.9704 17.5628 47.3596 17.174 47.3596 16.6931V12.6954C47.3596 12.2149 46.9708 11.8257 46.4899 11.8257H42.4971C42.0167 11.8257 41.6274 12.2145 41.6274 12.6954V16.6931C41.6274 17.174 42.0163 17.5628 42.4971 17.5628ZM43.3664 13.5647H45.6202V15.8234H43.3664V13.5647Z" fill="url(#paint1_linear_249_3867)"/>
<path d="M34.7799 24.8978H38.7726C39.2531 24.8978 39.6423 24.509 39.6423 24.0281V20.0304C39.6423 19.5499 39.2535 19.1607 38.7726 19.1607H34.7799C34.2994 19.1607 33.9102 19.5495 33.9102 20.0304V24.0281C33.9106 24.509 34.2994 24.8978 34.7799 24.8978ZM35.6496 20.9001H37.9033V23.1589H35.6496V20.9001Z" fill="url(#paint2_linear_249_3867)"/>
<path d="M42.4971 24.8978H46.4899C46.9704 24.8978 47.3596 24.509 47.3596 24.0281V20.0304C47.3596 19.5499 46.9708 19.1607 46.4899 19.1607H42.4971C42.0167 19.1607 41.6274 19.5495 41.6274 20.0304V24.0281C41.6274 24.509 42.0163 24.8978 42.4971 24.8978ZM43.3664 20.9001H45.6202V23.1589H43.3664V20.9001Z" fill="url(#paint3_linear_249_3867)"/>
<path d="M38.7731 32.2317C39.2536 32.2317 39.6428 31.8429 39.6428 31.362V27.3643C39.6428 26.8839 39.254 26.4946 38.7731 26.4946H34.7803C34.2999 26.4946 33.9106 26.8834 33.9106 27.3643V31.362C33.9106 31.8425 34.2995 32.2317 34.7803 32.2317H38.7731ZM35.6497 28.2336H37.9035V30.4924H35.6497V28.2336Z" fill="url(#paint4_linear_249_3867)"/>
<path d="M42.4971 32.2317H46.4899C46.9704 32.2317 47.3596 31.8429 47.3596 31.362V27.3643C47.3596 26.8839 46.9708 26.4946 46.4899 26.4946H42.4971C42.0167 26.4946 41.6274 26.8834 41.6274 27.3643V31.362C41.6274 31.8425 42.0163 32.2317 42.4971 32.2317ZM43.3664 28.2336H45.6202V30.4924H43.3664V28.2336Z" fill="url(#paint5_linear_249_3867)"/>
<path d="M42.838 43.3296C42.3575 43.3296 41.9683 43.7184 41.9683 44.1993V46.6728C41.9683 47.1533 42.3571 47.5425 42.838 47.5425C43.3184 47.5425 43.7077 47.1537 43.7077 46.6728V44.1993C43.7077 43.7188 43.3189 43.3296 42.838 43.3296Z" fill="url(#paint6_linear_249_3867)"/>
<path d="M55.4562 53.1128C55.9366 53.1128 56.3259 52.724 56.3259 52.2431C56.3259 51.7626 55.9371 51.3734 55.4562 51.3734H52.9546V7.12127C52.9546 6.6408 52.5658 6.25157 52.0849 6.25157H50.6811V1.75617C50.6811 1.2757 50.2923 0.886475 49.8114 0.886475H31.4557C30.9752 0.886475 30.586 1.27529 30.586 1.75617V6.25157H29.1831C28.7026 6.25157 28.3134 6.64038 28.3134 7.12127V27.0606H5.9848C5.64956 27.0606 5.34361 27.2535 5.19923 27.5565L1.72083 34.8611C1.59276 35.1302 1.61202 35.447 1.77106 35.6994C1.93052 35.9518 2.20841 36.1045 2.50641 36.1045H5.11512V51.3745H1.54255C1.06208 51.3745 0.672852 51.7633 0.672852 52.2442C0.672852 52.7247 1.06166 53.1139 1.54255 53.1139L55.4562 53.1128ZM14.0262 51.368H10.6955V45.4253C10.6955 44.5092 11.4447 43.7642 12.365 43.7642C13.2992 43.7642 14.0262 44.5196 14.0262 45.4253V51.368ZM32.3262 2.62549H48.9419V6.25163H32.3262V2.62549ZM30.0536 7.99056H51.2153V51.3706H46.2282V38.6356C46.2282 38.1551 45.8394 37.7659 45.3585 37.7659H35.9106C35.4301 37.7659 35.0409 38.1547 35.0409 38.6356V51.3706H30.0537L30.0536 7.99056ZM36.7801 51.3684V39.5056H44.4889V51.3684H36.7801ZM6.53474 28.7998H28.3126V34.3654H3.88402L6.53474 28.7998ZM28.3137 36.1048V51.3684H15.7662V45.4257C15.7662 43.5733 14.2679 42.0257 12.3661 42.0257C10.4869 42.0257 8.95767 43.5507 8.95767 45.4257V51.3684H6.85585V36.1048H28.3137Z" fill="url(#paint7_linear_249_3867)"/>
<path d="M17.5831 48.4425H26.7831C27.2636 48.4425 27.6528 48.0537 27.6528 47.5728V42.8949C27.6528 42.4144 27.264 42.0252 26.7831 42.0252H17.5831C17.1026 42.0252 16.7134 42.414 16.7134 42.8949V47.5732C16.7138 48.0537 17.1026 48.4425 17.5831 48.4425V48.4425ZM18.4528 43.7642H25.9139V46.7031H18.4528V43.7642Z" fill="url(#paint8_linear_249_3867)"/>
<defs>
<linearGradient id="paint0_linear_249_3867" x1="36.7762" y1="11.8257" x2="36.7762" y2="17.5628" gradientUnits="userSpaceOnUse">
<stop stop-color="#FF005C"/>
<stop offset="1" stop-color="#A3315A"/>
</linearGradient>
<linearGradient id="paint1_linear_249_3867" x1="44.4935" y1="11.8257" x2="44.4935" y2="17.5628" gradientUnits="userSpaceOnUse">
<stop stop-color="#FF005C"/>
<stop offset="1" stop-color="#A3315A"/>
</linearGradient>
<linearGradient id="paint2_linear_249_3867" x1="36.7762" y1="19.1607" x2="36.7762" y2="24.8978" gradientUnits="userSpaceOnUse">
<stop stop-color="#FF005C"/>
<stop offset="1" stop-color="#A3315A"/>
</linearGradient>
<linearGradient id="paint3_linear_249_3867" x1="44.4935" y1="19.1607" x2="44.4935" y2="24.8978" gradientUnits="userSpaceOnUse">
<stop stop-color="#FF005C"/>
<stop offset="1" stop-color="#A3315A"/>
</linearGradient>
<linearGradient id="paint4_linear_249_3867" x1="36.7767" y1="26.4946" x2="36.7767" y2="32.2317" gradientUnits="userSpaceOnUse">
<stop stop-color="#FF005C"/>
<stop offset="1" stop-color="#A3315A"/>
</linearGradient>
<linearGradient id="paint5_linear_249_3867" x1="44.4935" y1="26.4946" x2="44.4935" y2="32.2317" gradientUnits="userSpaceOnUse">
<stop stop-color="#FF005C"/>
<stop offset="1" stop-color="#A3315A"/>
</linearGradient>
<linearGradient id="paint6_linear_249_3867" x1="42.838" y1="43.3296" x2="42.838" y2="47.5425" gradientUnits="userSpaceOnUse">
<stop stop-color="#FF005C"/>
<stop offset="1" stop-color="#A3315A"/>
</linearGradient>
<linearGradient id="paint7_linear_249_3867" x1="28.4994" y1="0.886475" x2="28.4994" y2="53.1139" gradientUnits="userSpaceOnUse">
<stop stop-color="#FF005C"/>
<stop offset="1" stop-color="#A3315A"/>
</linearGradient>
<linearGradient id="paint8_linear_249_3867" x1="22.1831" y1="42.0252" x2="22.1831" y2="48.4425" gradientUnits="userSpaceOnUse">
<stop stop-color="#FF005C"/>
<stop offset="1" stop-color="#A3315A"/>
</linearGradient>
</defs>
</svg>
