<svg width="18" height="23" viewBox="0 0 18 23" fill="none" xmlns="http://www.w3.org/2000/svg">
<path d="M16.6755 5.81192C15.4738 5.81192 14.6156 7.06256 14.6156 9.46593C14.6156 10.4714 14.1005 11.2561 13.2668 11.2561C12.2613 11.2561 11.8935 10.545 11.8935 9.73568C11.8935 8.2642 13.2914 8.09263 13.2914 5.76296C13.2914 4.07081 11.1334 2.77113 11.1334 2.77113C11.82 5.19897 10.5694 6.47409 9.29412 6.47409C8.55837 6.47409 7.52844 5.95902 7.52844 4.04625C7.52844 1.47126 9.49035 0 9.49035 0C4.68379 0.0489239 3.80095 4.75751 4.75736 7.06269C5.37044 8.48504 5.51754 10.3243 4.04627 10.3243C2.30504 10.3243 3.21253 7.08713 3.21253 7.08713C2.45235 7.45491 0.245127 9.14704 0.0244617 12.5803C1.64441e-07 12.7521 0 12.9237 0 13.1198C0 13.2916 1.64441e-07 13.4632 0.0244617 13.6349V13.6594C0.294051 18.3924 4.21785 22.1199 8.99997 22.1199C13.9782 22.1199 18 18.0981 18 13.1199C18 8.68117 15.2779 7.99452 16.6758 5.81195L16.6755 5.81192ZM8.99975 20.9428C8.99975 20.9428 5.05151 20.109 5.05151 16.3814C5.05151 13.0954 7.50383 10.8147 9.63735 10.8147C9.63735 10.8147 7.8472 11.8937 7.8472 14.4931C7.8472 16.2344 8.77913 16.7002 9.44112 16.7002C10.6182 16.7002 11.7464 15.5231 11.1086 13.3159C11.1086 13.3159 12.9234 14.5912 12.9234 16.6266C12.948 19.9374 8.99975 20.9428 8.99975 20.9428V20.9428Z" fill="#CFCFCF" fill-opacity="0.04"/>
<path d="M16.6755 5.81192C15.4738 5.81192 14.6156 7.06256 14.6156 9.46593C14.6156 10.4714 14.1005 11.2561 13.2668 11.2561C12.2613 11.2561 11.8935 10.545 11.8935 9.73568C11.8935 8.2642 13.2914 8.09263 13.2914 5.76296C13.2914 4.07081 11.1334 2.77113 11.1334 2.77113C11.82 5.19897 10.5694 6.47409 9.29412 6.47409C8.55837 6.47409 7.52844 5.95902 7.52844 4.04625C7.52844 1.47126 9.49035 0 9.49035 0C4.68379 0.0489239 3.80095 4.75751 4.75736 7.06269C5.37044 8.48504 5.51754 10.3243 4.04627 10.3243C2.30504 10.3243 3.21253 7.08713 3.21253 7.08713C2.45235 7.45491 0.245127 9.14704 0.0244617 12.5803C1.64441e-07 12.7521 0 12.9237 0 13.1198C0 13.2916 1.64441e-07 13.4632 0.0244617 13.6349V13.6594C0.294051 18.3924 4.21785 22.1199 8.99997 22.1199C13.9782 22.1199 18 18.0981 18 13.1199C18 8.68117 15.2779 7.99452 16.6758 5.81195L16.6755 5.81192ZM8.99975 20.9428C8.99975 20.9428 5.05151 20.109 5.05151 16.3814C5.05151 13.0954 7.50383 10.8147 9.63735 10.8147C9.63735 10.8147 7.8472 11.8937 7.8472 14.4931C7.8472 16.2344 8.77913 16.7002 9.44112 16.7002C10.6182 16.7002 11.7464 15.5231 11.1086 13.3159C11.1086 13.3159 12.9234 14.5912 12.9234 16.6266C12.948 19.9374 8.99975 20.9428 8.99975 20.9428V20.9428Z" fill="url(#paint0_linear_251_4168)" fill-opacity="0.2"/>
<defs>
<linearGradient id="paint0_linear_251_4168" x1="16.4169" y1="2.5177" x2="2.14638" y2="19.3336" gradientUnits="userSpaceOnUse">
<stop/>
<stop offset="1" stop-opacity="0"/>
</linearGradient>
</defs>
</svg>
