<svg width="37" height="37" viewBox="0 0 37 37" fill="none" xmlns="http://www.w3.org/2000/svg">
<g filter="url(#filter0_d_303_5)">
<circle cx="18.5" cy="18.5" r="14.5" fill="#FF005C"/>
</g>
<path fill-rule="evenodd" clip-rule="evenodd" d="M9.51083 16.8908L9.48471 16.8586C9.4052 16.7602 9.36835 16.634 9.38228 16.5083C9.39403 16.3934 9.45149 16.2881 9.54173 16.216L18.0003 9.59268L26.4588 16.2152C26.5491 16.2872 26.6065 16.3925 26.6183 16.5075C26.6322 16.6332 26.5952 16.7595 26.5154 16.8578L26.4897 16.8898C26.3216 17.0865 26.0266 17.1119 25.8274 16.9466L18.378 11.1665C18.2699 11.0828 18.137 11.0373 18.0004 11.0373C17.8637 11.0373 17.7308 11.0828 17.6227 11.1665L10.1733 16.9466C9.9741 17.1119 9.67913 17.0865 9.51098 16.8898L9.51083 16.8908ZM24.0768 25.3739C24.1402 25.3728 24.1914 25.3215 24.1921 25.2579V17.238L18.0004 12.4329L11.8087 17.238V25.2583V25.2582C11.8096 25.3217 11.8608 25.3731 11.9243 25.3741H14.0348V18.9844C14.0348 18.8212 14.0998 18.6645 14.2153 18.5491C14.3308 18.4336 14.4873 18.3688 14.6506 18.3688H21.3504C21.5136 18.3688 21.6702 18.4336 21.7857 18.5491C21.901 18.6646 21.966 18.8212 21.966 18.9844V25.3741L24.0768 25.3739ZM20.7344 25.3739H15.2662V19.6H20.7344V25.3739ZM11.9241 26.6054H24.0768C24.4339 26.6048 24.7763 26.4626 25.0288 26.21C25.2812 25.9575 25.4233 25.6151 25.4237 25.2579V18.1335C25.7642 18.292 26.1479 18.3323 26.5138 18.248C26.8798 18.1639 27.2072 17.96 27.4443 17.6688L27.4705 17.637C27.7587 17.2816 27.8927 16.8257 27.8427 16.3708C27.7954 15.9267 27.5701 15.5207 27.2181 15.2457L18.3799 8.32594C18.2716 8.24121 18.1379 8.19507 18.0004 8.19507C17.8627 8.19507 17.7291 8.24121 17.6208 8.32594L8.78268 15.2457C8.43069 15.5207 8.20537 15.9269 8.15823 16.371C8.10818 16.8258 8.24224 17.2817 8.5304 17.637L8.55652 17.6692C8.87543 18.0631 9.35554 18.2917 9.86231 18.2908C10.1094 18.2903 10.3536 18.2368 10.5781 18.1335V25.2579C10.5785 25.6149 10.7202 25.9572 10.9727 26.2098C11.225 26.4624 11.5671 26.6046 11.9242 26.6053L11.9241 26.6054Z" fill="white"/>
<defs>
<filter id="filter0_d_303_5" x="0" y="0" width="37" height="37" filterUnits="userSpaceOnUse" color-interpolation-filters="sRGB">
<feFlood flood-opacity="0" result="BackgroundImageFix"/>
<feColorMatrix in="SourceAlpha" type="matrix" values="0 0 0 0 0 0 0 0 0 0 0 0 0 0 0 0 0 0 127 0" result="hardAlpha"/>
<feOffset/>
<feGaussianBlur stdDeviation="2"/>
<feComposite in2="hardAlpha" operator="out"/>
<feColorMatrix type="matrix" values="0 0 0 0 1 0 0 0 0 0 0 0 0 0 0.36 0 0 0 0.31 0"/>
<feBlend mode="normal" in2="BackgroundImageFix" result="effect1_dropShadow_303_5"/>
<feBlend mode="normal" in="SourceGraphic" in2="effect1_dropShadow_303_5" result="shape"/>
</filter>
</defs>
</svg>
