<svg width="37" height="37" viewBox="0 0 37 37" fill="none" xmlns="http://www.w3.org/2000/svg">
<g filter="url(#filter0_d_303_7)">
<circle cx="18.5" cy="18.5" r="14.5" fill="#FF005C"/>
</g>
<path d="M21.3002 8.79988C19.6413 8.79988 18.2208 9.86978 17.7067 11.35L15.8629 10.825C15.8061 10.808 15.7472 10.7996 15.688 10.7999C15.637 10.8018 15.5867 10.8103 15.538 10.825L9.93799 12.4249C9.81257 12.4603 9.70194 12.5355 9.62298 12.6392C9.54402 12.743 9.50105 12.8696 9.50049 13V24.6C9.50133 24.7873 9.58963 24.9635 9.73919 25.0764C9.88888 25.1892 10.0827 25.2257 10.263 25.1749L15.7005 23.6187L21.138 25.1749C21.2442 25.2049 21.3567 25.2049 21.463 25.1749L27.063 23.575C27.2288 23.5442 27.3742 23.445 27.4632 23.3017C27.5522 23.1583 27.5769 22.9842 27.531 22.8218C27.4851 22.6594 27.373 22.5238 27.222 22.4483C27.0712 22.3728 26.8954 22.3643 26.7379 22.4249L21.9004 23.8124V18.431C23.8498 16.3594 25.1005 14.531 25.1005 12.5685V12.5372L26.3004 12.1935V20.9996C26.2982 21.1601 26.3604 21.315 26.4731 21.4294C26.586 21.5436 26.7399 21.6081 26.9004 21.6081C27.061 21.6081 27.215 21.5436 27.3278 21.4294C27.4405 21.315 27.5027 21.1601 27.5005 20.9996V11.3996C27.5005 11.2372 27.4348 11.0816 27.3181 10.9686C27.2015 10.8555 27.0441 10.7945 26.8817 10.7996C26.8329 10.8021 26.7846 10.8104 26.7379 10.8247L24.8941 11.3496C24.3798 9.86945 22.9593 8.79956 21.3006 8.79956L21.3002 8.79988ZM21.3002 9.99995C22.7465 9.99995 23.9003 11.1466 23.9003 12.5687C23.9003 13.9251 22.9752 15.451 21.3002 17.2937C19.6254 15.451 18.7003 13.925 18.7003 12.5687C18.7003 11.1466 19.8539 9.99995 21.3002 9.99995ZM21.3002 10.7999C20.3133 10.7999 19.5003 11.613 19.5003 12.6C19.5003 13.587 20.3134 14.3999 21.3002 14.3999C22.2873 14.3999 23.1003 13.587 23.1003 12.6C23.1003 11.613 22.2872 10.7999 21.3002 10.7999ZM21.3002 12C21.6388 12 21.9003 12.2615 21.9003 12.6C21.9003 12.9384 21.6388 13.2 21.3002 13.2C20.9618 13.2 20.7003 12.9384 20.7003 12.6C20.7003 12.2615 20.9618 12 21.3002 12ZM15.1002 12.1875V22.55L10.7002 23.8062V13.4502L15.1002 12.1875ZM16.3002 12.1937L17.5002 12.5375C17.5001 12.5479 17.5002 12.5583 17.5002 12.5687C17.5002 14.5313 18.7508 16.3594 20.7003 18.4312V23.8127L16.3003 22.5501L16.3002 12.1937Z" fill="white"/>
<defs>
<filter id="filter0_d_303_7" x="0" y="0" width="37" height="37" filterUnits="userSpaceOnUse" color-interpolation-filters="sRGB">
<feFlood flood-opacity="0" result="BackgroundImageFix"/>
<feColorMatrix in="SourceAlpha" type="matrix" values="0 0 0 0 0 0 0 0 0 0 0 0 0 0 0 0 0 0 127 0" result="hardAlpha"/>
<feOffset/>
<feGaussianBlur stdDeviation="2"/>
<feComposite in2="hardAlpha" operator="out"/>
<feColorMatrix type="matrix" values="0 0 0 0 1 0 0 0 0 0 0 0 0 0 0.36 0 0 0 0.31 0"/>
<feBlend mode="normal" in2="BackgroundImageFix" result="effect1_dropShadow_303_7"/>
<feBlend mode="normal" in="SourceGraphic" in2="effect1_dropShadow_303_7" result="shape"/>
</filter>
</defs>
</svg>
