<svg width="37" height="37" viewBox="0 0 37 37" fill="none" xmlns="http://www.w3.org/2000/svg">
<g filter="url(#filter0_d_303_6)">
<circle cx="18.5" cy="18.5" r="14.5" fill="#FF005C"/>
</g>
<path d="M28.3498 14.4672C27.6154 14.316 26.9674 14.2512 26.2761 14.2512H26.0818C25.6281 14.2512 25.1746 14.2944 24.7209 14.3807C24.8073 13.9271 24.8505 13.4735 24.8505 13.0199C24.8505 12.2638 24.8073 11.5512 24.6344 10.7736V10.7303C24.5481 10.4495 24.2457 10.2984 23.9649 10.3847C23.2088 10.6223 22.561 10.9463 21.9129 11.3351C21.5242 11.5727 21.1568 11.8536 20.8114 12.1343C20.6385 11.7023 20.4442 11.2704 20.2281 10.8599C19.8609 10.1904 19.4505 9.60714 18.9105 9.02386L18.889 9.00232C18.6729 8.80795 18.349 8.80795 18.1329 9.02386C17.5929 9.6071 17.1825 10.2119 16.8153 10.8815C16.5992 11.2919 16.4049 11.7023 16.2321 12.1343C15.8864 11.8319 15.4977 11.551 15.1088 11.3134C14.4608 10.9247 13.8127 10.6221 13.0569 10.363L13.0139 10.32C12.7331 10.2553 12.4524 10.4281 12.3876 10.7088V10.7303C12.2363 11.4647 12.1715 12.1342 12.1715 12.8471V12.9983C12.1715 13.452 12.2148 13.9055 12.3011 14.3592C11.8474 14.2729 11.3939 14.2512 10.9187 14.2296C10.1626 14.2296 9.42827 14.2729 8.67238 14.4457H8.62914C8.3483 14.532 8.19718 14.8344 8.28351 15.0937V15.1153C8.52112 15.8713 8.84507 16.5192 9.23395 17.1672C9.62267 17.8153 10.0763 18.42 10.6163 18.9385C11.1131 19.4137 11.6963 19.8024 12.3227 20.0833L13.8779 19.932C13.4891 19.8457 13.1218 19.716 12.7763 19.5433C12.1715 19.2625 11.6531 18.852 11.1995 18.3553C10.7459 17.8585 10.3787 17.2968 10.0763 16.692C9.86025 16.2816 9.66587 15.8064 9.51475 15.3744C9.96842 15.2881 10.4652 15.2231 10.9404 15.2016C11.4804 15.1801 11.9988 15.2016 12.5171 15.2664C12.7332 15.9792 13.0787 16.6488 13.5323 17.232C14.0075 17.8368 14.5691 18.312 15.1956 18.7225C15.3252 18.8088 15.4764 18.7657 15.5628 18.6577C15.6491 18.5281 15.6276 18.3553 15.498 18.269C14.958 17.8585 14.4612 17.3618 14.0941 16.8218C13.7053 16.2818 13.4677 15.6554 13.3165 15.0074C13.1652 14.3594 13.1221 13.6682 13.1652 12.9987C13.1867 12.5235 13.2515 12.0267 13.338 11.573C13.7917 11.7243 14.2452 11.9187 14.6556 12.1346C15.1308 12.3722 15.5843 12.653 15.9732 12.977C15.8219 13.6898 15.7571 14.4457 15.8652 15.1802C15.9732 15.9363 16.2108 16.649 16.5564 17.297C16.6212 17.4266 16.7725 17.4914 16.9021 17.4266C17.0317 17.3618 17.1181 17.2105 17.0534 17.0594C16.7942 16.4331 16.5997 15.7633 16.5566 15.0938C16.5134 14.4242 16.5998 13.7546 16.7942 13.1281C16.9886 12.4801 17.291 11.8753 17.6581 11.3138C17.9173 10.925 18.2197 10.5146 18.522 10.169C18.8244 10.5146 19.1268 10.925 19.386 11.3138C19.7531 11.8753 20.0555 12.5018 20.2499 13.1281C20.4443 13.7762 20.5307 14.4242 20.4875 15.0938C20.4443 15.7633 20.2499 16.4329 19.9907 17.0594C19.926 17.189 19.9907 17.3618 20.1203 17.4266C20.2499 17.4914 20.4227 17.4481 20.4875 17.297C20.8114 16.6274 21.0707 15.9362 21.1788 15.1802C21.2868 14.4459 21.2436 13.6898 21.0707 12.977C21.4812 12.6531 21.9131 12.3722 22.3883 12.1346C22.7988 11.9185 23.2523 11.7242 23.7059 11.573C23.7923 12.0267 23.8572 12.5235 23.8788 12.9987C23.922 13.6682 23.8788 14.3595 23.7275 15.0074C23.5762 15.6554 23.3388 16.2818 22.9499 16.8218C22.5827 17.3833 22.086 17.8585 21.546 18.269C21.4379 18.3553 21.3947 18.5281 21.4812 18.6361C21.5675 18.7657 21.7403 18.809 21.8699 18.7225C22.4962 18.312 23.0579 17.8153 23.5331 17.232C23.9868 16.6488 24.3107 15.9792 24.5268 15.2881C25.0453 15.2018 25.5636 15.1801 26.082 15.2233C26.5572 15.2449 27.054 15.3097 27.5077 15.3961C27.3564 15.8498 27.162 16.3033 26.9461 16.7137C26.7517 17.0809 26.5574 17.4265 26.2981 17.7505C26.5789 17.8801 26.8381 18.0313 27.0541 18.2473C27.3133 17.9233 27.5726 17.556 27.7885 17.1888C28.1772 16.5408 28.4798 15.8927 28.7389 15.1151L28.7605 15.0719C28.8034 14.8129 28.6306 14.5321 28.3498 14.4673L28.3498 14.4672Z" fill="white"/>
<path d="M10.0331 23.4313C9.75224 23.4313 9.51465 23.6689 9.51465 23.9497C9.51465 24.2305 9.75226 24.4682 10.0331 24.4682H22.4531C22.2587 24.1873 22.0644 23.8201 21.8483 23.453L10.0331 23.4528V23.4313Z" fill="white"/>
<path d="M26.298 22.6536C26.2332 22.6751 25.2828 22.9127 24.5699 23.0855C24.3971 23.1288 24.2027 23.064 24.1162 22.8912C23.9219 22.5672 23.7058 22.1568 23.5547 21.876C23.0147 20.8392 22.7338 20.364 22.3884 20.1264C22.1723 19.9968 21.9564 19.8888 21.6756 19.9103L10.206 21.0984C9.79553 21.1416 9.49316 21.4871 9.49316 21.8975C9.49316 22.3295 9.8388 22.6967 10.2923 22.6967H21.9995C22.1508 22.6967 22.3019 22.783 22.3667 22.9128C22.9715 24.036 23.4035 24.7488 24.0299 24.7488C24.1163 24.7488 24.2028 24.7273 24.2891 24.7056C24.7428 24.576 26.6004 24.1008 26.6219 24.1008C27.0323 23.9928 27.2915 23.5824 27.1835 23.1721C27.1188 22.8047 26.7084 22.5671 26.298 22.6536L26.298 22.6536Z" fill="white"/>
<path d="M25.3257 21.8977C26.2976 21.8977 27.0752 21.1201 27.0752 20.1481C27.0752 19.1762 26.2976 18.3986 25.3257 18.3986C24.3537 18.3986 23.5761 19.1762 23.5761 20.1481C23.5544 21.1201 24.3537 21.8977 25.3257 21.8977Z" fill="white"/>
<defs>
<filter id="filter0_d_303_6" x="0" y="0" width="37" height="37" filterUnits="userSpaceOnUse" color-interpolation-filters="sRGB">
<feFlood flood-opacity="0" result="BackgroundImageFix"/>
<feColorMatrix in="SourceAlpha" type="matrix" values="0 0 0 0 0 0 0 0 0 0 0 0 0 0 0 0 0 0 127 0" result="hardAlpha"/>
<feOffset/>
<feGaussianBlur stdDeviation="2"/>
<feComposite in2="hardAlpha" operator="out"/>
<feColorMatrix type="matrix" values="0 0 0 0 1 0 0 0 0 0 0 0 0 0 0.36 0 0 0 0.31 0"/>
<feBlend mode="normal" in2="BackgroundImageFix" result="effect1_dropShadow_303_6"/>
<feBlend mode="normal" in="SourceGraphic" in2="effect1_dropShadow_303_6" result="shape"/>
</filter>
</defs>
</svg>
