<svg width="37" height="37" viewBox="0 0 37 37" fill="none" xmlns="http://www.w3.org/2000/svg">
<g filter="url(#filter0_d_301_4)">
<circle cx="18.5" cy="18.5" r="14.5" fill="#FF005C"/>
</g>
<path d="M18.5002 8.72803C13.4975 8.72803 9.42822 12.7973 9.42822 17.8C9.42822 22.8027 13.4975 26.872 18.5002 26.872C23.5029 26.872 27.5722 22.8027 27.5722 17.8C27.5722 12.7973 23.5029 8.72803 18.5002 8.72803V8.72803ZM18.5002 10.0241C22.8025 10.0241 26.2762 13.4979 26.2762 17.8001C26.2762 22.1024 22.8024 25.5761 18.5002 25.5761C14.198 25.5761 10.7242 22.1023 10.7242 17.8001C10.7242 13.4978 14.198 10.0241 18.5002 10.0241V10.0241ZM16.1916 13.0414C15.9128 13.0473 15.6412 13.1263 15.4086 13.2641C14.9435 13.5401 14.6254 14.0658 14.6122 14.6614V20.9189C14.6256 21.5144 14.9441 22.0387 15.4086 22.3162C15.8731 22.5936 16.4943 22.6225 17.0218 22.3366C18.8276 21.2981 20.6322 20.2449 22.4353 19.1978C22.9164 18.9185 23.2521 18.3886 23.2521 17.7871C23.2521 17.1855 22.9164 16.6557 22.4353 16.3764C20.6184 15.3564 18.8455 14.248 17.0218 13.2444C16.7413 13.1091 16.4494 13.0391 16.1916 13.0419V13.0414ZM16.239 14.3375C16.2905 14.3429 16.344 14.3637 16.4077 14.3848L21.7877 17.4966C21.8943 17.5585 21.9564 17.6554 21.9564 17.7868C21.9564 17.9182 21.8945 18.0151 21.7877 18.077L16.4077 21.1956C16.2641 21.2735 16.1674 21.2564 16.077 21.2022C15.9895 21.1499 15.9162 21.0636 15.9082 20.9052V14.6752C15.9161 14.5167 15.9833 14.4297 16.0702 14.3782C16.1377 14.3425 16.1874 14.3324 16.239 14.3377V14.3375Z" fill="white"/>
<defs>
<filter id="filter0_d_301_4" x="0" y="0" width="37" height="37" filterUnits="userSpaceOnUse" color-interpolation-filters="sRGB">
<feFlood flood-opacity="0" result="BackgroundImageFix"/>
<feColorMatrix in="SourceAlpha" type="matrix" values="0 0 0 0 0 0 0 0 0 0 0 0 0 0 0 0 0 0 127 0" result="hardAlpha"/>
<feOffset/>
<feGaussianBlur stdDeviation="2"/>
<feComposite in2="hardAlpha" operator="out"/>
<feColorMatrix type="matrix" values="0 0 0 0 1 0 0 0 0 0 0 0 0 0 0.36 0 0 0 0.31 0"/>
<feBlend mode="normal" in2="BackgroundImageFix" result="effect1_dropShadow_301_4"/>
<feBlend mode="normal" in="SourceGraphic" in2="effect1_dropShadow_301_4" result="shape"/>
</filter>
</defs>
</svg>
